<svg width="24" height="23" viewBox="0 0 24 23" fill="none" xmlns="http://www.w3.org/2000/svg">
<path d="M18.2031 7.2002H17.2031H1.20314C0.60314 7.2002 0.203125 7.6002 0.203125 8.2002V17.2002C0.203125 20.0002 2.40314 22.2002 5.20314 22.2002H13.2031C16.0031 22.2002 18.2031 20.0002 18.2031 17.2002C21.0031 17.2002 23.2031 15.0002 23.2031 12.2002C23.2031 9.4002 20.9031 7.2002 18.2031 7.2002ZM16.2031 17.2002C16.2031 18.9002 14.9031 20.2002 13.2031 20.2002H5.20314C3.50314 20.2002 2.20314 18.9002 2.20314 17.2002V9.2002H16.2031V17.2002ZM18.2031 15.2002V9.2002C19.9031 9.2002 21.2031 10.5002 21.2031 12.2002C21.2031 13.8002 19.8031 15.2002 18.2031 15.2002Z" fill="white"/>
<path d="M5.20312 5.2002C5.80313 5.2002 6.20312 4.8002 6.20312 4.2002V1.2002C6.20312 0.600195 5.80313 0.200195 5.20312 0.200195C4.60312 0.200195 4.20312 0.600195 4.20312 1.2002V4.2002C4.20312 4.7002 4.60312 5.2002 5.20312 5.2002Z" fill="white"/>
<path d="M9.20312 5.2002C9.80313 5.2002 10.2031 4.8002 10.2031 4.2002V1.2002C10.2031 0.600195 9.80313 0.200195 9.20312 0.200195C8.60312 0.200195 8.20312 0.600195 8.20312 1.2002V4.2002C8.20312 4.7002 8.60312 5.2002 9.20312 5.2002Z" fill="white"/>
<path d="M13.2031 5.2002C13.8031 5.2002 14.2031 4.8002 14.2031 4.2002V1.2002C14.2031 0.600195 13.8031 0.200195 13.2031 0.200195C12.6031 0.200195 12.2031 0.600195 12.2031 1.2002V4.2002C12.2031 4.7002 12.6031 5.2002 13.2031 5.2002Z" fill="white"/>
</svg>
