<svg width="17" height="21" viewBox="0 0 17 21" fill="none" xmlns="http://www.w3.org/2000/svg">
<path d="M5.30078 14.5H11.3008C11.9008 14.5 12.3008 14.9 12.3008 15.5C12.3008 16.1 11.9008 16.5 11.3008 16.5H5.30078C4.70078 16.5 4.30078 16.1 4.30078 15.5C4.30078 15 4.70078 14.5 5.30078 14.5ZM5.30078 10.5H11.3008C11.9008 10.5 12.3008 10.9 12.3008 11.5C12.3008 12.1 11.9008 12.5 11.3008 12.5H5.30078C4.70078 12.5 4.30078 12.1 4.30078 11.5C4.30078 11 4.70078 10.5 5.30078 10.5ZM10.3008 0.5H2.30078C1.20078 0.5 0.300781 1.4 0.300781 2.5V18.5C0.300781 19.6 1.20078 20.5 2.30078 20.5H14.3008C15.4008 20.5 16.3008 19.6 16.3008 18.5V6.5L10.3008 0.5ZM14.3008 18.5H2.30078V2.5H9.30078V5.5C9.30078 6.6 10.2008 7.5 11.3008 7.5H14.3008V18.5Z" fill="#1A1A1A"/>
</svg>
