<svg width="21" height="23" viewBox="0 0 21 23" fill="none" xmlns="http://www.w3.org/2000/svg">
<path d="M9.30198 22.2001C9.20198 22.2001 9.00198 22.2001 8.90198 22.1001C8.50198 21.9001 8.30198 21.5001 8.30198 21.1001L9.202 14.2001H1.30199C0.901993 14.2001 0.601984 14.0001 0.401984 13.6001C0.201984 13.2001 0.30199 12.8001 0.50199 12.5001L10.502 0.500138C10.802 0.200138 11.302 0.000134476 11.702 0.200134C12.102 0.400134 12.302 0.800135 12.302 1.20013L11.402 8.10014H19.302C19.702 8.10014 20.002 8.30013 20.202 8.70013C20.402 9.10013 20.302 9.50014 20.102 9.80014L10.102 21.8001C9.902 22.1001 9.60198 22.2001 9.30198 22.2001ZM3.40198 12.2001H10.302C10.602 12.2001 10.902 12.3001 11.002 12.5001C11.202 12.7001 11.302 13.0001 11.202 13.3001L10.602 17.9001L17.002 10.2001H10.102C9.802 10.2001 9.50198 10.1001 9.40198 9.90014C9.20198 9.70014 9.102 9.40014 9.202 9.10014L9.80198 4.50014L3.40198 12.2001Z" fill="white"/>
</svg>
