<svg width="24" height="24" viewBox="0 0 24 24" fill="none" xmlns="http://www.w3.org/2000/svg">
<path d="M14.5002 21.2H11.0002M18.7002 8.70001C18.7002 7.91208 18.545 7.13187 18.2435 6.40391C17.9419 5.67596 17.5 5.01452 16.9428 4.45737C16.3857 3.90022 15.7242 3.45826 14.9963 3.15674C14.2683 2.85521 13.4881 2.70001 12.7002 2.70001C11.9123 2.70001 11.132 2.85521 10.4041 3.15674C9.67614 3.45826 9.01471 3.90022 8.45755 4.45737C7.9004 5.01452 7.45845 5.67596 7.15692 6.40391C6.85539 7.13187 6.7002 7.91208 6.7002 8.70001C6.7002 11 9.1002 13.1 9.7002 14.5C10.7002 16.3 10.7002 17.7 10.7002 17.7H14.7002C14.7002 17.7 14.7002 16.3 15.7002 14.5C16.4002 13.1 18.7002 11.3 18.7002 8.70001Z" stroke="white" stroke-width="2" stroke-linecap="round" stroke-linejoin="round"/>
</svg>