<svg width="23" height="23" viewBox="0 0 23 23" fill="none" xmlns="http://www.w3.org/2000/svg">
<path d="M11.3008 0.200195C5.20077 0.200195 0.300781 5.1002 0.300781 11.2002C0.300781 17.3002 5.20077 22.2002 11.3008 22.2002C17.4008 22.2002 22.3008 17.3002 22.3008 11.2002C22.3008 5.1002 17.4008 0.200195 11.3008 0.200195ZM12.3008 20.1002V17.2002C12.3008 16.6002 11.9008 16.2002 11.3008 16.2002C10.7008 16.2002 10.3008 16.6002 10.3008 17.2002V20.1002C6.10077 19.6002 2.80077 16.3002 2.40077 12.2002H5.30077C5.90077 12.2002 6.30077 11.8002 6.30077 11.2002C6.30077 10.6002 5.90077 10.2002 5.30077 10.2002H2.40077C2.90077 6.0002 6.20077 2.7002 10.3008 2.3002V5.2002C10.3008 5.8002 10.7008 6.2002 11.3008 6.2002C11.9008 6.2002 12.3008 5.8002 12.3008 5.2002V2.3002C16.5008 2.8002 19.8008 6.1002 20.2008 10.2002H17.3008C16.7008 10.2002 16.3008 10.6002 16.3008 11.2002C16.3008 11.8002 16.7008 12.2002 17.3008 12.2002H20.2008C19.8008 16.4002 16.5008 19.7002 12.3008 20.1002Z" fill="white"/>
</svg>
