<svg width="21" height="21" viewBox="0 0 21 21" fill="none" xmlns="http://www.w3.org/2000/svg">
<path d="M8.30077 9.2002H1.30078C0.700781 9.2002 0.300781 8.8002 0.300781 8.2002V1.2002C0.300781 0.600195 0.700781 0.200195 1.30078 0.200195H8.30077C8.90077 0.200195 9.30077 0.600195 9.30077 1.2002V8.2002C9.30077 8.7002 8.80077 9.2002 8.30077 9.2002ZM2.30077 7.2002H7.30077V2.2002H2.30077V7.2002Z" fill="#200F31"/>
<path d="M19.3008 9.2002H12.3008C11.7008 9.2002 11.3008 8.8002 11.3008 8.2002V1.2002C11.3008 0.600195 11.7008 0.200195 12.3008 0.200195H19.3008C19.9008 0.200195 20.3008 0.600195 20.3008 1.2002V8.2002C20.3008 8.7002 19.8008 9.2002 19.3008 9.2002ZM13.3008 7.2002H18.3008V2.2002H13.3008V7.2002Z" fill="#200F31"/>
<path d="M19.3008 20.2002H12.3008C11.7008 20.2002 11.3008 19.8002 11.3008 19.2002V12.2002C11.3008 11.6002 11.7008 11.2002 12.3008 11.2002H19.3008C19.9008 11.2002 20.3008 11.6002 20.3008 12.2002V19.2002C20.3008 19.7002 19.8008 20.2002 19.3008 20.2002ZM13.3008 18.2002H18.3008V13.2002H13.3008V18.2002Z" fill="#200F31"/>
<path d="M8.30077 20.2002H1.30078C0.700781 20.2002 0.300781 19.8002 0.300781 19.2002V12.2002C0.300781 11.6002 0.700781 11.2002 1.30078 11.2002H8.30077C8.90077 11.2002 9.30077 11.6002 9.30077 12.2002V19.2002C9.30077 19.7002 8.80077 20.2002 8.30077 20.2002ZM2.30077 18.2002H7.30077V13.2002H2.30077V18.2002Z" fill="#200F31"/>
</svg>
