<svg width="23" height="22" viewBox="0 0 23 22" fill="none" xmlns="http://www.w3.org/2000/svg">
<path d="M17.5031 21.2003C17.3031 21.2003 17.2031 21.2003 17.0031 21.1003L11.3031 18.1003L5.60313 21.1003C5.30313 21.3003 4.90312 21.2003 4.50312 21.0003C4.20312 20.8003 4.00313 20.4003 4.10313 20.0003L5.20313 13.6003L0.603128 9.10029C0.303128 8.80029 0.203125 8.40029 0.303125 8.10029C0.403125 7.70029 0.703128 7.5003 1.10313 7.4003L7.50312 6.5003L10.4031 0.700293C10.7031 0.000292957 11.9031 0.000292957 12.2031 0.700293L15.1031 6.5003L21.5031 7.4003C21.9031 7.5003 22.2031 7.70029 22.3031 8.10029C22.4031 8.50029 22.3031 8.90029 22.0031 9.10029L17.4031 13.6003L18.5031 20.0003C18.6031 20.4003 18.4031 20.8003 18.1031 21.0003C17.9031 21.1003 17.7031 21.2003 17.5031 21.2003ZM3.40312 9.10029L6.90312 12.6003C7.10312 12.8003 7.20313 13.2003 7.20313 13.5003L6.40312 18.4003L10.8031 16.1003C11.1031 15.9003 11.4031 15.9003 11.7031 16.1003L16.1031 18.4003L15.3031 13.5003C15.2031 13.2003 15.4031 12.8003 15.6031 12.6003L19.1031 9.10029L14.2031 8.4003C13.9031 8.4003 13.6031 8.1003 13.4031 7.9003L11.2031 3.5003L9.00312 7.9003C8.90312 8.2003 8.60313 8.4003 8.20313 8.4003L3.40312 9.10029Z" fill="white"/>
</svg>
