<svg width="611" height="142" viewBox="0 0 611 142" fill="none" xmlns="http://www.w3.org/2000/svg">
<g clip-path="url(#clip0_600_4923)">
<path d="M17.7416 2.64301H0V139.516H17.7416V2.64301Z" fill="black"/>
<path d="M83.7883 89.5859H74.6533C55.7828 89.5859 40.4336 73.8553 40.4336 54.5158V2.60052H92.9336C111.804 2.60052 127.153 18.3311 127.153 37.6706V51.2465H109.412V37.6706C109.412 28.3618 102.017 20.7831 92.9336 20.7831H58.1752V54.5158C58.1752 63.8246 65.5702 71.4033 74.6533 71.4033H83.7883V89.5859ZM128.924 104.329V87.9937C128.924 68.6542 113.575 52.9236 94.7046 52.9236H83.7883V71.1061H94.7046C103.788 71.1061 111.183 78.6848 111.183 87.9937V104.329C111.183 113.638 103.788 121.217 94.7046 121.217H58.1752V90.7747H40.4336V139.399H94.7046C113.575 139.399 128.924 123.669 128.924 104.329Z" fill="black"/>
<path d="M189.347 142H186.396C163.475 142 144.822 122.883 144.822 99.3936V42.5957C144.822 19.106 163.475 -0.0106201 186.396 -0.0106201H189.347C212.267 -0.0106201 230.921 19.106 230.921 42.5957H213.179C213.179 29.1366 202.49 18.1825 189.358 18.1825H186.406C173.273 18.1825 162.585 29.1366 162.585 42.5957V99.3936C162.585 112.853 173.273 123.807 186.406 123.807H189.358C202.49 123.807 213.179 112.853 213.179 99.3936H230.921C230.921 122.883 212.267 142 189.347 142Z" fill="black"/>
</g>
<path d="M264.738 23.4047V20.9197H283.103V23.4047H275.498V45.7012H272.821V23.4047H264.738Z" fill="black"/>
<path d="M286.647 45.7012V20.2342H289.222V30.5855C289.529 30.0828 289.938 29.6144 290.45 29.1802C290.973 28.746 291.598 28.3976 292.326 28.1348C293.065 27.8606 293.906 27.7235 294.849 27.7235C296.009 27.7235 297.049 27.9348 297.97 28.3576C298.902 28.7803 299.641 29.3801 300.187 30.1571C300.732 30.934 301.005 31.848 301.005 32.8991V45.7012H298.345V33.499C298.345 32.3793 297.964 31.511 297.203 30.894C296.441 30.2656 295.435 29.9514 294.184 29.9514C293.332 29.9514 292.53 30.0942 291.78 30.3798C291.041 30.6541 290.444 31.0711 289.99 31.6309C289.535 32.1793 289.308 32.882 289.308 33.7389V45.7012H286.647Z" fill="black"/>
<path d="M307.938 37.4578C307.938 38.646 308.131 39.7257 308.517 40.6969C308.904 41.668 309.501 42.445 310.308 43.0276C311.115 43.6103 312.138 43.9017 313.377 43.9017C314.571 43.9017 315.6 43.6218 316.464 43.0619C317.328 42.4907 317.868 41.6852 318.084 40.6455H320.641C320.425 41.8337 319.954 42.8277 319.226 43.6275C318.51 44.4272 317.64 45.0328 316.617 45.4441C315.605 45.844 314.537 46.0439 313.411 46.0439C311.797 46.0439 310.37 45.6897 309.131 44.9814C307.903 44.2616 306.943 43.2276 306.249 41.8794C305.567 40.5312 305.226 38.9088 305.226 37.0122C305.226 35.1271 305.539 33.4818 306.164 32.0765C306.789 30.6598 307.693 29.5687 308.875 28.8032C310.069 28.0262 311.507 27.6378 313.19 27.6378C314.815 27.6378 316.191 27.992 317.316 28.7003C318.442 29.3973 319.3 30.397 319.891 31.6995C320.482 33.002 320.778 34.5558 320.778 36.361V37.4578H307.938ZM307.955 35.5555H318.186C318.186 34.4587 318.004 33.4704 317.64 32.5906C317.276 31.7109 316.725 31.014 315.986 30.4998C315.247 29.9857 314.309 29.7286 313.173 29.7286C311.968 29.7286 310.979 30.02 310.206 30.6026C309.444 31.1739 308.875 31.9051 308.5 32.7963C308.125 33.6875 307.943 34.6072 307.955 35.5555Z" fill="black"/>
<path d="M333.773 20.9197H336.433V45.7012H333.773V20.9197Z" fill="black"/>
<path d="M342.533 45.7012V27.9805H345.091V30.5684C345.387 30.0542 345.79 29.5801 346.302 29.1459C346.825 28.7118 347.456 28.3633 348.195 28.1005C348.945 27.8377 349.786 27.7063 350.718 27.7063C351.855 27.7063 352.89 27.9348 353.822 28.3918C354.765 28.8374 355.516 29.5344 356.073 30.4827C356.63 31.431 356.908 32.6478 356.908 34.1331V45.7012H354.248V34.373C354.248 32.8648 353.867 31.7509 353.106 31.0311C352.344 30.3113 351.338 29.9514 350.087 29.9514C349.235 29.9514 348.433 30.0885 347.683 30.3627C346.933 30.6369 346.33 31.0539 345.875 31.6138C345.421 32.1736 345.193 32.8763 345.193 33.7217V45.7012H342.533Z" fill="black"/>
<path d="M369.666 29.9857H365.676V41.4167C365.676 42.1022 365.739 42.6049 365.864 42.9248C366 43.2333 366.233 43.4332 366.563 43.5246C366.904 43.6046 367.376 43.6446 367.978 43.6446H369.786V45.4955C369.57 45.5755 369.246 45.644 368.814 45.7012C368.393 45.7469 367.887 45.7697 367.296 45.7697C366.17 45.7697 365.295 45.6098 364.67 45.2899C364.056 44.9699 363.624 44.4958 363.374 43.8674C363.124 43.239 362.999 42.4507 362.999 41.5024V29.9857H360.134V27.9805H363.067L363.698 22.8734H365.676V27.9634H369.666V29.9857Z" fill="black"/>
<path d="M375.78 37.4578C375.78 38.646 375.973 39.7257 376.36 40.6969C376.746 41.668 377.343 42.445 378.15 43.0276C378.957 43.6103 379.98 43.9017 381.22 43.9017C382.413 43.9017 383.442 43.6218 384.306 43.0619C385.17 42.4907 385.71 41.6852 385.926 40.6455H388.484C388.268 41.8337 387.796 42.8277 387.068 43.6275C386.352 44.4272 385.483 45.0328 384.459 45.4441C383.448 45.844 382.379 46.0439 381.254 46.0439C379.639 46.0439 378.213 45.6897 376.974 44.9814C375.746 44.2616 374.785 43.2276 374.092 41.8794C373.41 40.5312 373.069 38.9088 373.069 37.0122C373.069 35.1271 373.381 33.4818 374.007 32.0765C374.632 30.6598 375.536 29.5687 376.718 28.8032C377.911 28.0262 379.35 27.6378 381.032 27.6378C382.658 27.6378 384.033 27.992 385.159 28.7003C386.284 29.3973 387.142 30.397 387.734 31.6995C388.325 33.002 388.62 34.5558 388.62 36.361V37.4578H375.78ZM375.797 35.5555H386.028C386.028 34.4587 385.846 33.4704 385.483 32.5906C385.119 31.7109 384.567 31.014 383.829 30.4998C383.09 29.9857 382.152 29.7286 381.015 29.7286C379.81 29.7286 378.821 30.02 378.048 30.6026C377.286 31.1739 376.718 31.9051 376.343 32.7963C375.967 33.6875 375.786 34.6072 375.797 35.5555Z" fill="black"/>
<path d="M393.157 45.7012V27.9805H395.681V31.1853C395.976 30.3513 396.391 29.6772 396.925 29.1631C397.471 28.6375 398.079 28.2547 398.75 28.0148C399.432 27.7635 400.12 27.6378 400.813 27.6378C401.098 27.6378 401.376 27.6606 401.649 27.7063C401.922 27.7406 402.138 27.8034 402.297 27.8948V30.4998C402.115 30.4084 401.871 30.3456 401.564 30.3113C401.268 30.277 401.018 30.2599 400.813 30.2599C400.188 30.2256 399.58 30.2713 398.989 30.397C398.398 30.5227 397.858 30.7455 397.369 31.0654C396.891 31.3853 396.51 31.8137 396.226 32.3507C395.953 32.8877 395.817 33.5447 395.817 34.3216V45.7012H393.157Z" fill="black"/>
<path d="M412.192 35.744V37.9205L403.717 37.9377V35.7612L412.192 35.744Z" fill="black"/>
<path d="M425.46 46.0439C424.38 46.0439 423.471 45.9011 422.732 45.6155C422.004 45.3184 421.413 44.9528 420.959 44.5186C420.504 44.0845 420.157 43.6446 419.918 43.199C419.68 42.7534 419.509 42.3764 419.407 42.0679L419.134 45.7012H417.037V20.2342H419.731V30.894C419.856 30.6312 420.066 30.317 420.362 29.9514C420.657 29.5858 421.044 29.2259 421.521 28.8717C421.999 28.5175 422.579 28.2262 423.261 27.9977C423.943 27.7577 424.733 27.6378 425.631 27.6378C427.836 27.6378 429.598 28.4033 430.917 29.9343C432.236 31.4653 432.895 33.7446 432.895 36.7723C432.895 38.6346 432.617 40.2627 432.06 41.6566C431.514 43.0391 430.69 44.1188 429.587 44.8957C428.496 45.6612 427.12 46.0439 425.46 46.0439ZM425.034 43.9188C426.569 43.9188 427.808 43.3304 428.751 42.1536C429.706 40.9768 430.184 39.1259 430.184 36.6009C430.184 34.4758 429.746 32.8077 428.871 31.5966C427.995 30.3856 426.694 29.78 424.966 29.78C423.704 29.78 422.692 30.0542 421.931 30.6026C421.169 31.1396 420.612 31.9165 420.259 32.9334C419.918 33.9503 419.742 35.1728 419.731 36.6009C419.731 39.183 420.134 41.0511 420.942 42.205C421.749 43.3476 423.113 43.9188 425.034 43.9188Z" fill="black"/>
<path d="M441.379 45.8897C440.538 45.8897 439.845 45.7697 439.299 45.5298C438.765 45.2784 438.344 44.9357 438.037 44.5015C437.742 44.0673 437.537 43.5703 437.423 43.0105C437.31 42.4507 437.253 41.8623 437.253 41.2453V20.2342H439.879V41.0225C439.879 41.9937 440.061 42.7077 440.424 43.1647C440.788 43.6103 441.266 43.8503 441.857 43.8845L442.846 43.9017V45.6497C442.596 45.7297 442.34 45.7868 442.079 45.8211C441.817 45.8668 441.584 45.8897 441.379 45.8897Z" fill="black"/>
<path d="M453.7 46.0439C452.108 46.0439 450.71 45.7012 449.505 45.0156C448.311 44.3187 447.385 43.2904 446.725 41.9308C446.066 40.5712 445.736 38.8974 445.736 36.9094C445.736 35.0585 446.037 33.4361 446.64 32.0422C447.254 30.6483 448.152 29.5687 449.334 28.8032C450.516 28.0262 451.977 27.6378 453.717 27.6378C455.308 27.6378 456.689 27.992 457.86 28.7003C459.043 29.3973 459.958 30.437 460.606 31.8194C461.265 33.1905 461.595 34.8871 461.595 36.9094C461.595 38.7146 461.299 40.3027 460.708 41.6737C460.117 43.0448 459.236 44.1188 458.065 44.8957C456.905 45.6612 455.45 46.0439 453.7 46.0439ZM453.717 43.8845C454.819 43.8845 455.757 43.6103 456.53 43.0619C457.315 42.5135 457.911 41.7137 458.321 40.6626C458.741 39.6115 458.952 38.3376 458.952 36.8408C458.952 35.4927 458.77 34.2873 458.406 33.2247C458.042 32.1622 457.474 31.3281 456.701 30.7226C455.928 30.1056 454.933 29.7972 453.717 29.7972C452.591 29.7972 451.631 30.0714 450.835 30.6198C450.05 31.1568 449.448 31.9508 449.027 33.002C448.607 34.0531 448.396 35.3327 448.396 36.8408C448.396 38.189 448.578 39.3944 448.942 40.457C449.317 41.5081 449.897 42.3421 450.681 42.9591C451.466 43.5761 452.478 43.8845 453.717 43.8845Z" fill="black"/>
<path d="M472.817 27.6378C474.034 27.6378 475.137 27.8663 476.126 28.3233C477.115 28.7803 477.933 29.4373 478.581 30.2942C479.229 31.1396 479.644 32.1622 479.826 33.3618H477.387C477.274 32.6992 477.018 32.1051 476.62 31.5795C476.222 31.0425 475.699 30.6198 475.051 30.3113C474.415 30.0028 473.676 29.8486 472.835 29.8486C471.232 29.8486 469.924 30.4255 468.913 31.5795C467.912 32.722 467.412 34.4872 467.412 36.8751C467.412 39.0117 467.867 40.7254 468.776 42.0165C469.697 43.2961 471.061 43.936 472.869 43.936C473.71 43.936 474.449 43.7817 475.085 43.4732C475.733 43.1533 476.256 42.7306 476.654 42.205C477.052 41.668 477.302 41.0796 477.405 40.4398H479.809C479.638 41.6052 479.223 42.6106 478.564 43.4561C477.905 44.2901 477.081 44.93 476.091 45.3755C475.114 45.8211 474.023 46.0439 472.817 46.0439C471.249 46.0439 469.862 45.7012 468.657 45.0156C467.452 44.3301 466.508 43.3076 465.826 41.948C465.155 40.5883 464.82 38.9031 464.82 36.8923C464.82 35.0528 465.127 33.4418 465.741 32.0594C466.355 30.6655 467.253 29.5801 468.435 28.8032C469.629 28.0262 471.09 27.6378 472.817 27.6378Z" fill="black"/>
<path d="M499.37 45.7012H496.488L490.759 36.4638L486.956 40.3884V45.7012H484.313V20.2342H486.956V37.2522L495.738 27.9805H498.875L492.532 34.6472L499.37 45.7012Z" fill="black"/>
<path d="M509.52 27.6378C510.736 27.6378 511.839 27.8663 512.828 28.3233C513.817 28.7803 514.635 29.4373 515.283 30.2942C515.931 31.1396 516.346 32.1622 516.528 33.3618H514.09C513.976 32.6992 513.72 32.1051 513.322 31.5795C512.924 31.0425 512.401 30.6198 511.753 30.3113C511.117 30.0028 510.378 29.8486 509.537 29.8486C507.934 29.8486 506.626 30.4255 505.615 31.5795C504.614 32.722 504.114 34.4872 504.114 36.8751C504.114 39.0117 504.569 40.7254 505.478 42.0165C506.399 43.2961 507.763 43.936 509.571 43.936C510.412 43.936 511.151 43.7817 511.788 43.4732C512.436 43.1533 512.958 42.7306 513.356 42.205C513.754 41.668 514.004 41.0796 514.107 40.4398H516.511C516.341 41.6052 515.926 42.6106 515.266 43.4561C514.607 44.2901 513.783 44.93 512.794 45.3755C511.816 45.8211 510.725 46.0439 509.52 46.0439C507.951 46.0439 506.564 45.7012 505.359 45.0156C504.154 44.3301 503.21 43.3076 502.528 41.948C501.858 40.5883 501.522 38.9031 501.522 36.8923C501.522 35.0528 501.829 33.4418 502.443 32.0594C503.057 30.6655 503.955 29.5801 505.137 28.8032C506.331 28.0262 507.792 27.6378 509.52 27.6378Z" fill="black"/>
<path d="M521.015 45.7012V20.2342H523.59V30.5855C523.897 30.0828 524.306 29.6144 524.818 29.1802C525.341 28.746 525.966 28.3976 526.693 28.1348C527.432 27.8606 528.273 27.7235 529.217 27.7235C530.377 27.7235 531.417 27.9348 532.338 28.3576C533.27 28.7803 534.009 29.3801 534.554 30.1571C535.1 30.934 535.373 31.848 535.373 32.8991V45.7012H532.713V33.499C532.713 32.3793 532.332 31.511 531.57 30.894C530.809 30.2656 529.802 29.9514 528.552 29.9514C527.699 29.9514 526.898 30.0942 526.148 30.3798C525.409 30.6541 524.812 31.0711 524.357 31.6309C523.902 32.1793 523.675 32.882 523.675 33.7389V45.7012H521.015Z" fill="black"/>
<path d="M545.324 46.0439C544.176 46.0439 543.17 45.844 542.306 45.4441C541.442 45.0328 540.766 44.4501 540.277 43.696C539.799 42.942 539.56 42.0336 539.56 40.9711C539.56 39.0059 540.226 37.5492 541.556 36.6009C542.897 35.6526 545.063 35.1385 548.052 35.0585L551.463 34.9557V33.4818C551.463 32.3279 551.111 31.4081 550.406 30.7226C549.712 30.0257 548.638 29.6829 547.183 29.6943C546.091 29.6943 545.142 29.9514 544.335 30.4655C543.539 30.9683 543.033 31.7794 542.817 32.8991H540.396C540.464 31.7909 540.777 30.8483 541.334 30.0714C541.891 29.283 542.675 28.6832 543.687 28.2719C544.699 27.8491 545.91 27.6378 547.319 27.6378C548.774 27.6378 549.996 27.8549 550.985 28.289C551.986 28.7118 552.742 29.3516 553.253 30.2085C553.765 31.0539 554.021 32.1051 554.021 33.3618V45.7012H551.736L551.548 42.2907C550.843 43.696 549.945 44.6729 548.854 45.2213C547.774 45.7697 546.597 46.0439 545.324 46.0439ZM546.074 44.0388C546.711 44.0388 547.342 43.9245 547.967 43.696C548.604 43.4675 549.184 43.1533 549.707 42.7534C550.229 42.3536 550.65 41.908 550.968 41.4167C551.287 40.9254 551.452 40.4227 551.463 39.9085V36.7552L548.615 36.8066C547.126 36.8294 545.904 36.978 544.949 37.2522C544.005 37.5264 543.301 37.9491 542.835 38.5204C542.38 39.0802 542.152 39.8171 542.152 40.7312C542.152 41.7709 542.516 42.5821 543.244 43.1647C543.971 43.7474 544.915 44.0388 546.074 44.0388Z" fill="black"/>
<path d="M562.633 27.9805V45.7012H560.041V27.9805H562.633ZM562.718 20.9368V23.8846H559.922V20.9368H562.718Z" fill="black"/>
<path d="M568.674 45.7012V27.9805H571.232V30.5684C571.528 30.0542 571.931 29.5801 572.443 29.1459C572.966 28.7118 573.597 28.3633 574.336 28.1005C575.086 27.8377 575.927 27.7063 576.859 27.7063C577.996 27.7063 579.031 27.9348 579.963 28.3918C580.907 28.8374 581.657 29.5344 582.214 30.4827C582.771 31.431 583.049 32.6478 583.049 34.1331V45.7012H580.389V34.373C580.389 32.8648 580.008 31.7509 579.247 31.0311C578.485 30.3113 577.479 29.9514 576.229 29.9514C575.376 29.9514 574.574 30.0885 573.824 30.3627C573.074 30.6369 572.471 31.0539 572.017 31.6138C571.562 32.1736 571.335 32.8763 571.335 33.7217V45.7012H568.674Z" fill="black"/>
<path d="M276.095 58.1172C277.8 58.1172 279.312 58.4771 280.631 59.1969C281.95 59.9167 283.007 60.8707 283.803 62.0589C284.598 63.2471 285.07 64.5382 285.218 65.9321H282.353C282.16 64.9381 281.796 64.0298 281.262 63.2071C280.739 62.3845 280.04 61.7276 279.164 61.2363C278.289 60.745 277.249 60.4994 276.044 60.4994C274.452 60.4994 273.111 60.8707 272.02 61.6133C270.94 62.356 270.121 63.4928 269.564 65.0238C269.018 66.5433 268.746 68.4799 268.746 70.8335C268.746 74.3754 269.359 76.986 270.587 78.6656C271.826 80.3451 273.645 81.1848 276.044 81.1848C277.249 81.1848 278.289 80.9335 279.164 80.4308C280.04 79.9166 280.739 79.2425 281.262 78.4085C281.796 77.563 282.16 76.6433 282.353 75.6493H285.218C285.093 76.6661 284.809 77.6544 284.365 78.6141C283.933 79.5624 283.337 80.4136 282.575 81.1677C281.825 81.9103 280.904 82.4987 279.812 82.9329C278.732 83.3671 277.493 83.5841 276.095 83.5841C273.901 83.5841 272.037 83.0872 270.502 82.0931C268.979 81.0877 267.813 79.6367 267.006 77.7401C266.199 75.8321 265.796 73.5185 265.796 70.7993C265.796 68.08 266.193 65.7778 266.989 63.8927C267.796 62.0075 268.967 60.5736 270.502 59.591C272.037 58.6085 273.901 58.1172 276.095 58.1172Z" fill="black"/>
<path d="M296.633 83.5841C295.042 83.5841 293.643 83.2414 292.438 82.5559C291.245 81.8589 290.318 80.8307 289.659 79.471C288.999 78.1114 288.67 76.4376 288.67 74.4496C288.67 72.5987 288.971 70.9763 289.573 69.5825C290.187 68.1886 291.085 67.1089 292.268 66.3434C293.45 65.5665 294.911 65.178 296.65 65.178C298.242 65.178 299.623 65.5322 300.794 66.2406C301.976 66.9375 302.891 67.9772 303.539 69.3597C304.199 70.7307 304.528 72.4274 304.528 74.4496C304.528 76.2548 304.233 77.8429 303.641 79.214C303.05 80.585 302.169 81.659 300.998 82.4359C299.839 83.2014 298.384 83.5841 296.633 83.5841ZM296.65 81.4248C297.753 81.4248 298.691 81.1506 299.464 80.6021C300.248 80.0537 300.845 79.254 301.254 78.2028C301.675 77.1517 301.885 75.8778 301.885 74.3811C301.885 73.0329 301.703 71.8275 301.339 70.765C300.976 69.7024 300.407 68.8684 299.634 68.2628C298.861 67.6459 297.866 67.3374 296.65 67.3374C295.525 67.3374 294.564 67.6116 293.768 68.16C292.984 68.697 292.381 69.4911 291.961 70.5422C291.54 71.5933 291.33 72.8729 291.33 74.3811C291.33 75.7293 291.512 76.9346 291.875 77.9972C292.251 79.0483 292.83 79.8824 293.615 80.4993C294.399 81.1163 295.411 81.4248 296.65 81.4248Z" fill="black"/>
<path d="M308.862 83.2414V65.5208H311.42V68.1086C311.886 67.3203 312.534 66.6347 313.364 66.052C314.205 65.4694 315.308 65.178 316.672 65.178C317.331 65.178 317.996 65.2865 318.667 65.5036C319.338 65.7207 319.951 66.0463 320.508 66.4805C321.066 66.9147 321.492 67.4516 321.787 68.0915C322.333 67.2003 323.072 66.4919 324.004 65.9664C324.936 65.4408 325.994 65.178 327.176 65.178C327.79 65.178 328.426 65.2694 329.086 65.4522C329.756 65.635 330.382 65.9606 330.961 66.4291C331.541 66.8861 332.007 67.543 332.36 68.3999C332.724 69.2454 332.905 70.3365 332.905 71.6733V83.2414H330.245V71.9132C330.245 70.7364 330.063 69.8338 329.7 69.2054C329.336 68.5656 328.864 68.12 328.284 67.8687C327.705 67.6173 327.085 67.4916 326.426 67.4916C325.834 67.4916 325.209 67.6059 324.55 67.8344C323.902 68.0515 323.345 68.4342 322.879 68.9826C322.424 69.531 322.197 70.2908 322.197 71.262V83.2414H319.537V70.8507C319.537 70.108 319.338 69.4911 318.94 68.9998C318.553 68.4971 318.07 68.12 317.49 67.8687C316.91 67.6173 316.331 67.4916 315.751 67.4916C315.114 67.4916 314.466 67.6173 313.807 67.8687C313.159 68.12 312.613 68.5256 312.17 69.0855C311.738 69.6453 311.522 70.3708 311.522 71.262V83.2414H308.862Z" fill="black"/>
<path d="M338.07 83.2414V65.5208H340.628V68.1086C341.094 67.3203 341.742 66.6347 342.572 66.052C343.413 65.4694 344.516 65.178 345.88 65.178C346.54 65.178 347.205 65.2865 347.875 65.5036C348.546 65.7207 349.16 66.0463 349.717 66.4805C350.274 66.9147 350.7 67.4516 350.996 68.0915C351.542 67.2003 352.281 66.4919 353.213 65.9664C354.145 65.4408 355.202 65.178 356.384 65.178C356.998 65.178 357.635 65.2694 358.294 65.4522C358.965 65.635 359.59 65.9606 360.17 66.4291C360.75 66.8861 361.216 67.543 361.568 68.3999C361.932 69.2454 362.114 70.3365 362.114 71.6733V83.2414H359.454V71.9132C359.454 70.7364 359.272 69.8338 358.908 69.2054C358.544 68.5656 358.073 68.12 357.493 67.8687C356.913 67.6173 356.293 67.4916 355.634 67.4916C355.043 67.4916 354.418 67.6059 353.758 67.8344C353.11 68.0515 352.553 68.4342 352.087 68.9826C351.633 69.531 351.405 70.2908 351.405 71.262V83.2414H348.745V70.8507C348.745 70.108 348.546 69.4911 348.148 68.9998C347.762 68.4971 347.279 68.12 346.699 67.8687C346.119 67.6173 345.539 67.4916 344.959 67.4916C344.323 67.4916 343.675 67.6173 343.016 67.8687C342.368 68.12 341.822 68.5256 341.378 69.0855C340.947 69.6453 340.731 70.3708 340.731 71.262V83.2414H338.07Z" fill="black"/>
<path d="M373.459 83.5841C372.515 83.5727 371.634 83.4413 370.816 83.19C369.997 82.9272 369.276 82.5444 368.65 82.0417C368.036 81.5276 367.553 80.8935 367.201 80.1394C366.86 79.3739 366.689 78.4885 366.689 77.483V65.5208H369.349V77.2431C369.349 78.4885 369.725 79.4996 370.475 80.2765C371.225 81.042 372.379 81.4248 373.936 81.4248C375.323 81.4248 376.437 81.0649 377.279 80.3451C378.12 79.6139 378.541 78.5113 378.541 77.0375V65.5208H381.184V83.2414H379.035L378.762 79.8824C378.558 80.7278 378.199 81.4248 377.688 81.9732C377.188 82.5216 376.574 82.9329 375.846 83.2071C375.13 83.4699 374.334 83.5956 373.459 83.5841Z" fill="black"/>
<path d="M386.596 83.2414V65.5208H389.154V68.1086C389.449 67.5945 389.853 67.1203 390.364 66.6861C390.887 66.252 391.518 65.9035 392.257 65.6407C393.007 65.3779 393.849 65.2466 394.781 65.2466C395.918 65.2466 396.952 65.4751 397.884 65.9321C398.828 66.3777 399.578 67.0746 400.135 68.0229C400.692 68.9712 400.971 70.188 400.971 71.6733V83.2414H398.311V71.9132C398.311 70.4051 397.93 69.2911 397.168 68.5713C396.406 67.8515 395.4 67.4916 394.15 67.4916C393.297 67.4916 392.496 67.6287 391.746 67.9029C390.995 68.1771 390.393 68.5942 389.938 69.154C389.483 69.7139 389.256 70.4165 389.256 71.262V83.2414H386.596Z" fill="black"/>
<path d="M409.097 65.5208V83.2414H406.505V65.5208H409.097ZM409.182 58.4771V61.4248H406.385V58.4771H409.182Z" fill="black"/>
<path d="M421.794 65.178C423.011 65.178 424.113 65.4065 425.102 65.8635C426.091 66.3205 426.91 66.9775 427.558 67.8344C428.206 68.6799 428.621 69.7024 428.803 70.9021H426.364C426.25 70.2394 425.995 69.6453 425.597 69.1197C425.199 68.5827 424.676 68.16 424.028 67.8515C423.391 67.543 422.652 67.3888 421.811 67.3888C420.208 67.3888 418.901 67.9658 417.889 69.1197C416.889 70.2623 416.389 72.0275 416.389 74.4154C416.389 76.5519 416.843 78.2657 417.753 79.5567C418.674 80.8364 420.038 81.4762 421.845 81.4762C422.687 81.4762 423.425 81.3219 424.062 81.0135C424.71 80.6935 425.233 80.2708 425.631 79.7452C426.029 79.2083 426.279 78.6199 426.381 77.98H428.786C428.615 79.1454 428.2 80.1508 427.541 80.9963C426.881 81.8304 426.057 82.4702 425.068 82.9158C424.091 83.3614 422.999 83.5841 421.794 83.5841C420.225 83.5841 418.838 83.2414 417.633 82.5559C416.428 81.8704 415.485 80.8478 414.803 79.4882C414.132 78.1286 413.797 76.4433 413.797 74.4325C413.797 72.593 414.104 70.9821 414.717 69.5996C415.331 68.2057 416.229 67.1203 417.412 66.3434C418.605 65.5665 420.066 65.178 421.794 65.178Z" fill="black"/>
<path d="M437.882 83.5841C436.734 83.5841 435.728 83.3842 434.864 82.9843C434 82.573 433.323 81.9903 432.835 81.2362C432.357 80.4822 432.118 79.5739 432.118 78.5113C432.118 76.5462 432.783 75.0894 434.114 74.1411C435.455 73.1928 437.621 72.6787 440.61 72.5987L444.021 72.4959V71.022C444.021 69.8681 443.668 68.9484 442.964 68.2628C442.27 67.5659 441.196 67.2231 439.741 67.2346C438.649 67.2346 437.7 67.4916 436.893 68.0058C436.097 68.5085 435.591 69.3197 435.375 70.4394H432.954C433.022 69.3311 433.335 68.3885 433.892 67.6116C434.449 66.8233 435.233 66.2234 436.245 65.8121C437.257 65.3894 438.468 65.178 439.877 65.178C441.332 65.178 442.554 65.3951 443.543 65.8293C444.544 66.252 445.3 66.8918 445.811 67.7487C446.323 68.5942 446.579 69.6453 446.579 70.9021V83.2414H444.294L444.106 79.8309C443.401 81.2363 442.503 82.2131 441.412 82.7615C440.332 83.3099 439.155 83.5841 437.882 83.5841ZM438.632 81.579C439.269 81.579 439.9 81.4648 440.525 81.2362C441.162 81.0077 441.742 80.6936 442.264 80.2937C442.787 79.8938 443.208 79.4482 443.526 78.9569C443.845 78.4656 444.01 77.9629 444.021 77.4488V74.2954L441.173 74.3468C439.684 74.3697 438.462 74.5182 437.507 74.7924C436.563 75.0666 435.859 75.4893 435.392 76.0606C434.938 76.6204 434.71 77.3574 434.71 78.2714C434.71 79.3111 435.074 80.1223 435.802 80.705C436.529 81.2877 437.473 81.579 438.632 81.579Z" fill="black"/>
<path d="M459.823 67.5259H455.833V78.9569C455.833 79.6424 455.895 80.1451 456.02 80.465C456.157 80.7735 456.39 80.9735 456.719 81.0649C457.06 81.1448 457.532 81.1848 458.135 81.1848H459.942V83.0357C459.726 83.1157 459.402 83.1843 458.97 83.2414C458.55 83.2871 458.044 83.3099 457.453 83.3099C456.327 83.3099 455.452 83.15 454.827 82.8301C454.213 82.5102 453.781 82.036 453.531 81.4076C453.281 80.7792 453.156 79.9909 453.156 79.0426V67.5259H450.291V65.5208H453.224L453.855 60.4137H455.833V65.5036H459.823V67.5259Z" fill="black"/>
<path d="M467.58 65.5208V83.2414H464.988V65.5208H467.58ZM467.666 58.4771V61.4248H464.869V58.4771H467.666Z" fill="black"/>
<path d="M480.244 83.5841C478.652 83.5841 477.254 83.2414 476.049 82.5559C474.855 81.8589 473.929 80.8307 473.269 79.471C472.61 78.1114 472.28 76.4376 472.28 74.4496C472.28 72.5987 472.582 70.9763 473.184 69.5825C473.798 68.1886 474.696 67.1089 475.878 66.3434C477.061 65.5665 478.521 65.178 480.261 65.178C481.852 65.178 483.234 65.5322 484.404 66.2406C485.587 66.9375 486.502 67.9772 487.15 69.3597C487.809 70.7307 488.139 72.4274 488.139 74.4496C488.139 76.2548 487.843 77.8429 487.252 79.214C486.661 80.585 485.78 81.659 484.609 82.4359C483.45 83.2014 481.994 83.5841 480.244 83.5841ZM480.261 81.4248C481.363 81.4248 482.301 81.1506 483.074 80.6021C483.859 80.0537 484.456 79.254 484.865 78.2028C485.285 77.1517 485.496 75.8778 485.496 74.3811C485.496 73.0329 485.314 71.8275 484.95 70.765C484.586 69.7024 484.018 68.8684 483.245 68.2628C482.472 67.6459 481.477 67.3374 480.261 67.3374C479.135 67.3374 478.175 67.6116 477.379 68.16C476.595 68.697 475.992 69.4911 475.571 70.5422C475.151 71.5933 474.94 72.8729 474.94 74.3811C474.94 75.7293 475.122 76.9346 475.486 77.9972C475.861 79.0483 476.441 79.8824 477.225 80.4993C478.01 81.1163 479.022 81.4248 480.261 81.4248Z" fill="black"/>
<path d="M492.473 83.2414V65.5208H495.03V68.1086C495.326 67.5945 495.729 67.1203 496.241 66.6861C496.764 66.252 497.395 65.9035 498.134 65.6407C498.884 65.3779 499.725 65.2466 500.658 65.2466C501.794 65.2466 502.829 65.4751 503.761 65.9321C504.705 66.3777 505.455 67.0746 506.012 68.0229C506.569 68.9712 506.848 70.188 506.848 71.6733V83.2414H504.187V71.9132C504.187 70.4051 503.807 69.2911 503.045 68.5713C502.283 67.8515 501.277 67.4916 500.027 67.4916C499.174 67.4916 498.373 67.6287 497.622 67.9029C496.872 68.1771 496.269 68.5942 495.815 69.154C495.36 69.7139 495.133 70.4165 495.133 71.262V83.2414H492.473Z" fill="black"/>
<path d="M267.296 120.782V96.0002H275.43C277.181 96.0002 278.738 96.2972 280.102 96.8913C281.478 97.474 282.552 98.3424 283.325 99.4963C284.11 100.639 284.502 102.056 284.502 103.747C284.502 105.403 284.132 106.814 283.393 107.98C282.654 109.134 281.631 110.013 280.324 110.619C279.028 111.224 277.522 111.527 275.805 111.527H270.059V120.782H267.296ZM270.042 109.179H275.754C277.562 109.179 279.028 108.682 280.153 107.688C281.29 106.694 281.859 105.329 281.859 103.592C281.859 101.833 281.279 100.513 280.119 99.6334C278.96 98.7537 277.442 98.3138 275.566 98.3138H270.042V109.179Z" fill="black"/>
<path d="M288.179 120.782V103.061H290.703V106.266C290.999 105.432 291.414 104.758 291.948 104.244C292.494 103.718 293.102 103.335 293.773 103.095C294.455 102.844 295.142 102.718 295.836 102.718C296.12 102.718 296.399 102.741 296.671 102.787C296.944 102.821 297.16 102.884 297.319 102.975V105.58C297.138 105.489 296.893 105.426 296.586 105.392C296.291 105.357 296.04 105.34 295.836 105.34C295.211 105.306 294.602 105.352 294.011 105.477C293.42 105.603 292.88 105.826 292.391 106.146C291.914 106.466 291.533 106.894 291.249 107.431C290.976 107.968 290.84 108.625 290.84 109.402V120.782H288.179Z" fill="black"/>
<path d="M307.624 121.124C306.032 121.124 304.634 120.782 303.429 120.096C302.235 119.399 301.309 118.371 300.649 117.011C299.99 115.652 299.66 113.978 299.66 111.99C299.66 110.139 299.962 108.517 300.564 107.123C301.178 105.729 302.076 104.649 303.258 103.884C304.441 103.107 305.901 102.718 307.641 102.718C309.232 102.718 310.614 103.072 311.784 103.781C312.967 104.478 313.882 105.517 314.53 106.9C315.189 108.271 315.519 109.968 315.519 111.99C315.519 113.795 315.223 115.383 314.632 116.754C314.041 118.125 313.16 119.199 311.989 119.976C310.83 120.742 309.374 121.124 307.624 121.124ZM307.641 118.965C308.743 118.965 309.681 118.691 310.454 118.142C311.239 117.594 311.836 116.794 312.245 115.743C312.665 114.692 312.876 113.418 312.876 111.921C312.876 110.573 312.694 109.368 312.33 108.305C311.966 107.243 311.398 106.409 310.625 105.803C309.852 105.186 308.857 104.878 307.641 104.878C306.515 104.878 305.555 105.152 304.759 105.7C303.975 106.237 303.372 107.031 302.951 108.082C302.531 109.134 302.32 110.413 302.32 111.921C302.32 113.269 302.502 114.475 302.866 115.537C303.241 116.589 303.821 117.423 304.605 118.04C305.39 118.657 306.402 118.965 307.641 118.965Z" fill="black"/>
<path d="M327.768 105.066H323.778V116.497C323.778 117.183 323.841 117.685 323.966 118.005C324.102 118.314 324.335 118.514 324.665 118.605C325.006 118.685 325.478 118.725 326.08 118.725H327.888V120.576C327.672 120.656 327.348 120.724 326.916 120.782C326.495 120.827 325.989 120.85 325.398 120.85C324.273 120.85 323.397 120.69 322.772 120.37C322.158 120.05 321.726 119.576 321.476 118.948C321.226 118.319 321.101 117.531 321.101 116.583V105.066H318.236V103.061H321.169L321.8 97.9539H323.778V103.044H327.768V105.066Z" fill="black"/>
<path d="M338.964 121.124C337.372 121.124 335.974 120.782 334.769 120.096C333.575 119.399 332.649 118.371 331.989 117.011C331.33 115.652 331 113.978 331 111.99C331 110.139 331.302 108.517 331.904 107.123C332.518 105.729 333.416 104.649 334.598 103.884C335.781 103.107 337.241 102.718 338.981 102.718C340.572 102.718 341.954 103.072 343.124 103.781C344.307 104.478 345.222 105.517 345.87 106.9C346.529 108.271 346.859 109.968 346.859 111.99C346.859 113.795 346.563 115.383 345.972 116.754C345.381 118.125 344.5 119.199 343.329 119.976C342.17 120.742 340.714 121.124 338.964 121.124ZM338.981 118.965C340.084 118.965 341.021 118.691 341.794 118.142C342.579 117.594 343.176 116.794 343.585 115.743C344.006 114.692 344.216 113.418 344.216 111.921C344.216 110.573 344.034 109.368 343.67 108.305C343.306 107.243 342.738 106.409 341.965 105.803C341.192 105.186 340.197 104.878 338.981 104.878C337.855 104.878 336.895 105.152 336.099 105.7C335.315 106.237 334.712 107.031 334.291 108.082C333.871 109.134 333.661 110.413 333.661 111.921C333.661 113.269 333.842 114.475 334.206 115.537C334.581 116.589 335.161 117.423 335.946 118.04C336.73 118.657 337.742 118.965 338.981 118.965Z" fill="black"/>
<path d="M358.082 102.718C359.298 102.718 360.401 102.947 361.39 103.404C362.379 103.861 363.197 104.518 363.845 105.375C364.493 106.22 364.908 107.243 365.09 108.442H362.652C362.538 107.78 362.282 107.186 361.884 106.66C361.486 106.123 360.963 105.7 360.315 105.392C359.679 105.083 358.94 104.929 358.099 104.929C356.496 104.929 355.188 105.506 354.177 106.66C353.176 107.802 352.676 109.568 352.676 111.956C352.676 114.092 353.131 115.806 354.04 117.097C354.961 118.377 356.325 119.016 358.133 119.016C358.974 119.016 359.713 118.862 360.35 118.554C360.998 118.234 361.52 117.811 361.918 117.285C362.316 116.748 362.566 116.16 362.669 115.52H365.073C364.903 116.686 364.488 117.691 363.828 118.537C363.169 119.371 362.345 120.01 361.356 120.456C360.378 120.902 359.287 121.124 358.082 121.124C356.513 121.124 355.126 120.782 353.921 120.096C352.716 119.411 351.772 118.388 351.09 117.028C350.42 115.669 350.084 113.984 350.084 111.973C350.084 110.133 350.391 108.522 351.005 107.14C351.619 105.746 352.517 104.661 353.699 103.884C354.893 103.107 356.354 102.718 358.082 102.718Z" fill="black"/>
<path d="M376.432 121.124C374.84 121.124 373.442 120.782 372.237 120.096C371.043 119.399 370.117 118.371 369.458 117.011C368.798 115.652 368.469 113.978 368.469 111.99C368.469 110.139 368.77 108.517 369.372 107.123C369.986 105.729 370.884 104.649 372.067 103.884C373.249 103.107 374.71 102.718 376.449 102.718C378.04 102.718 379.422 103.072 380.593 103.781C381.775 104.478 382.69 105.517 383.338 106.9C383.997 108.271 384.327 109.968 384.327 111.99C384.327 113.795 384.031 115.383 383.44 116.754C382.849 118.125 381.968 119.199 380.797 119.976C379.638 120.742 378.183 121.124 376.432 121.124ZM376.449 118.965C377.552 118.965 378.49 118.691 379.263 118.142C380.047 117.594 380.644 116.794 381.053 115.743C381.474 114.692 381.684 113.418 381.684 111.921C381.684 110.573 381.502 109.368 381.138 108.305C380.775 107.243 380.206 106.409 379.433 105.803C378.66 105.186 377.665 104.878 376.449 104.878C375.324 104.878 374.363 105.152 373.567 105.7C372.783 106.237 372.18 107.031 371.76 108.082C371.339 109.134 371.129 110.413 371.129 111.921C371.129 113.269 371.311 114.475 371.674 115.537C372.049 116.589 372.629 117.423 373.414 118.04C374.198 118.657 375.21 118.965 376.449 118.965Z" fill="black"/>
<path d="M392.787 120.97C391.946 120.97 391.253 120.85 390.707 120.61C390.173 120.359 389.752 120.016 389.445 119.582C389.15 119.148 388.945 118.651 388.831 118.091C388.718 117.531 388.661 116.943 388.661 116.326V95.3147H391.287V116.103C391.287 117.074 391.469 117.788 391.832 118.245C392.196 118.691 392.674 118.931 393.265 118.965L394.254 118.982V120.73C394.004 120.81 393.748 120.867 393.486 120.902C393.225 120.947 392.992 120.97 392.787 120.97Z" fill="black"/>
<defs>
<clipPath id="clip0_600_4923">
<rect width="230.921" height="142" fill="white"/>
</clipPath>
</defs>
</svg>
