<svg width="400" height="400" viewBox="0 0 400 400" fill="none" xmlns="http://www.w3.org/2000/svg">
<mask id="mask0_441_850" style="mask-type:luminance" maskUnits="userSpaceOnUse" x="0" y="78" width="400" height="244">
<path d="M400 78H0V322H400V78Z" fill="white"/>
</mask>
<g mask="url(#mask0_441_850)">
<path d="M30.732 82.5413H0V317.732H30.732V82.5413Z" fill="white"/>
<path d="M145.138 231.936H129.315C96.6274 231.936 70.0396 204.906 70.0396 171.675V82.4683H160.98C193.667 82.4683 220.255 109.498 220.255 142.73V163.253H189.522V142.73C189.522 126.734 176.714 113.711 160.98 113.711H100.772V171.675C100.772 187.67 113.581 200.693 129.315 200.693H145.138V231.936ZM223.323 257.269V229.2C223.323 195.969 196.736 168.939 164.047 168.939H145.138V200.182H164.047C179.78 200.182 192.591 213.205 192.591 229.2V257.269C192.591 273.266 179.78 286.289 164.047 286.289H100.772V236.783H70.0396V317.531H164.047C196.736 317.531 223.323 290.501 223.323 257.269Z" fill="white"/>
<path d="M327.987 322H322.874C283.171 322 250.861 289.153 250.861 248.79V151.193C250.861 110.83 283.171 77.9819 322.874 77.9819H327.987C367.69 77.9819 400 110.83 400 151.193H369.268C369.268 128.066 350.753 109.243 328.005 109.243H322.893C300.144 109.243 281.629 128.066 281.629 151.193V248.79C281.629 271.916 300.144 290.739 322.893 290.739H328.005C350.753 290.739 369.268 271.916 369.268 248.79H400C400 289.153 367.69 322 327.987 322Z" fill="white"/>
</g>
</svg>
