<svg width="520" height="120" viewBox="0 0 520 120" fill="none" xmlns="http://www.w3.org/2000/svg">
<g clip-path="url(#clip0_689_5398)">
<path d="M15.2478 2.23352H0V117.901H15.2478V2.23352Z" fill="white"/>
<path d="M72.0105 75.7064H64.1596C47.9416 75.7064 34.75 62.4129 34.75 46.0697V2.19763H79.8703C96.0883 2.19763 109.28 15.4911 109.28 31.8343V41.9276H94.0321V31.8343C94.0321 23.9677 87.6767 17.5632 79.8703 17.5632H49.9978V46.0697C49.9978 53.9363 56.3533 60.3408 64.1596 60.3408H72.0105V75.7064ZM110.802 88.1656V74.3609C110.802 58.0176 97.6104 44.7242 81.3924 44.7242H72.0105V60.0897H81.3924C89.1988 60.0897 95.5542 66.4942 95.5542 74.3609V88.1656C95.5542 96.0323 89.1988 102.437 81.3924 102.437H49.9978V78.0903H34.75V117.802H81.3924C97.6104 117.802 110.802 104.509 110.802 88.1656Z" fill="white"/>
<path d="M162.731 120H160.194C140.496 120 124.465 103.845 124.465 83.9947V35.9965C124.465 16.146 140.496 -0.00891113 160.194 -0.00891113H162.731C182.43 -0.00891113 198.461 16.146 198.461 35.9965H183.213C183.213 24.6226 174.027 15.3656 162.74 15.3656H160.203C148.916 15.3656 139.73 24.6226 139.73 35.9965V83.9947C139.73 95.3686 148.916 104.626 160.203 104.626H162.74C174.027 104.626 183.213 95.3686 183.213 83.9947H198.461C198.461 103.845 182.43 120 162.731 120Z" fill="white"/>
</g>
<path d="M227.033 19.7787V17.6787H242.783V19.7787H236.261V38.6207H233.965V19.7787H227.033Z" fill="white"/>
<path d="M245.822 38.6207V17.0994H248.03V25.847C248.293 25.4221 248.644 25.0263 249.083 24.6594C249.531 24.2925 250.068 23.998 250.691 23.7759C251.325 23.5442 252.047 23.4283 252.856 23.4283C253.85 23.4283 254.742 23.607 255.532 23.9642C256.331 24.3214 256.965 24.8283 257.433 25.4849C257.901 26.1414 258.135 26.9138 258.135 27.8021V38.6207H255.854V28.309C255.854 27.3628 255.527 26.629 254.874 26.1076C254.221 25.5766 253.358 25.3111 252.285 25.3111C251.554 25.3111 250.867 25.4318 250.224 25.6732C249.59 25.9049 249.078 26.2573 248.688 26.7304C248.298 27.1938 248.103 27.7876 248.103 28.5118V38.6207H245.822Z" fill="white"/>
<path d="M264.08 31.6545C264.08 32.6587 264.245 33.5711 264.577 34.3918C264.908 35.2125 265.42 35.869 266.112 36.3614C266.805 36.8539 267.682 37.1001 268.745 37.1001C269.768 37.1001 270.651 36.8635 271.391 36.3904C272.132 35.9076 272.595 35.227 272.781 34.3483H274.974C274.789 35.3525 274.384 36.1925 273.761 36.8683C273.146 37.5442 272.401 38.0559 271.523 38.4035C270.655 38.7414 269.739 38.9104 268.774 38.9104C267.39 38.9104 266.166 38.6111 265.103 38.0125C264.051 37.4042 263.227 36.5304 262.632 35.3911C262.047 34.2518 261.755 32.8807 261.755 31.278C261.755 29.6849 262.023 28.2945 262.559 27.107C263.095 25.9097 263.87 24.9876 264.884 24.3407C265.908 23.6842 267.141 23.3559 268.584 23.3559C269.978 23.3559 271.158 23.6552 272.123 24.2538C273.088 24.8428 273.824 25.6876 274.331 26.7883C274.838 27.889 275.091 29.2021 275.091 30.7276V31.6545H264.08ZM264.094 30.047H272.868C272.868 29.1201 272.712 28.2849 272.401 27.5414C272.089 26.798 271.616 26.209 270.982 25.7745C270.348 25.3401 269.544 25.1228 268.569 25.1228C267.536 25.1228 266.688 25.369 266.025 25.8614C265.371 26.3442 264.884 26.9621 264.562 27.7152C264.241 28.4683 264.085 29.2456 264.094 30.047Z" fill="white"/>
<path d="M286.235 17.6787H288.517V38.6207H286.235V17.6787Z" fill="white"/>
<path d="M293.748 38.6207V23.6456H295.942V25.8325C296.195 25.398 296.541 24.9973 296.98 24.6304C297.428 24.2635 297.969 23.969 298.603 23.747C299.246 23.5249 299.968 23.4138 300.767 23.4138C301.742 23.4138 302.629 23.607 303.429 23.9932C304.238 24.3697 304.881 24.9587 305.359 25.7601C305.837 26.5614 306.076 27.5897 306.076 28.8449V38.6207H303.794V29.0476C303.794 27.7732 303.468 26.8318 302.815 26.2235C302.161 25.6152 301.299 25.3111 300.226 25.3111C299.495 25.3111 298.808 25.427 298.164 25.6587C297.521 25.8904 297.004 26.2428 296.614 26.7159C296.224 27.189 296.029 27.7828 296.029 28.4973V38.6207H293.748Z" fill="white"/>
<path d="M317.017 25.3401H313.595V35.0001C313.595 35.5794 313.648 36.0042 313.756 36.2745C313.872 36.5352 314.072 36.7042 314.355 36.7814C314.648 36.849 315.052 36.8828 315.569 36.8828H317.119V38.447C316.934 38.5145 316.656 38.5725 316.285 38.6207C315.925 38.6594 315.491 38.6787 314.984 38.6787C314.019 38.6787 313.268 38.5435 312.732 38.2732C312.205 38.0028 311.835 37.6021 311.62 37.0711C311.406 36.5401 311.299 35.8739 311.299 35.0725V25.3401H308.842V23.6456H311.357L311.898 19.3297H313.595V23.6311H317.017V25.3401Z" fill="white"/>
<path d="M322.26 31.6545C322.26 32.6587 322.425 33.5711 322.757 34.3918C323.088 35.2125 323.6 35.869 324.292 36.3614C324.984 36.8539 325.862 37.1001 326.924 37.1001C327.948 37.1001 328.83 36.8635 329.571 36.3904C330.312 35.9076 330.775 35.227 330.96 34.3483H333.154C332.969 35.3525 332.564 36.1925 331.94 36.8683C331.326 37.5442 330.58 38.0559 329.703 38.4035C328.835 38.7414 327.919 38.9104 326.954 38.9104C325.569 38.9104 324.346 38.6111 323.283 38.0125C322.23 37.4042 321.406 36.5304 320.812 35.3911C320.227 34.2518 319.934 32.8807 319.934 31.278C319.934 29.6849 320.202 28.2945 320.739 27.107C321.275 25.9097 322.05 24.9876 323.064 24.3407C324.087 23.6842 325.321 23.3559 326.764 23.3559C328.158 23.3559 329.337 23.6552 330.302 24.2538C331.268 24.8428 332.004 25.6876 332.511 26.7883C333.018 27.889 333.271 29.2021 333.271 30.7276V31.6545H322.26ZM322.274 30.047H331.048C331.048 29.1201 330.892 28.2849 330.58 27.5414C330.268 26.798 329.795 26.209 329.162 25.7745C328.528 25.3401 327.724 25.1228 326.749 25.1228C325.716 25.1228 324.867 25.369 324.204 25.8614C323.551 26.3442 323.064 26.9621 322.742 27.7152C322.42 28.4683 322.264 29.2456 322.274 30.047Z" fill="white"/>
<path d="M337.162 38.6207V23.6456H339.326V26.3538C339.579 25.649 339.935 25.0794 340.393 24.6449C340.861 24.2007 341.383 23.8773 341.958 23.6745C342.543 23.4621 343.133 23.3559 343.727 23.3559C343.971 23.3559 344.21 23.3752 344.444 23.4138C344.678 23.4428 344.863 23.4959 345 23.5732V25.7745C344.844 25.6973 344.634 25.6442 344.371 25.6152C344.117 25.5863 343.903 25.5718 343.727 25.5718C343.191 25.5428 342.67 25.5814 342.163 25.6876C341.656 25.7938 341.193 25.9821 340.774 26.2525C340.364 26.5228 340.037 26.8849 339.794 27.3387C339.56 27.7925 339.443 28.3476 339.443 29.0042V38.6207H337.162Z" fill="white"/>
<path d="M353.486 30.2063V32.0456L346.218 32.0601V30.2207L353.486 30.2063Z" fill="white"/>
<path d="M364.864 38.9104C363.938 38.9104 363.158 38.7897 362.524 38.5483C361.9 38.2973 361.393 37.9883 361.004 37.6214C360.614 37.2545 360.316 36.8828 360.111 36.5063C359.907 36.1297 359.761 35.8111 359.673 35.5504L359.439 38.6207H357.64V17.0994H359.951V26.1076C360.058 25.8856 360.238 25.6201 360.492 25.3111C360.745 25.0021 361.077 24.698 361.486 24.3987C361.896 24.0994 362.393 23.8532 362.978 23.6601C363.563 23.4573 364.24 23.3559 365.01 23.3559C366.902 23.3559 368.413 24.0028 369.544 25.2966C370.675 26.5904 371.24 28.5166 371.24 31.0752C371.24 32.649 371.001 34.0249 370.523 35.2028C370.055 36.3711 369.349 37.2835 368.403 37.9401C367.467 38.587 366.287 38.9104 364.864 38.9104ZM364.499 37.1145C365.815 37.1145 366.877 36.6173 367.686 35.6228C368.505 34.6283 368.915 33.0642 368.915 30.9304C368.915 29.1345 368.54 27.7249 367.789 26.7014C367.038 25.678 365.922 25.1663 364.44 25.1663C363.358 25.1663 362.49 25.398 361.837 25.8614C361.184 26.3152 360.706 26.9718 360.404 27.8311C360.111 28.6904 359.96 29.7235 359.951 30.9304C359.951 33.1125 360.297 34.6911 360.989 35.6663C361.681 36.6318 362.851 37.1145 364.499 37.1145Z" fill="white"/>
<path d="M378.516 38.7801C377.794 38.7801 377.2 38.6787 376.732 38.4759C376.274 38.2635 375.913 37.9739 375.65 37.607C375.396 37.2401 375.221 36.8201 375.123 36.347C375.026 35.8739 374.977 35.3766 374.977 34.8552V17.0994H377.229V34.667C377.229 35.4876 377.385 36.0911 377.697 36.4773C378.009 36.8539 378.418 37.0566 378.925 37.0856L379.773 37.1001V38.5773C379.559 38.6449 379.34 38.6932 379.115 38.7221C378.891 38.7607 378.691 38.7801 378.516 38.7801Z" fill="white"/>
<path d="M389.081 38.9104C387.716 38.9104 386.517 38.6207 385.484 38.0414C384.46 37.4525 383.666 36.5835 383.1 35.4345C382.535 34.2856 382.252 32.8711 382.252 31.1911C382.252 29.627 382.51 28.2559 383.027 27.078C383.554 25.9001 384.324 24.9876 385.338 24.3407C386.352 23.6842 387.604 23.3559 389.096 23.3559C390.461 23.3559 391.645 23.6552 392.649 24.2538C393.663 24.8428 394.448 25.7214 395.004 26.8897C395.569 28.0483 395.852 29.4821 395.852 31.1911C395.852 32.7166 395.599 34.0587 395.092 35.2173C394.585 36.3759 393.829 37.2835 392.825 37.9401C391.831 38.587 390.583 38.9104 389.081 38.9104ZM389.096 37.0856C390.042 37.0856 390.846 36.8539 391.509 36.3904C392.182 35.927 392.693 35.2511 393.044 34.3628C393.405 33.4745 393.585 32.398 393.585 31.1332C393.585 29.9938 393.429 28.9752 393.117 28.0773C392.805 27.1794 392.318 26.4745 391.655 25.9628C390.992 25.4414 390.139 25.1807 389.096 25.1807C388.131 25.1807 387.307 25.4125 386.625 25.8759C385.952 26.3297 385.435 27.0007 385.074 27.889C384.714 28.7773 384.533 29.8587 384.533 31.1332C384.533 32.2725 384.689 33.2911 385.001 34.189C385.323 35.0773 385.82 35.7821 386.493 36.3035C387.166 36.8249 388.033 37.0856 389.096 37.0856Z" fill="white"/>
<path d="M405.476 23.3559C406.519 23.3559 407.465 23.549 408.313 23.9352C409.161 24.3214 409.863 24.8766 410.419 25.6007C410.975 26.3152 411.331 27.1794 411.487 28.1932H409.395C409.298 27.6332 409.079 27.1311 408.737 26.687C408.396 26.2332 407.948 25.8759 407.392 25.6152C406.846 25.3545 406.212 25.2242 405.491 25.2242C404.116 25.2242 402.995 25.7118 402.128 26.687C401.27 27.6525 400.841 29.1442 400.841 31.1621C400.841 32.9676 401.231 34.4159 402.011 35.507C402.8 36.5883 403.97 37.129 405.52 37.129C406.242 37.129 406.875 36.9987 407.421 36.738C407.977 36.4676 408.425 36.1104 408.767 35.6663C409.108 35.2125 409.322 34.7152 409.41 34.1745H411.472C411.326 35.1594 410.97 36.009 410.404 36.7235C409.839 37.4283 409.132 37.969 408.284 38.3456C407.446 38.7221 406.51 38.9104 405.476 38.9104C404.131 38.9104 402.942 38.6207 401.908 38.0414C400.875 37.4621 400.066 36.598 399.481 35.449C398.905 34.3001 398.618 32.8759 398.618 31.1766C398.618 29.6221 398.881 28.2607 399.408 27.0925C399.934 25.9145 400.704 24.9973 401.718 24.3407C402.742 23.6842 403.994 23.3559 405.476 23.3559Z" fill="white"/>
<path d="M428.247 38.6207H425.776L420.862 30.8145L417.601 34.1311V38.6207H415.334V17.0994H417.601V31.4807L425.132 23.6456H427.823L422.383 29.2794L428.247 38.6207Z" fill="white"/>
<path d="M436.951 23.3559C437.994 23.3559 438.94 23.549 439.788 23.9352C440.636 24.3214 441.338 24.8766 441.894 25.6007C442.45 26.3152 442.805 27.1794 442.961 28.1932H440.87C440.773 27.6332 440.553 27.1311 440.212 26.687C439.871 26.2332 439.422 25.8759 438.867 25.6152C438.321 25.3545 437.687 25.2242 436.966 25.2242C435.591 25.2242 434.47 25.7118 433.602 26.687C432.744 27.6525 432.315 29.1442 432.315 31.1621C432.315 32.9676 432.705 34.4159 433.485 35.507C434.275 36.5883 435.445 37.129 436.995 37.129C437.716 37.129 438.35 36.9987 438.896 36.738C439.452 36.4676 439.9 36.1104 440.241 35.6663C440.583 35.2125 440.797 34.7152 440.885 34.1745H442.947C442.8 35.1594 442.445 36.009 441.879 36.7235C441.314 37.4283 440.607 37.969 439.759 38.3456C438.92 38.7221 437.984 38.9104 436.951 38.9104C435.606 38.9104 434.416 38.6207 433.383 38.0414C432.35 37.4621 431.54 36.598 430.955 35.449C430.38 34.3001 430.093 32.8759 430.093 31.1766C430.093 29.6221 430.356 28.2607 430.882 27.0925C431.409 25.9145 432.179 24.9973 433.193 24.3407C434.216 23.6842 435.469 23.3559 436.951 23.3559Z" fill="white"/>
<path d="M446.809 38.6207V17.0994H449.017V25.847C449.281 25.4221 449.631 25.0263 450.07 24.6594C450.519 24.2925 451.055 23.998 451.679 23.7759C452.312 23.5442 453.034 23.4283 453.843 23.4283C454.837 23.4283 455.729 23.607 456.519 23.9642C457.319 24.3214 457.952 24.8283 458.42 25.4849C458.888 26.1414 459.122 26.9138 459.122 27.8021V38.6207H456.841V28.309C456.841 27.3628 456.514 26.629 455.861 26.1076C455.208 25.5766 454.345 25.3111 453.273 25.3111C452.542 25.3111 451.854 25.4318 451.211 25.6732C450.577 25.9049 450.065 26.2573 449.675 26.7304C449.285 27.1938 449.09 27.7876 449.09 28.5118V38.6207H446.809Z" fill="white"/>
<path d="M467.656 38.9104C466.671 38.9104 465.809 38.7414 465.068 38.4035C464.327 38.0559 463.747 37.5635 463.328 36.9263C462.918 36.289 462.713 35.5214 462.713 34.6235C462.713 32.9628 463.284 31.7318 464.424 30.9304C465.575 30.129 467.432 29.6945 469.996 29.627L472.921 29.5401V28.2945C472.921 27.3194 472.618 26.5421 472.014 25.9628C471.419 25.3738 470.498 25.0842 469.25 25.0938C468.314 25.0938 467.5 25.3111 466.808 25.7456C466.125 26.1704 465.692 26.8559 465.506 27.8021H463.43C463.488 26.8656 463.756 26.069 464.234 25.4125C464.712 24.7463 465.385 24.2394 466.252 23.8918C467.12 23.5345 468.158 23.3559 469.367 23.3559C470.615 23.3559 471.663 23.5394 472.511 23.9063C473.369 24.2635 474.017 24.8042 474.456 25.5283C474.895 26.2428 475.114 27.1311 475.114 28.1932V38.6207H473.154L472.994 35.7387C472.389 36.9263 471.619 37.7518 470.683 38.2152C469.757 38.6787 468.748 38.9104 467.656 38.9104ZM468.299 37.2159C468.845 37.2159 469.387 37.1194 469.923 36.9263C470.469 36.7332 470.966 36.4676 471.414 36.1297C471.863 35.7918 472.223 35.4152 472.496 35.0001C472.769 34.5849 472.911 34.1601 472.921 33.7256V31.0607L470.478 31.1042C469.201 31.1235 468.153 31.249 467.334 31.4807C466.525 31.7125 465.921 32.0697 465.521 32.5525C465.131 33.0256 464.936 33.6483 464.936 34.4207C464.936 35.2994 465.248 35.9849 465.872 36.4773C466.496 36.9697 467.305 37.2159 468.299 37.2159Z" fill="white"/>
<path d="M482.5 23.6456V38.6207H480.277V23.6456H482.5ZM482.573 17.6932V20.1842H480.174V17.6932H482.573Z" fill="white"/>
<path d="M487.681 38.6207V23.6456H489.874V25.8325C490.128 25.398 490.474 24.9973 490.912 24.6304C491.361 24.2635 491.902 23.969 492.536 23.747C493.179 23.5249 493.901 23.4138 494.7 23.4138C495.675 23.4138 496.562 23.607 497.361 23.9932C498.171 24.3697 498.814 24.9587 499.292 25.7601C499.769 26.5614 500.008 27.5897 500.008 28.8449V38.6207H497.727V29.0476C497.727 27.7732 497.4 26.8318 496.747 26.2235C496.094 25.6152 495.231 25.3111 494.159 25.3111C493.428 25.3111 492.74 25.427 492.097 25.6587C491.453 25.8904 490.937 26.2428 490.547 26.7159C490.157 27.189 489.962 27.7828 489.962 28.4973V38.6207H487.681Z" fill="white"/>
<path d="M236.772 49.1132C238.235 49.1132 239.531 49.4173 240.662 50.0256C241.793 50.6339 242.7 51.4401 243.382 52.4442C244.065 53.4483 244.469 54.5394 244.596 55.7173H242.139C241.974 54.8773 241.662 54.1097 241.203 53.4145C240.755 52.7194 240.155 52.1642 239.405 51.749C238.654 51.3339 237.762 51.1263 236.729 51.1263C235.364 51.1263 234.213 51.4401 233.277 52.0676C232.351 52.6952 231.649 53.6559 231.172 54.9497C230.704 56.2338 230.47 57.8704 230.47 59.8594C230.47 62.8525 230.996 65.0587 232.049 66.478C233.112 67.8973 234.672 68.607 236.729 68.607C237.762 68.607 238.654 68.3945 239.405 67.9697C240.155 67.5352 240.755 66.9656 241.203 66.2607C241.662 65.5463 241.974 64.769 242.139 63.929H244.596C244.489 64.7883 244.245 65.6235 243.865 66.4345C243.494 67.2359 242.983 67.9552 242.329 68.5925C241.686 69.2201 240.896 69.7173 239.96 70.0842C239.034 70.4511 237.972 70.6345 236.772 70.6345C234.891 70.6345 233.292 70.2145 231.976 69.3745C230.67 68.5249 229.67 67.2987 228.978 65.6959C228.286 64.0835 227.94 62.1283 227.94 59.8304C227.94 57.5325 228.281 55.587 228.964 53.9939C229.656 52.4007 230.66 51.189 231.976 50.3587C233.292 49.5283 234.891 49.1132 236.772 49.1132Z" fill="white"/>
<path d="M254.385 70.6345C253.02 70.6345 251.821 70.3449 250.788 69.7656C249.764 69.1766 248.97 68.3076 248.404 67.1587C247.839 66.0097 247.556 64.5952 247.556 62.9152C247.556 61.3511 247.814 59.9801 248.331 58.8021C248.858 57.6242 249.628 56.7118 250.642 56.0649C251.656 55.4083 252.908 55.0801 254.4 55.0801C255.765 55.0801 256.949 55.3794 257.953 55.978C258.967 56.567 259.752 57.4456 260.308 58.6138C260.873 59.7725 261.156 61.2063 261.156 62.9152C261.156 64.4407 260.902 65.7828 260.396 66.9414C259.889 68.1001 259.133 69.0076 258.129 69.6642C257.135 70.3111 255.887 70.6345 254.385 70.6345ZM254.4 68.8097C255.346 68.8097 256.15 68.578 256.813 68.1145C257.485 67.6511 257.997 66.9752 258.348 66.087C258.709 65.1987 258.889 64.1221 258.889 62.8573C258.889 61.718 258.733 60.6994 258.421 59.8014C258.109 58.9035 257.622 58.1987 256.959 57.687C256.296 57.1656 255.443 56.9049 254.4 56.9049C253.435 56.9049 252.611 57.1366 251.929 57.6001C251.256 58.0538 250.739 58.7249 250.378 59.6132C250.018 60.5014 249.837 61.5828 249.837 62.8573C249.837 63.9966 249.993 65.0152 250.305 65.9132C250.627 66.8014 251.124 67.5063 251.797 68.0276C252.47 68.549 253.337 68.8097 254.4 68.8097Z" fill="white"/>
<path d="M264.872 70.3449V55.3697H267.066V57.5566C267.466 56.8904 268.021 56.3111 268.733 55.8187C269.454 55.3263 270.4 55.0801 271.57 55.0801C272.135 55.0801 272.706 55.1718 273.281 55.3552C273.856 55.5387 274.383 55.8139 274.86 56.1807C275.338 56.5476 275.704 57.0014 275.957 57.5421C276.425 56.789 277.059 56.1904 277.858 55.7463C278.657 55.3021 279.564 55.0801 280.578 55.0801C281.104 55.0801 281.65 55.1573 282.216 55.3118C282.791 55.4663 283.327 55.7414 283.824 56.1373C284.322 56.5235 284.721 57.0787 285.024 57.8028C285.336 58.5173 285.492 59.4394 285.492 60.569V70.3449H283.21V60.7718C283.21 59.7773 283.054 59.0145 282.742 58.4835C282.43 57.9428 282.026 57.5663 281.529 57.3538C281.031 57.1414 280.5 57.0352 279.935 57.0352C279.428 57.0352 278.891 57.1318 278.326 57.3249C277.77 57.5083 277.293 57.8318 276.893 58.2952C276.503 58.7587 276.308 59.4007 276.308 60.2214V70.3449H274.027V59.8739C274.027 59.2463 273.856 58.7249 273.515 58.3097C273.183 57.8849 272.769 57.5663 272.272 57.3538C271.775 57.1414 271.277 57.0352 270.78 57.0352C270.234 57.0352 269.679 57.1414 269.113 57.3538C268.558 57.5663 268.09 57.909 267.709 58.3821C267.339 58.8552 267.154 59.4683 267.154 60.2214V70.3449H264.872Z" fill="white"/>
<path d="M289.921 70.3449V55.3697H292.114V57.5566C292.514 56.8904 293.07 56.3111 293.781 55.8187C294.503 55.3263 295.449 55.0801 296.618 55.0801C297.184 55.0801 297.754 55.1718 298.329 55.3552C298.905 55.5387 299.431 55.8139 299.909 56.1807C300.386 56.5476 300.752 57.0014 301.005 57.5421C301.473 56.789 302.107 56.1904 302.906 55.7463C303.706 55.3021 304.613 55.0801 305.626 55.0801C306.153 55.0801 306.699 55.1573 307.264 55.3118C307.839 55.4663 308.376 55.7414 308.873 56.1373C309.37 56.5235 309.77 57.0787 310.072 57.8028C310.384 58.5173 310.54 59.4394 310.54 60.569V70.3449H308.259V60.7718C308.259 59.7773 308.103 59.0145 307.791 58.4835C307.479 57.9428 307.074 57.5663 306.577 57.3538C306.08 57.1414 305.548 57.0352 304.983 57.0352C304.476 57.0352 303.94 57.1318 303.374 57.3249C302.819 57.5083 302.341 57.8318 301.941 58.2952C301.551 58.7587 301.356 59.4007 301.356 60.2214V70.3449H299.075V59.8739C299.075 59.2463 298.905 58.7249 298.563 58.3097C298.232 57.8849 297.818 57.5663 297.32 57.3538C296.823 57.1414 296.326 57.0352 295.829 57.0352C295.283 57.0352 294.727 57.1414 294.162 57.3538C293.606 57.5663 293.138 57.909 292.758 58.3821C292.387 58.8552 292.202 59.4683 292.202 60.2214V70.3449H289.921Z" fill="white"/>
<path d="M320.269 70.6345C319.46 70.6249 318.704 70.5138 318.002 70.3014C317.301 70.0794 316.682 69.7559 316.145 69.3311C315.619 68.8966 315.205 68.3607 314.902 67.7235C314.61 67.0766 314.464 66.3283 314.464 65.4787V55.3697H316.745V65.2759C316.745 66.3283 317.067 67.1828 317.71 67.8394C318.353 68.4863 319.343 68.8097 320.679 68.8097C321.868 68.8097 322.823 68.5056 323.545 67.8973C324.266 67.2794 324.627 66.3476 324.627 65.1021V55.3697H326.894V70.3449H325.051L324.817 67.5063C324.642 68.2207 324.334 68.8097 323.896 69.2732C323.467 69.7366 322.94 70.0842 322.316 70.3159C321.702 70.538 321.02 70.6442 320.269 70.6345Z" fill="white"/>
<path d="M331.535 70.3449V55.3697H333.728V57.5566C333.982 57.1221 334.328 56.7214 334.767 56.3545C335.215 55.9876 335.756 55.6932 336.39 55.4711C337.033 55.249 337.755 55.138 338.554 55.138C339.529 55.138 340.416 55.3311 341.216 55.7173C342.025 56.0938 342.668 56.6828 343.146 57.4842C343.624 58.2856 343.863 59.3139 343.863 60.569V70.3449H341.581V60.7718C341.581 59.4973 341.255 58.5559 340.601 57.9476C339.948 57.3394 339.086 57.0352 338.013 57.0352C337.282 57.0352 336.595 57.1511 335.951 57.3828C335.308 57.6145 334.791 57.967 334.401 58.4401C334.011 58.9132 333.816 59.507 333.816 60.2214V70.3449H331.535Z" fill="white"/>
<path d="M350.831 55.3697V70.3449H348.608V55.3697H350.831ZM350.904 49.4173V51.9083H348.506V49.4173H350.904Z" fill="white"/>
<path d="M361.72 55.0801C362.763 55.0801 363.709 55.2732 364.557 55.6594C365.405 56.0456 366.107 56.6007 366.663 57.3249C367.219 58.0394 367.574 58.9035 367.73 59.9173H365.639C365.542 59.3573 365.322 58.8552 364.981 58.4111C364.64 57.9573 364.191 57.6001 363.636 57.3394C363.09 57.0787 362.456 56.9483 361.735 56.9483C360.36 56.9483 359.239 57.4359 358.371 58.4111C357.513 59.3766 357.084 60.8683 357.084 62.8863C357.084 64.6918 357.474 66.1401 358.254 67.2311C359.044 68.3125 360.214 68.8532 361.764 68.8532C362.485 68.8532 363.119 68.7228 363.665 68.4621C364.221 68.1918 364.669 67.8345 365.01 67.3904C365.352 66.9366 365.566 66.4394 365.654 65.8987H367.716C367.569 66.8835 367.214 67.7332 366.648 68.4476C366.083 69.1525 365.376 69.6932 364.528 70.0697C363.689 70.4463 362.753 70.6345 361.72 70.6345C360.375 70.6345 359.185 70.3449 358.152 69.7656C357.119 69.1863 356.309 68.3221 355.724 67.1732C355.149 66.0242 354.862 64.6001 354.862 62.9007C354.862 61.3463 355.125 59.9849 355.651 58.8166C356.178 57.6387 356.948 56.7214 357.962 56.0649C358.986 55.4083 360.238 55.0801 361.72 55.0801Z" fill="white"/>
<path d="M375.517 70.6345C374.532 70.6345 373.669 70.4656 372.928 70.1276C372.187 69.7801 371.607 69.2876 371.188 68.6504C370.779 68.0132 370.574 67.2456 370.574 66.3476C370.574 64.687 371.144 63.4559 372.285 62.6545C373.435 61.8532 375.292 61.4187 377.856 61.3511L380.781 61.2642V60.0187C380.781 59.0435 380.479 58.2663 379.874 57.687C379.28 57.098 378.358 56.8083 377.111 56.818C376.175 56.818 375.361 57.0352 374.669 57.4697C373.986 57.8945 373.552 58.5801 373.367 59.5263H371.29C371.349 58.5897 371.617 57.7932 372.095 57.1366C372.572 56.4704 373.245 55.9635 374.113 55.6159C374.98 55.2587 376.019 55.0801 377.228 55.0801C378.475 55.0801 379.523 55.2635 380.372 55.6304C381.23 55.9876 381.878 56.5283 382.317 57.2525C382.755 57.967 382.975 58.8552 382.975 59.9173V70.3449H381.015L380.854 67.4628C380.25 68.6504 379.48 69.4759 378.544 69.9394C377.618 70.4028 376.609 70.6345 375.517 70.6345ZM376.16 68.9401C376.706 68.9401 377.247 68.8435 377.783 68.6504C378.329 68.4573 378.826 68.1918 379.275 67.8539C379.723 67.5159 380.084 67.1394 380.357 66.7242C380.63 66.309 380.771 65.8842 380.781 65.4497V62.7849L378.339 62.8283C377.062 62.8476 376.014 62.9732 375.195 63.2049C374.386 63.4366 373.781 63.7938 373.382 64.2766C372.992 64.7497 372.797 65.3725 372.797 66.1449C372.797 67.0235 373.109 67.709 373.733 68.2014C374.357 68.6938 375.166 68.9401 376.16 68.9401Z" fill="white"/>
<path d="M394.333 57.0642H390.911V66.7242C390.911 67.3035 390.964 67.7283 391.071 67.9987C391.188 68.2594 391.388 68.4283 391.671 68.5056C391.964 68.5732 392.368 68.607 392.885 68.607H394.435V70.1711C394.25 70.2387 393.972 70.2966 393.601 70.3449C393.241 70.3835 392.807 70.4028 392.3 70.4028C391.335 70.4028 390.584 70.2676 390.048 69.9973C389.521 69.727 389.151 69.3263 388.936 68.7952C388.722 68.2642 388.615 67.598 388.615 66.7966V57.0642H386.158V55.3697H388.673L389.214 51.0538H390.911V55.3552H394.333V57.0642Z" fill="white"/>
<path d="M400.985 55.3697V70.3449H398.762V55.3697H400.985ZM401.058 49.4173V51.9083H398.66V49.4173H401.058Z" fill="white"/>
<path d="M411.845 70.6345C410.48 70.6345 409.281 70.3449 408.247 69.7656C407.224 69.1766 406.429 68.3076 405.864 67.1587C405.298 66.0097 405.016 64.5952 405.016 62.9152C405.016 61.3511 405.274 59.9801 405.791 58.8021C406.317 57.6242 407.087 56.7118 408.101 56.0649C409.115 55.4083 410.368 55.0801 411.859 55.0801C413.224 55.0801 414.409 55.3794 415.413 55.978C416.427 56.567 417.212 57.4456 417.767 58.6138C418.333 59.7725 418.616 61.2063 418.616 62.9152C418.616 64.4407 418.362 65.7828 417.855 66.9414C417.348 68.1001 416.593 69.0076 415.588 69.6642C414.594 70.3111 413.346 70.6345 411.845 70.6345ZM411.859 68.8097C412.805 68.8097 413.609 68.578 414.272 68.1145C414.945 67.6511 415.457 66.9752 415.808 66.087C416.169 65.1987 416.349 64.1221 416.349 62.8573C416.349 61.718 416.193 60.6994 415.881 59.8014C415.569 58.9035 415.082 58.1987 414.419 57.687C413.756 57.1656 412.903 56.9049 411.859 56.9049C410.894 56.9049 410.071 57.1366 409.388 57.6001C408.715 58.0538 408.199 58.7249 407.838 59.6132C407.477 60.5014 407.297 61.5828 407.297 62.8573C407.297 63.9966 407.453 65.0152 407.765 65.9132C408.087 66.8014 408.584 67.5063 409.256 68.0276C409.929 68.549 410.797 68.8097 411.859 68.8097Z" fill="white"/>
<path d="M422.332 70.3449V55.3697H424.525V57.5566C424.779 57.1221 425.125 56.7214 425.564 56.3545C426.012 55.9876 426.553 55.6932 427.187 55.4711C427.83 55.249 428.552 55.138 429.351 55.138C430.326 55.138 431.213 55.3311 432.013 55.7173C432.822 56.0938 433.465 56.6828 433.943 57.4842C434.421 58.2856 434.66 59.3139 434.66 60.569V70.3449H432.378V60.7718C432.378 59.4973 432.052 58.5559 431.399 57.9476C430.745 57.3394 429.883 57.0352 428.81 57.0352C428.079 57.0352 427.392 57.1511 426.748 57.3828C426.105 57.6145 425.588 57.967 425.198 58.4401C424.808 58.9132 424.613 59.507 424.613 60.2214V70.3449H422.332Z" fill="white"/>
<path d="M229.227 102.069V81.127H236.202C237.703 81.127 239.039 81.378 240.209 81.8801C241.389 82.3725 242.31 83.1063 242.973 84.0814C243.645 85.047 243.982 86.2442 243.982 87.6732C243.982 89.0732 243.665 90.2656 243.031 91.2504C242.398 92.2256 241.52 92.969 240.399 93.4807C239.288 93.9925 237.996 94.2483 236.524 94.2483H231.596V102.069H229.227ZM231.581 92.2642H236.48C238.03 92.2642 239.288 91.8442 240.253 91.0042C241.228 90.1642 241.715 89.0104 241.715 87.5428C241.715 86.0559 241.218 84.9407 240.224 84.1973C239.229 83.4538 237.928 83.0821 236.319 83.0821H231.581V92.2642Z" fill="white"/>
<path d="M247.136 102.069V87.0938H249.3V89.8021C249.553 89.0973 249.909 88.5276 250.367 88.0932C250.835 87.649 251.357 87.3256 251.932 87.1228C252.517 86.9104 253.107 86.8042 253.702 86.8042C253.945 86.8042 254.184 86.8235 254.418 86.8621C254.652 86.8911 254.837 86.9442 254.974 87.0214V89.2228C254.818 89.1456 254.608 89.0925 254.345 89.0635C254.092 89.0345 253.877 89.0201 253.702 89.0201C253.165 88.9911 252.644 89.0297 252.137 89.1359C251.63 89.2421 251.167 89.4304 250.748 89.7007C250.338 89.9711 250.012 90.3332 249.768 90.7869C249.534 91.2407 249.417 91.7959 249.417 92.4525V102.069H247.136Z" fill="white"/>
<path d="M263.811 102.359C262.446 102.359 261.247 102.069 260.213 101.49C259.19 100.901 258.395 100.032 257.83 98.8828C257.264 97.7338 256.981 96.3194 256.981 94.6394C256.981 93.0752 257.24 91.7042 257.756 90.5263C258.283 89.3483 259.053 88.4359 260.067 87.789C261.081 87.1325 262.334 86.8042 263.825 86.8042C265.19 86.8042 266.375 87.1035 267.379 87.7021C268.393 88.2911 269.177 89.1697 269.733 90.338C270.299 91.4966 270.581 92.9304 270.581 94.6394C270.581 96.1649 270.328 97.507 269.821 98.6656C269.314 99.8242 268.558 100.732 267.554 101.388C266.56 102.035 265.312 102.359 263.811 102.359ZM263.825 100.534C264.771 100.534 265.575 100.302 266.238 99.8387C266.911 99.3752 267.423 98.6994 267.774 97.8111C268.134 96.9228 268.315 95.8463 268.315 94.5814C268.315 93.4421 268.159 92.4235 267.847 91.5256C267.535 90.6276 267.047 89.9228 266.384 89.4111C265.721 88.8897 264.868 88.629 263.825 88.629C262.86 88.629 262.036 88.8607 261.354 89.3242C260.681 89.778 260.164 90.449 259.804 91.3373C259.443 92.2256 259.263 93.307 259.263 94.5814C259.263 95.7207 259.419 96.7394 259.731 97.6373C260.052 98.5256 260.55 99.2304 261.222 99.7518C261.895 100.273 262.763 100.534 263.825 100.534Z" fill="white"/>
<path d="M281.086 88.7883H277.664V98.4483C277.664 99.0276 277.718 99.4525 277.825 99.7228C277.942 99.9835 278.142 100.152 278.425 100.23C278.717 100.297 279.122 100.331 279.638 100.331H281.189V101.895C281.003 101.963 280.725 102.021 280.355 102.069C279.994 102.108 279.56 102.127 279.054 102.127C278.088 102.127 277.338 101.992 276.802 101.721C276.275 101.451 275.905 101.05 275.69 100.519C275.476 99.9883 275.368 99.3221 275.368 98.5207V88.7883H272.912V87.0938H275.427L275.968 82.778H277.664V87.0794H281.086V88.7883Z" fill="white"/>
<path d="M290.687 102.359C289.322 102.359 288.123 102.069 287.09 101.49C286.066 100.901 285.271 100.032 284.706 98.8828C284.141 97.7338 283.858 96.3194 283.858 94.6394C283.858 93.0752 284.116 91.7042 284.633 90.5263C285.159 89.3483 285.929 88.4359 286.943 87.789C287.957 87.1325 289.21 86.8042 290.702 86.8042C292.066 86.8042 293.251 87.1035 294.255 87.7021C295.269 88.2911 296.054 89.1697 296.609 90.338C297.175 91.4966 297.458 92.9304 297.458 94.6394C297.458 96.1649 297.204 97.507 296.697 98.6656C296.19 99.8242 295.435 100.732 294.431 101.388C293.436 102.035 292.188 102.359 290.687 102.359ZM290.702 100.534C291.647 100.534 292.452 100.302 293.114 99.8387C293.787 99.3752 294.299 98.6994 294.65 97.8111C295.011 96.9228 295.191 95.8463 295.191 94.5814C295.191 93.4421 295.035 92.4235 294.723 91.5256C294.411 90.6276 293.924 89.9228 293.261 89.4111C292.598 88.8897 291.745 88.629 290.702 88.629C289.736 88.629 288.913 88.8607 288.23 89.3242C287.558 89.778 287.041 90.449 286.68 91.3373C286.319 92.2256 286.139 93.307 286.139 94.5814C286.139 95.7207 286.295 96.7394 286.607 97.6373C286.929 98.5256 287.426 99.2304 288.099 99.7518C288.771 100.273 289.639 100.534 290.702 100.534Z" fill="white"/>
<path d="M307.082 86.8042C308.125 86.8042 309.071 86.9973 309.919 87.3835C310.767 87.7697 311.469 88.3249 312.025 89.049C312.58 89.7635 312.936 90.6276 313.092 91.6414H311.001C310.904 91.0814 310.684 90.5794 310.343 90.1352C310.002 89.6814 309.553 89.3242 308.998 89.0635C308.452 88.8028 307.818 88.6725 307.097 88.6725C305.722 88.6725 304.601 89.1601 303.733 90.1352C302.875 91.1007 302.446 92.5925 302.446 94.6104C302.446 96.4159 302.836 97.8642 303.616 98.9552C304.406 100.037 305.576 100.577 307.126 100.577C307.847 100.577 308.481 100.447 309.027 100.186C309.583 99.9159 310.031 99.5587 310.372 99.1145C310.713 98.6607 310.928 98.1635 311.016 97.6228H313.078C312.931 98.6076 312.576 99.4573 312.01 100.172C311.445 100.877 310.738 101.417 309.89 101.794C309.051 102.17 308.115 102.359 307.082 102.359C305.737 102.359 304.547 102.069 303.514 101.49C302.48 100.91 301.671 100.046 301.086 98.8973C300.511 97.7483 300.224 96.3242 300.224 94.6249C300.224 93.0704 300.487 91.709 301.013 90.5407C301.54 89.3628 302.31 88.4456 303.324 87.789C304.347 87.1325 305.6 86.8042 307.082 86.8042Z" fill="white"/>
<path d="M322.819 102.359C321.454 102.359 320.255 102.069 319.221 101.49C318.198 100.901 317.403 100.032 316.838 98.8828C316.272 97.7338 315.989 96.3194 315.989 94.6394C315.989 93.0752 316.248 91.7042 316.765 90.5263C317.291 89.3483 318.061 88.4359 319.075 87.789C320.089 87.1325 321.342 86.8042 322.833 86.8042C324.198 86.8042 325.383 87.1035 326.387 87.7021C327.401 88.2911 328.185 89.1697 328.741 90.338C329.307 91.4966 329.589 92.9304 329.589 94.6394C329.589 96.1649 329.336 97.507 328.829 98.6656C328.322 99.8242 327.566 100.732 326.562 101.388C325.568 102.035 324.32 102.359 322.819 102.359ZM322.833 100.534C323.779 100.534 324.583 100.302 325.246 99.8387C325.919 99.3752 326.431 98.6994 326.782 97.8111C327.142 96.9228 327.323 95.8463 327.323 94.5814C327.323 93.4421 327.167 92.4235 326.855 91.5256C326.543 90.6276 326.055 89.9228 325.392 89.4111C324.729 88.8897 323.876 88.629 322.833 88.629C321.868 88.629 321.044 88.8607 320.362 89.3242C319.689 89.778 319.173 90.449 318.812 91.3373C318.451 92.2256 318.271 93.307 318.271 94.5814C318.271 95.7207 318.427 96.7394 318.739 97.6373C319.06 98.5256 319.558 99.2304 320.23 99.7518C320.903 100.273 321.771 100.534 322.833 100.534Z" fill="white"/>
<path d="M336.845 102.228C336.123 102.228 335.529 102.127 335.061 101.924C334.602 101.712 334.242 101.422 333.978 101.055C333.725 100.688 333.549 100.268 333.452 99.7952C333.354 99.3221 333.306 98.8249 333.306 98.3035V80.5476H335.558V98.1152C335.558 98.9359 335.714 99.5394 336.026 99.9256C336.338 100.302 336.747 100.505 337.254 100.534L338.102 100.548V102.026C337.888 102.093 337.668 102.141 337.444 102.17C337.22 102.209 337.02 102.228 336.845 102.228Z" fill="white"/>
<defs>
<clipPath id="clip0_689_5398">
<rect width="198.462" height="120" fill="white"/>
</clipPath>
</defs>
</svg>
