<svg width="2526" height="584" viewBox="0 0 2526 584" fill="none" xmlns="http://www.w3.org/2000/svg">
<g clip-path="url(#clip0_1383_391)">
<path d="M73.3476 10.8696H0V573.785H73.3476V10.8696Z" fill="black"/>
<path d="M346.399 368.438H308.634C230.619 368.438 167.162 303.743 167.162 224.206V10.6953H384.208C462.223 10.6953 525.679 75.3902 525.679 154.927V210.76H452.332V154.927C452.332 116.643 421.759 85.4742 384.208 85.4742H240.51V224.206C240.51 262.49 271.082 293.659 308.634 293.659H346.399V368.438ZM533.001 429.073V361.89C533.001 282.353 469.544 217.658 391.53 217.658H346.399V292.437H391.53C429.081 292.437 459.653 323.605 459.653 361.89V429.073C459.653 467.357 429.081 498.526 391.53 498.526H240.51V373.327H167.162V573.305H391.53C469.544 573.305 533.001 508.61 533.001 429.073Z" fill="black"/>
<path d="M782.803 584H770.6C675.843 584 598.728 505.38 598.728 408.774V175.183C598.728 78.577 675.843 -0.043457 770.6 -0.043457H782.803C877.56 -0.043457 954.676 78.577 954.676 175.183H881.328C881.328 119.83 837.139 74.7791 782.846 74.7791H770.643C716.349 74.7791 672.161 119.83 672.161 175.183V408.774C672.161 464.127 716.349 509.178 770.643 509.178H782.846C837.139 509.178 881.328 464.127 881.328 408.774H954.676C954.676 505.38 877.56 584 782.803 584Z" fill="black"/>
</g>
<path d="M1094.48 96.9475V86.7275H1170.41V96.9475H1138.97V188.646H1127.9V96.9475H1094.48Z" fill="black"/>
<path d="M1185.06 188.646V83.9082H1195.7V126.48C1196.97 124.412 1198.67 122.486 1200.78 120.7C1202.94 118.915 1205.53 117.481 1208.54 116.401C1211.59 115.273 1215.07 114.709 1218.97 114.709C1223.76 114.709 1228.06 115.578 1231.87 117.317C1235.72 119.056 1238.78 121.523 1241.03 124.718C1243.29 127.913 1244.42 131.672 1244.42 135.995V188.646H1233.42V138.462C1233.42 133.857 1231.85 130.286 1228.7 127.748C1225.55 125.164 1221.39 123.872 1216.22 123.872C1212.69 123.872 1209.38 124.459 1206.28 125.634C1203.22 126.762 1200.76 128.477 1198.88 130.779C1197 133.035 1196.06 135.924 1196.06 139.449V188.646H1185.06Z" fill="black"/>
<path d="M1273.08 154.743C1273.08 159.63 1273.88 164.071 1275.47 168.065C1277.07 172.059 1279.54 175.254 1282.88 177.65C1286.21 180.047 1290.44 181.245 1295.57 181.245C1300.5 181.245 1304.75 180.094 1308.33 177.791C1311.9 175.442 1314.13 172.129 1315.02 167.853H1325.6C1324.71 172.74 1322.75 176.828 1319.75 180.117C1316.79 183.406 1313.19 185.897 1308.96 187.588C1304.78 189.233 1300.36 190.055 1295.71 190.055C1289.03 190.055 1283.14 188.599 1278.01 185.685C1272.94 182.725 1268.97 178.473 1266.1 172.928C1263.28 167.383 1261.87 160.711 1261.87 152.911C1261.87 145.158 1263.16 138.391 1265.75 132.612C1268.33 126.785 1272.07 122.298 1276.96 119.15C1281.89 115.954 1287.84 114.357 1294.79 114.357C1301.51 114.357 1307.2 115.813 1311.85 118.727C1316.5 121.593 1320.05 125.704 1322.5 131.061C1324.94 136.418 1326.16 142.808 1326.16 150.232V154.743H1273.08ZM1273.15 146.92H1315.45C1315.45 142.409 1314.69 138.344 1313.19 134.726C1311.69 131.108 1309.41 128.242 1306.35 126.127C1303.3 124.013 1299.42 122.956 1294.72 122.956C1289.74 122.956 1285.65 124.154 1282.45 126.55C1279.3 128.9 1276.96 131.907 1275.4 135.572C1273.85 139.237 1273.1 143.02 1273.15 146.92Z" fill="black"/>
<path d="M1379.89 86.7275H1390.88V188.646H1379.89V86.7275Z" fill="black"/>
<path d="M1416.1 188.646V115.766H1426.68V126.409C1427.9 124.295 1429.57 122.345 1431.68 120.559C1433.85 118.774 1436.45 117.341 1439.51 116.26C1442.61 115.179 1446.09 114.639 1449.94 114.639C1454.64 114.639 1458.92 115.578 1462.77 117.458C1466.67 119.291 1469.78 122.157 1472.08 126.057C1474.38 129.957 1475.53 134.961 1475.53 141.07V188.646H1464.53V142.056C1464.53 135.854 1462.96 131.273 1459.81 128.312C1456.66 125.352 1452.5 123.872 1447.33 123.872C1443.81 123.872 1440.5 124.436 1437.39 125.564C1434.29 126.691 1431.8 128.406 1429.92 130.709C1428.04 133.011 1427.1 135.901 1427.1 139.378V188.646H1416.1Z" fill="black"/>
<path d="M1528.28 124.013H1511.78V171.025C1511.78 173.844 1512.04 175.912 1512.56 177.227C1513.12 178.496 1514.08 179.318 1515.45 179.694C1516.86 180.023 1518.81 180.188 1521.3 180.188H1528.77V187.8C1527.88 188.129 1526.54 188.411 1524.75 188.646C1523.01 188.834 1520.92 188.928 1518.48 188.928C1513.82 188.928 1510.21 188.27 1507.62 186.954C1505.08 185.638 1503.3 183.688 1502.26 181.104C1501.23 178.52 1500.71 175.277 1500.71 171.377V124.013H1488.87V115.766H1500.99L1503.6 94.7626H1511.78V115.696H1528.28V124.013Z" fill="black"/>
<path d="M1553.55 154.743C1553.55 159.63 1554.35 164.071 1555.95 168.065C1557.55 172.059 1560.01 175.254 1563.35 177.65C1566.69 180.047 1570.92 181.245 1576.04 181.245C1580.98 181.245 1585.23 180.094 1588.8 177.791C1592.37 175.442 1594.6 172.129 1595.5 167.853H1606.07C1605.18 172.74 1603.23 176.828 1600.22 180.117C1597.26 183.406 1593.66 185.897 1589.44 187.588C1585.25 189.233 1580.83 190.055 1576.18 190.055C1569.51 190.055 1563.61 188.599 1558.49 185.685C1553.41 182.725 1549.44 178.473 1546.57 172.928C1543.75 167.383 1542.34 160.711 1542.34 152.911C1542.34 145.158 1543.64 138.391 1546.22 132.612C1548.81 126.785 1552.54 122.298 1557.43 119.15C1562.36 115.954 1568.31 114.357 1575.27 114.357C1581.99 114.357 1587.67 115.813 1592.33 118.727C1596.98 121.593 1600.53 125.704 1602.97 131.061C1605.41 136.418 1606.64 142.808 1606.64 150.232V154.743H1553.55ZM1553.62 146.92H1595.92C1595.92 142.409 1595.17 138.344 1593.66 134.726C1592.16 131.108 1589.88 128.242 1586.83 126.127C1583.77 124.013 1579.89 122.956 1575.19 122.956C1570.21 122.956 1566.12 124.154 1562.93 126.55C1559.78 128.9 1557.43 131.907 1555.88 135.572C1554.33 139.237 1553.58 143.02 1553.62 146.92Z" fill="black"/>
<path d="M1625.39 188.646V115.766H1635.83V128.947C1637.05 125.517 1638.76 122.744 1640.97 120.63C1643.23 118.468 1645.74 116.894 1648.52 115.907C1651.33 114.874 1654.18 114.357 1657.05 114.357C1658.22 114.357 1659.37 114.451 1660.5 114.639C1661.63 114.78 1662.52 115.038 1663.18 115.414V126.127C1662.43 125.751 1661.42 125.493 1660.15 125.352C1658.93 125.211 1657.89 125.141 1657.05 125.141C1654.46 125 1651.95 125.188 1649.5 125.704C1647.06 126.221 1644.83 127.138 1642.8 128.453C1640.83 129.769 1639.26 131.531 1638.08 133.74C1636.95 135.948 1636.39 138.65 1636.39 141.845V188.646H1625.39Z" fill="black"/>
<path d="M1704.09 147.695V156.646L1669.05 156.717V147.766L1704.09 147.695Z" fill="black"/>
<path d="M1726.87 188.646V86.7275H1758.52C1770.64 86.7275 1779.88 89.0065 1786.22 93.5643C1792.62 98.0752 1795.81 104.63 1795.81 113.229C1795.81 118.727 1794.35 123.426 1791.44 127.326C1788.57 131.226 1783.62 134.35 1776.57 136.7C1780.51 137.499 1783.87 138.673 1786.65 140.224C1789.42 141.775 1791.65 143.607 1793.34 145.722C1795.08 147.836 1796.33 150.209 1797.08 152.84C1797.88 155.472 1798.28 158.291 1798.28 161.298C1798.28 170.461 1794.99 177.321 1788.41 181.879C1781.83 186.39 1772.15 188.646 1759.36 188.646H1726.87ZM1737.86 179.13H1759.08C1768.25 179.13 1775.23 177.697 1780.02 174.831C1784.81 171.918 1787.21 167.336 1787.21 161.087C1787.21 156.482 1786.01 152.77 1783.62 149.951C1781.27 147.131 1778.09 145.087 1774.1 143.819C1770.1 142.55 1765.66 141.916 1760.77 141.916H1737.86V179.13ZM1737.86 132.259H1760.77C1763.59 132.259 1766.41 132.001 1769.23 131.484C1772.1 130.92 1774.73 129.98 1777.13 128.665C1779.53 127.349 1781.45 125.564 1782.91 123.308C1784.37 121.006 1785.1 118.116 1785.1 114.639C1785.1 108.248 1782.65 103.573 1777.76 100.613C1772.92 97.6054 1766.6 96.1017 1758.8 96.1017H1737.86V132.259Z" fill="black"/>
<path d="M1835.08 189.421C1831.6 189.421 1828.74 188.928 1826.48 187.941C1824.27 186.907 1822.53 185.497 1821.26 183.712C1820.04 181.926 1819.2 179.882 1818.73 177.58C1818.26 175.277 1818.02 172.857 1818.02 170.32V83.9082H1828.88V169.404C1828.88 173.398 1829.63 176.335 1831.13 178.214C1832.64 180.047 1834.61 181.033 1837.05 181.174L1841.14 181.245V188.434C1840.11 188.763 1839.05 188.998 1837.97 189.139C1836.89 189.327 1835.93 189.421 1835.08 189.421Z" fill="black"/>
<path d="M1886.01 190.055C1879.43 190.055 1873.65 188.646 1868.67 185.826C1863.74 182.96 1859.91 178.731 1857.18 173.139C1854.46 167.548 1853.09 160.664 1853.09 152.488C1853.09 144.876 1854.34 138.203 1856.83 132.471C1859.37 126.738 1863.08 122.298 1867.97 119.15C1872.86 115.954 1878.89 114.357 1886.09 114.357C1892.66 114.357 1898.38 115.813 1903.22 118.727C1908.1 121.593 1911.89 125.869 1914.57 131.555C1917.29 137.193 1918.65 144.171 1918.65 152.488C1918.65 159.912 1917.43 166.444 1914.99 172.082C1912.55 177.721 1908.9 182.138 1904.06 185.333C1899.27 188.481 1893.25 190.055 1886.01 190.055ZM1886.09 181.174C1890.64 181.174 1894.52 180.047 1897.72 177.791C1900.96 175.536 1903.43 172.247 1905.12 167.924C1906.86 163.601 1907.73 158.361 1907.73 152.206C1907.73 146.661 1906.98 141.704 1905.47 137.334C1903.97 132.964 1901.62 129.534 1898.42 127.044C1895.23 124.506 1891.11 123.238 1886.09 123.238C1881.43 123.238 1877.46 124.365 1874.17 126.621C1870.93 128.829 1868.44 132.095 1866.7 136.418C1864.96 140.741 1864.09 146.004 1864.09 152.206C1864.09 157.751 1864.84 162.708 1866.35 167.078C1867.9 171.401 1870.29 174.831 1873.54 177.368C1876.78 179.906 1880.96 181.174 1886.09 181.174Z" fill="black"/>
<path d="M1965.05 114.357C1970.08 114.357 1974.64 115.297 1978.73 117.176C1982.82 119.056 1986.2 121.757 1988.88 125.282C1991.56 128.759 1993.27 132.964 1994.03 137.898H1983.95C1983.48 135.173 1982.42 132.729 1980.77 130.568C1979.13 128.359 1976.97 126.621 1974.29 125.352C1971.66 124.083 1968.6 123.449 1965.12 123.449C1958.5 123.449 1953.09 125.822 1948.91 130.568C1944.77 135.267 1942.7 142.526 1942.7 152.347C1942.7 161.134 1944.58 168.182 1948.34 173.492C1952.15 178.755 1957.79 181.386 1965.26 181.386C1968.74 181.386 1971.8 180.752 1974.43 179.483C1977.11 178.167 1979.27 176.429 1980.91 174.267C1982.56 172.059 1983.59 169.639 1984.02 167.007H1993.96C1993.25 171.8 1991.54 175.935 1988.81 179.412C1986.08 182.843 1982.68 185.474 1978.59 187.306C1974.55 189.139 1970.03 190.055 1965.05 190.055C1958.57 190.055 1952.83 188.646 1947.85 185.826C1942.87 183.007 1938.97 178.801 1936.15 173.21C1933.38 167.618 1931.99 160.687 1931.99 152.417C1931.99 144.852 1933.26 138.227 1935.8 132.541C1938.33 126.809 1942.05 122.345 1946.93 119.15C1951.87 115.954 1957.91 114.357 1965.05 114.357Z" fill="black"/>
<path d="M2074.82 188.646H2062.91L2039.22 150.655L2023.5 166.796V188.646H2012.58V83.9082H2023.5V153.898L2059.81 115.766H2072.78L2046.56 143.184L2074.82 188.646Z" fill="black"/>
<path d="M2116.79 114.357C2121.82 114.357 2126.37 115.297 2130.46 117.176C2134.55 119.056 2137.94 121.757 2140.61 125.282C2143.29 128.759 2145.01 132.964 2145.76 137.898H2135.68C2135.21 135.173 2134.15 132.729 2132.51 130.568C2130.86 128.359 2128.7 126.621 2126.02 125.352C2123.39 124.083 2120.33 123.449 2116.86 123.449C2110.23 123.449 2104.83 125.822 2100.64 130.568C2096.51 135.267 2094.44 142.526 2094.44 152.347C2094.44 161.134 2096.32 168.182 2100.08 173.492C2103.89 178.755 2109.53 181.386 2117 181.386C2120.48 181.386 2123.53 180.752 2126.16 179.483C2128.84 178.167 2131 176.429 2132.65 174.267C2134.29 172.059 2135.33 169.639 2135.75 167.007H2145.69C2144.99 171.8 2143.27 175.935 2140.54 179.412C2137.82 182.843 2134.41 185.474 2130.32 187.306C2126.28 189.139 2121.77 190.055 2116.79 190.055C2110.3 190.055 2104.57 188.646 2099.58 185.826C2094.6 183.007 2090.7 178.801 2087.88 173.21C2085.11 167.618 2083.72 160.687 2083.72 152.417C2083.72 144.852 2084.99 138.227 2087.53 132.541C2090.07 126.809 2093.78 122.345 2098.67 119.15C2103.6 115.954 2109.64 114.357 2116.79 114.357Z" fill="black"/>
<path d="M2164.31 188.646V83.9082H2174.96V126.48C2176.22 124.412 2177.92 122.486 2180.03 120.7C2182.19 118.915 2184.78 117.481 2187.79 116.401C2190.84 115.273 2194.32 114.709 2198.22 114.709C2203.01 114.709 2207.31 115.578 2211.12 117.317C2214.97 119.056 2218.03 121.523 2220.29 124.718C2222.54 127.913 2223.67 131.672 2223.67 135.995V188.646H2212.67V138.462C2212.67 133.857 2211.1 130.286 2207.95 127.748C2204.8 125.164 2200.64 123.872 2195.47 123.872C2191.95 123.872 2188.63 124.459 2185.53 125.634C2182.48 126.762 2180.01 128.477 2178.13 130.779C2176.25 133.035 2175.31 135.924 2175.31 139.449V188.646H2164.31Z" fill="black"/>
<path d="M2264.81 190.055C2260.06 190.055 2255.9 189.233 2252.33 187.588C2248.76 185.897 2245.96 183.5 2243.94 180.399C2241.97 177.298 2240.98 173.562 2240.98 169.192C2240.98 161.11 2243.73 155.119 2249.23 151.219C2254.78 147.319 2263.73 145.205 2276.09 144.876L2290.19 144.453V138.391C2290.19 133.646 2288.73 129.863 2285.82 127.044C2282.95 124.177 2278.51 122.768 2272.49 122.815C2267.98 122.815 2264.06 123.872 2260.72 125.986C2257.43 128.054 2255.34 131.39 2254.45 135.995H2244.44C2244.72 131.437 2246.01 127.561 2248.31 124.365C2250.62 121.123 2253.86 118.656 2258.04 116.965C2262.22 115.226 2267.23 114.357 2273.06 114.357C2279.07 114.357 2284.13 115.25 2288.21 117.035C2292.35 118.774 2295.48 121.405 2297.59 124.929C2299.71 128.406 2300.76 132.729 2300.76 137.898V188.646H2291.32L2290.54 174.62C2287.63 180.399 2283.91 184.417 2279.4 186.672C2274.94 188.928 2270.07 190.055 2264.81 190.055ZM2267.91 181.809C2270.54 181.809 2273.15 181.339 2275.74 180.399C2278.37 179.459 2280.77 178.167 2282.93 176.523C2285.09 174.878 2286.83 173.045 2288.14 171.025C2289.46 169.004 2290.14 166.937 2290.19 164.822V151.854L2278.42 152.065C2272.26 152.159 2267.21 152.77 2263.26 153.898C2259.36 155.025 2256.44 156.764 2254.52 159.113C2252.64 161.416 2251.7 164.447 2251.7 168.206C2251.7 172.482 2253.2 175.818 2256.21 178.214C2259.22 180.611 2263.12 181.809 2267.91 181.809Z" fill="black"/>
<path d="M2336.37 115.766V188.646H2325.65V115.766H2336.37ZM2336.72 86.798V98.921H2325.16V86.798H2336.72Z" fill="black"/>
<path d="M2361.34 188.646V115.766H2371.92V126.409C2373.14 124.295 2374.81 122.345 2376.92 120.559C2379.09 118.774 2381.69 117.341 2384.75 116.26C2387.85 115.179 2391.33 114.639 2395.18 114.639C2399.88 114.639 2404.16 115.578 2408.01 117.458C2411.91 119.291 2415.02 122.157 2417.32 126.057C2419.62 129.957 2420.77 134.961 2420.77 141.07V188.646H2409.78V142.056C2409.78 135.854 2408.2 131.273 2405.05 128.312C2401.9 125.352 2397.74 123.872 2392.57 123.872C2389.05 123.872 2385.74 124.436 2382.63 125.564C2379.53 126.691 2377.04 128.406 2375.16 130.709C2373.28 133.011 2372.34 135.901 2372.34 139.378V188.646H2361.34Z" fill="black"/>
<path d="M1141.43 239.709C1148.48 239.709 1154.73 241.189 1160.19 244.149C1165.64 247.109 1170.01 251.033 1173.3 255.92C1176.59 260.806 1178.54 266.116 1179.15 271.849H1167.31C1166.51 267.761 1165 264.025 1162.79 260.642C1160.63 257.259 1157.74 254.557 1154.12 252.537C1150.5 250.516 1146.2 249.506 1141.22 249.506C1134.64 249.506 1129.1 251.033 1124.59 254.087C1120.12 257.141 1116.74 261.817 1114.43 268.113C1112.18 274.363 1111.05 282.327 1111.05 292.007C1111.05 306.573 1113.59 317.31 1118.66 324.217C1123.79 331.125 1131.31 334.578 1141.22 334.578C1146.2 334.578 1150.5 333.545 1154.12 331.477C1157.74 329.363 1160.63 326.59 1162.79 323.16C1165 319.683 1166.51 315.901 1167.31 311.813H1179.15C1178.63 315.995 1177.46 320.059 1175.63 324.006C1173.84 327.906 1171.37 331.407 1168.22 334.508C1165.12 337.562 1161.31 339.982 1156.8 341.768C1152.34 343.553 1147.21 344.446 1141.43 344.446C1132.36 344.446 1124.66 342.402 1118.31 338.314C1112.01 334.179 1107.2 328.212 1103.86 320.411C1100.52 312.564 1098.85 303.049 1098.85 291.866C1098.85 280.683 1100.5 271.214 1103.79 263.461C1107.13 255.708 1111.97 249.811 1118.31 245.77C1124.66 241.729 1132.36 239.709 1141.43 239.709Z" fill="black"/>
<path d="M1226.34 344.446C1219.76 344.446 1213.98 343.036 1209 340.217C1204.07 337.351 1200.23 333.122 1197.51 327.53C1194.78 321.939 1193.42 315.055 1193.42 306.879C1193.42 299.267 1194.67 292.594 1197.16 286.862C1199.69 281.129 1203.41 276.689 1208.3 273.54C1213.18 270.345 1219.22 268.748 1226.41 268.748C1232.99 268.748 1238.7 270.204 1243.54 273.117C1248.43 275.984 1252.21 280.26 1254.89 285.945C1257.62 291.584 1258.98 298.562 1258.98 306.879C1258.98 314.303 1257.76 320.834 1255.32 326.473C1252.87 332.112 1249.23 336.528 1244.39 339.724C1239.6 342.872 1233.58 344.446 1226.34 344.446ZM1226.41 335.565C1230.97 335.565 1234.85 334.437 1238.05 332.182C1241.29 329.927 1243.76 326.637 1245.45 322.314C1247.19 317.992 1248.06 312.752 1248.06 306.597C1248.06 301.052 1247.3 296.095 1245.8 291.725C1244.3 287.355 1241.95 283.925 1238.75 281.434C1235.55 278.897 1231.44 277.628 1226.41 277.628C1221.76 277.628 1217.79 278.756 1214.5 281.012C1211.26 283.22 1208.77 286.486 1207.03 290.809C1205.29 295.132 1204.42 300.394 1204.42 306.597C1204.42 312.141 1205.17 317.099 1206.67 321.469C1208.22 325.792 1210.62 329.222 1213.86 331.759C1217.11 334.297 1221.29 335.565 1226.41 335.565Z" fill="black"/>
<path d="M1276.9 343.036V270.157H1287.47V280.8C1289.4 277.558 1292.08 274.739 1295.51 272.342C1298.99 269.946 1303.55 268.748 1309.19 268.748C1311.91 268.748 1314.66 269.194 1317.43 270.087C1320.21 270.98 1322.75 272.319 1325.05 274.104C1327.35 275.89 1329.11 278.098 1330.34 280.73C1332.59 277.065 1335.65 274.151 1339.5 271.99C1343.35 269.828 1347.73 268.748 1352.61 268.748C1355.15 268.748 1357.78 269.123 1360.51 269.875C1363.28 270.627 1365.87 271.966 1368.26 273.893C1370.66 275.772 1372.59 278.474 1374.04 281.998C1375.55 285.475 1376.3 289.963 1376.3 295.461V343.036H1365.3V296.447C1365.3 291.607 1364.55 287.895 1363.05 285.311C1361.54 282.68 1359.59 280.847 1357.2 279.813C1354.8 278.78 1352.24 278.263 1349.51 278.263C1347.07 278.263 1344.48 278.733 1341.76 279.672C1339.08 280.565 1336.77 282.139 1334.85 284.395C1332.97 286.65 1332.03 289.775 1332.03 293.769V343.036H1321.03V292.077C1321.03 289.023 1320.21 286.486 1318.56 284.465C1316.96 282.398 1314.97 280.847 1312.57 279.813C1310.17 278.78 1307.78 278.263 1305.38 278.263C1302.75 278.263 1300.07 278.78 1297.34 279.813C1294.66 280.847 1292.41 282.515 1290.58 284.818C1288.79 287.12 1287.9 290.104 1287.9 293.769V343.036H1276.9Z" fill="black"/>
<path d="M1397.65 343.036V270.157H1408.23V280.8C1410.15 277.558 1412.83 274.739 1416.26 272.342C1419.74 269.946 1424.3 268.748 1429.94 268.748C1432.67 268.748 1435.42 269.194 1438.19 270.087C1440.96 270.98 1443.5 272.319 1445.8 274.104C1448.11 275.89 1449.87 278.098 1451.09 280.73C1453.35 277.065 1456.4 274.151 1460.25 271.99C1464.11 269.828 1468.48 268.748 1473.37 268.748C1475.9 268.748 1478.54 269.123 1481.26 269.875C1484.04 270.627 1486.62 271.966 1489.02 273.893C1491.41 275.772 1493.34 278.474 1494.8 281.998C1496.3 285.475 1497.05 289.963 1497.05 295.461V343.036H1486.06V296.447C1486.06 291.607 1485.3 287.895 1483.8 285.311C1482.3 282.68 1480.35 280.847 1477.95 279.813C1475.55 278.78 1472.99 278.263 1470.27 278.263C1467.82 278.263 1465.24 278.733 1462.51 279.672C1459.83 280.565 1457.53 282.139 1455.6 284.395C1453.72 286.65 1452.78 289.775 1452.78 293.769V343.036H1441.78V292.077C1441.78 289.023 1440.96 286.486 1439.32 284.465C1437.72 282.398 1435.72 280.847 1433.32 279.813C1430.93 278.78 1428.53 278.263 1426.13 278.263C1423.5 278.263 1420.82 278.78 1418.1 279.813C1415.42 280.847 1413.16 282.515 1411.33 284.818C1409.54 287.12 1408.65 290.104 1408.65 293.769V343.036H1397.65Z" fill="black"/>
<path d="M1543.96 344.446C1540.06 344.399 1536.41 343.859 1533.03 342.825C1529.65 341.744 1526.66 340.17 1524.08 338.103C1521.54 335.988 1519.54 333.38 1518.08 330.279C1516.67 327.131 1515.97 323.489 1515.97 319.354V270.157H1526.97V318.367C1526.97 323.489 1528.52 327.648 1531.62 330.843C1534.72 333.991 1539.49 335.565 1545.93 335.565C1551.66 335.565 1556.27 334.085 1559.75 331.125C1563.23 328.118 1564.96 323.583 1564.96 317.522V270.157H1575.89V343.036H1567.01L1565.88 329.222C1565.04 332.699 1563.55 335.565 1561.44 337.821C1559.37 340.076 1556.83 341.768 1553.83 342.895C1550.87 343.976 1547.58 344.493 1543.96 344.446Z" fill="black"/>
<path d="M1598.27 343.036V270.157H1608.84V280.8C1610.06 278.686 1611.73 276.736 1613.85 274.95C1616.01 273.164 1618.62 271.731 1621.67 270.651C1624.77 269.57 1628.25 269.029 1632.11 269.029C1636.81 269.029 1641.08 269.969 1644.94 271.849C1648.84 273.681 1651.94 276.548 1654.24 280.448C1656.54 284.348 1657.7 289.352 1657.7 295.461V343.036H1646.7V296.447C1646.7 290.245 1645.12 285.663 1641.98 282.703C1638.83 279.743 1634.67 278.263 1629.5 278.263C1625.97 278.263 1622.66 278.827 1619.56 279.954C1616.46 281.082 1613.96 282.797 1612.08 285.1C1610.2 287.402 1609.26 290.292 1609.26 293.769V343.036H1598.27Z" fill="black"/>
<path d="M1691.29 270.157V343.036H1680.57V270.157H1691.29ZM1691.64 241.189V253.312H1680.08V241.189H1691.64Z" fill="black"/>
<path d="M1743.78 268.748C1748.81 268.748 1753.37 269.687 1757.46 271.567C1761.55 273.446 1764.93 276.148 1767.61 279.672C1770.29 283.15 1772.01 287.355 1772.76 292.289H1762.68C1762.21 289.563 1761.15 287.12 1759.51 284.959C1757.86 282.75 1755.7 281.012 1753.02 279.743C1750.39 278.474 1747.33 277.84 1743.85 277.84C1737.23 277.84 1731.82 280.213 1727.64 284.959C1723.5 289.657 1721.44 296.917 1721.44 306.738C1721.44 315.525 1723.32 322.573 1727.08 327.883C1730.88 333.145 1736.52 335.777 1744 335.777C1747.47 335.777 1750.53 335.142 1753.16 333.874C1755.84 332.558 1758 330.819 1759.65 328.658C1761.29 326.449 1762.33 324.03 1762.75 321.398H1772.69C1771.98 326.191 1770.27 330.326 1767.54 333.803C1764.82 337.233 1761.41 339.865 1757.32 341.697C1753.28 343.53 1748.77 344.446 1743.78 344.446C1737.3 344.446 1731.56 343.036 1726.58 340.217C1721.6 337.398 1717.7 333.192 1714.88 327.601C1712.11 322.009 1710.72 315.078 1710.72 306.808C1710.72 299.243 1711.99 292.618 1714.53 286.932C1717.07 281.2 1720.78 276.736 1725.67 273.54C1730.6 270.345 1736.64 268.748 1743.78 268.748Z" fill="black"/>
<path d="M1810.3 344.446C1805.55 344.446 1801.39 343.624 1797.82 341.979C1794.25 340.288 1791.45 337.891 1789.43 334.79C1787.45 331.689 1786.47 327.953 1786.47 323.583C1786.47 315.501 1789.22 309.51 1794.72 305.61C1800.26 301.71 1809.21 299.596 1821.57 299.267L1835.67 298.844V292.782C1835.67 288.036 1834.22 284.254 1831.3 281.434C1828.44 278.568 1824 277.159 1817.98 277.205C1813.47 277.205 1809.54 278.263 1806.21 280.377C1802.92 282.445 1800.83 285.781 1799.93 290.386H1789.92C1790.2 285.828 1791.5 281.951 1793.8 278.756C1796.1 275.514 1799.34 273.047 1803.53 271.355C1807.71 269.617 1812.72 268.748 1818.54 268.748C1824.56 268.748 1829.61 269.64 1833.7 271.426C1837.84 273.164 1840.96 275.796 1843.08 279.32C1845.19 282.797 1846.25 287.12 1846.25 292.289V343.036H1836.8L1836.03 329.01C1833.11 334.79 1829.4 338.807 1824.89 341.063C1820.42 343.318 1815.56 344.446 1810.3 344.446ZM1813.4 336.2C1816.03 336.2 1818.64 335.73 1821.22 334.79C1823.85 333.85 1826.25 332.558 1828.41 330.913C1830.57 329.269 1832.31 327.436 1833.63 325.416C1834.95 323.395 1835.63 321.328 1835.67 319.213V306.244L1823.9 306.456C1817.74 306.55 1812.69 307.161 1808.74 308.288C1804.84 309.416 1801.93 311.155 1800 313.504C1798.12 315.807 1797.18 318.837 1797.18 322.596C1797.18 326.872 1798.69 330.209 1801.69 332.605C1804.7 335.001 1808.6 336.2 1813.4 336.2Z" fill="black"/>
<path d="M1901 278.404H1884.51V325.416C1884.51 328.235 1884.77 330.303 1885.28 331.618C1885.85 332.887 1886.81 333.709 1888.17 334.085C1889.58 334.414 1891.53 334.578 1894.02 334.578H1901.5V342.191C1900.6 342.52 1899.26 342.801 1897.48 343.036C1895.74 343.224 1893.65 343.318 1891.2 343.318C1886.55 343.318 1882.93 342.66 1880.35 341.345C1877.81 340.029 1876.02 338.079 1874.99 335.495C1873.96 332.91 1873.44 329.668 1873.44 325.768V278.404H1861.6V270.157H1873.72L1876.33 249.153H1884.51V270.087H1901V278.404Z" fill="black"/>
<path d="M1933.07 270.157V343.036H1922.36V270.157H1933.07ZM1933.43 241.189V253.312H1921.86V241.189H1933.43Z" fill="black"/>
<path d="M1985.43 344.446C1978.85 344.446 1973.07 343.036 1968.08 340.217C1963.15 337.351 1959.32 333.122 1956.59 327.53C1953.87 321.939 1952.5 315.055 1952.5 306.879C1952.5 299.267 1953.75 292.594 1956.24 286.862C1958.78 281.129 1962.49 276.689 1967.38 273.54C1972.27 270.345 1978.31 268.748 1985.5 268.748C1992.08 268.748 1997.79 270.204 2002.63 273.117C2007.52 275.984 2011.3 280.26 2013.98 285.945C2016.7 291.584 2018.07 298.562 2018.07 306.879C2018.07 314.303 2016.85 320.834 2014.4 326.473C2011.96 332.112 2008.31 336.528 2003.47 339.724C1998.68 342.872 1992.66 344.446 1985.43 344.446ZM1985.5 335.565C1990.06 335.565 1993.93 334.437 1997.13 332.182C2000.37 329.927 2002.84 326.637 2004.53 322.314C2006.27 317.992 2007.14 312.752 2007.14 306.597C2007.14 301.052 2006.39 296.095 2004.88 291.725C2003.38 287.355 2001.03 283.925 1997.83 281.434C1994.64 278.897 1990.53 277.628 1985.5 277.628C1980.84 277.628 1976.87 278.756 1973.58 281.012C1970.34 283.22 1967.85 286.486 1966.11 290.809C1964.37 295.132 1963.5 300.394 1963.5 306.597C1963.5 312.141 1964.25 317.099 1965.76 321.469C1967.31 325.792 1969.71 329.222 1972.95 331.759C1976.19 334.297 1980.37 335.565 1985.5 335.565Z" fill="black"/>
<path d="M2035.98 343.036V270.157H2046.56V280.8C2047.78 278.686 2049.45 276.736 2051.56 274.95C2053.73 273.164 2056.33 271.731 2059.39 270.651C2062.49 269.57 2065.97 269.029 2069.82 269.029C2074.52 269.029 2078.8 269.969 2082.65 271.849C2086.55 273.681 2089.66 276.548 2091.96 280.448C2094.26 284.348 2095.41 289.352 2095.41 295.461V343.036H2084.41V296.447C2084.41 290.245 2082.84 285.663 2079.69 282.703C2076.54 279.743 2072.38 278.263 2067.21 278.263C2063.69 278.263 2060.38 278.827 2057.27 279.954C2054.17 281.082 2051.68 282.797 2049.8 285.1C2047.92 287.402 2046.98 290.292 2046.98 293.769V343.036H2035.98Z" fill="black"/>
<path d="M1105.06 497.427V395.509H1138.68C1145.92 395.509 1152.36 396.731 1158 399.174C1163.69 401.571 1168.13 405.142 1171.32 409.888C1174.57 414.586 1176.19 420.413 1176.19 427.367C1176.19 434.181 1174.66 439.984 1171.61 444.777C1168.55 449.522 1164.32 453.141 1158.92 455.631C1153.56 458.121 1147.33 459.366 1140.24 459.366H1116.48V497.427H1105.06ZM1116.41 449.71H1140.02C1147.5 449.71 1153.56 447.666 1158.21 443.578C1162.91 439.49 1165.26 433.875 1165.26 426.733C1165.26 419.497 1162.87 414.07 1158.07 410.451C1153.28 406.833 1147 405.024 1139.25 405.024H1116.41V449.71Z" fill="black"/>
<path d="M1191.39 497.427V424.548H1201.83V437.728C1203.05 434.298 1204.76 431.526 1206.97 429.411C1209.23 427.25 1211.74 425.676 1214.52 424.689C1217.34 423.655 1220.18 423.138 1223.05 423.138C1224.22 423.138 1225.37 423.232 1226.5 423.42C1227.63 423.561 1228.52 423.82 1229.18 424.196V434.909C1228.43 434.533 1227.42 434.275 1226.15 434.134C1224.93 433.993 1223.89 433.922 1223.05 433.922C1220.46 433.781 1217.95 433.969 1215.5 434.486C1213.06 435.003 1210.83 435.919 1208.81 437.235C1206.83 438.551 1205.26 440.313 1204.08 442.521C1202.96 444.73 1202.39 447.431 1202.39 450.627V497.427H1191.39Z" fill="black"/>
<path d="M1271.78 498.837C1265.2 498.837 1259.42 497.427 1254.44 494.608C1249.5 491.742 1245.67 487.513 1242.95 481.921C1240.22 476.329 1238.86 469.446 1238.86 461.27C1238.86 453.657 1240.1 446.985 1242.59 441.252C1245.13 435.52 1248.85 431.079 1253.73 427.931C1258.62 424.736 1264.66 423.138 1271.85 423.138C1278.43 423.138 1284.14 424.595 1288.98 427.508C1293.87 430.375 1297.65 434.651 1300.33 440.336C1303.06 445.975 1304.42 452.953 1304.42 461.27C1304.42 468.694 1303.2 475.225 1300.75 480.864C1298.31 486.502 1294.67 490.919 1289.83 494.115C1285.03 497.263 1279.02 498.837 1271.78 498.837ZM1271.85 489.956C1276.41 489.956 1280.29 488.828 1283.48 486.573C1286.73 484.317 1289.19 481.028 1290.88 476.705C1292.62 472.382 1293.49 467.143 1293.49 460.988C1293.49 455.443 1292.74 450.486 1291.24 446.116C1289.73 441.746 1287.38 438.316 1284.19 435.825C1280.99 433.288 1276.88 432.019 1271.85 432.019C1267.2 432.019 1263.23 433.147 1259.94 435.402C1256.69 437.611 1254.2 440.877 1252.46 445.199C1250.72 449.522 1249.86 454.785 1249.86 460.988C1249.86 466.532 1250.61 471.49 1252.11 475.859C1253.66 480.182 1256.06 483.613 1259.3 486.15C1262.54 488.687 1266.73 489.956 1271.85 489.956Z" fill="black"/>
<path d="M1355.06 432.794H1338.57V479.807C1338.57 482.626 1338.82 484.693 1339.34 486.009C1339.91 487.278 1340.87 488.1 1342.23 488.476C1343.64 488.805 1345.59 488.969 1348.08 488.969H1355.56V496.581C1354.66 496.91 1353.32 497.192 1351.54 497.427C1349.8 497.615 1347.71 497.709 1345.26 497.709C1340.61 497.709 1336.99 497.051 1334.41 495.736C1331.87 494.42 1330.08 492.47 1329.05 489.886C1328.02 487.301 1327.5 484.059 1327.5 480.159V432.794H1315.65V424.548H1327.78L1330.39 403.544H1338.57V424.478H1355.06V432.794Z" fill="black"/>
<path d="M1401.35 498.837C1394.77 498.837 1388.99 497.427 1384 494.608C1379.07 491.742 1375.24 487.513 1372.51 481.921C1369.79 476.329 1368.42 469.446 1368.42 461.27C1368.42 453.657 1369.67 446.985 1372.16 441.252C1374.7 435.52 1378.41 431.079 1383.3 427.931C1388.19 424.736 1394.23 423.138 1401.42 423.138C1408 423.138 1413.71 424.595 1418.55 427.508C1423.44 430.375 1427.22 434.651 1429.9 440.336C1432.62 445.975 1433.99 452.953 1433.99 461.27C1433.99 468.694 1432.76 475.225 1430.32 480.864C1427.88 486.502 1424.23 490.919 1419.39 494.115C1414.6 497.263 1408.58 498.837 1401.35 498.837ZM1401.42 489.956C1405.98 489.956 1409.85 488.828 1413.05 486.573C1416.29 484.317 1418.76 481.028 1420.45 476.705C1422.19 472.382 1423.06 467.143 1423.06 460.988C1423.06 455.443 1422.31 450.486 1420.8 446.116C1419.3 441.746 1416.95 438.316 1413.75 435.825C1410.56 433.288 1406.45 432.019 1401.42 432.019C1396.76 432.019 1392.79 433.147 1389.5 435.402C1386.26 437.611 1383.77 440.877 1382.03 445.199C1380.29 449.522 1379.42 454.785 1379.42 460.988C1379.42 466.532 1380.17 471.49 1381.68 475.859C1383.23 480.182 1385.63 483.613 1388.87 486.15C1392.11 488.687 1396.29 489.956 1401.42 489.956Z" fill="black"/>
<path d="M1480.38 423.138C1485.41 423.138 1489.97 424.078 1494.06 425.958C1498.15 427.837 1501.53 430.539 1504.21 434.063C1506.89 437.54 1508.61 441.746 1509.36 446.68H1499.28C1498.81 443.954 1497.75 441.511 1496.1 439.349C1494.46 437.141 1492.3 435.402 1489.62 434.134C1486.99 432.865 1483.93 432.231 1480.45 432.231C1473.83 432.231 1468.42 434.604 1464.24 439.349C1460.1 444.048 1458.04 451.308 1458.04 461.129C1458.04 469.915 1459.92 476.964 1463.68 482.273C1467.48 487.536 1473.12 490.167 1480.6 490.167C1484.07 490.167 1487.13 489.533 1489.76 488.264C1492.44 486.949 1494.6 485.21 1496.25 483.049C1497.89 480.84 1498.92 478.42 1499.35 475.789H1509.29C1508.58 480.582 1506.87 484.717 1504.14 488.194C1501.42 491.624 1498.01 494.255 1493.92 496.088C1489.88 497.921 1485.37 498.837 1480.38 498.837C1473.9 498.837 1468.16 497.427 1463.18 494.608C1458.2 491.789 1454.3 487.583 1451.48 481.991C1448.71 476.4 1447.32 469.469 1447.32 461.199C1447.32 453.634 1448.59 447.009 1451.13 441.323C1453.67 435.59 1457.38 431.126 1462.27 427.931C1467.2 424.736 1473.24 423.138 1480.38 423.138Z" fill="black"/>
<path d="M1556.25 498.837C1549.67 498.837 1543.89 497.427 1538.91 494.608C1533.97 491.742 1530.14 487.513 1527.41 481.921C1524.69 476.329 1523.33 469.446 1523.33 461.27C1523.33 453.657 1524.57 446.985 1527.06 441.252C1529.6 435.52 1533.31 431.079 1538.2 427.931C1543.09 424.736 1549.13 423.138 1556.32 423.138C1562.9 423.138 1568.61 424.595 1573.45 427.508C1578.34 430.375 1582.12 434.651 1584.8 440.336C1587.52 445.975 1588.89 452.953 1588.89 461.27C1588.89 468.694 1587.67 475.225 1585.22 480.864C1582.78 486.502 1579.14 490.919 1574.29 494.115C1569.5 497.263 1563.49 498.837 1556.25 498.837ZM1556.32 489.956C1560.88 489.956 1564.75 488.828 1567.95 486.573C1571.19 484.317 1573.66 481.028 1575.35 476.705C1577.09 472.382 1577.96 467.143 1577.96 460.988C1577.96 455.443 1577.21 450.486 1575.7 446.116C1574.2 441.746 1571.85 438.316 1568.65 435.825C1565.46 433.288 1561.35 432.019 1556.32 432.019C1551.67 432.019 1547.69 433.147 1544.4 435.402C1541.16 437.611 1538.67 440.877 1536.93 445.199C1535.19 449.522 1534.32 454.785 1534.32 460.988C1534.32 466.532 1535.07 471.49 1536.58 475.859C1538.13 480.182 1540.53 483.613 1543.77 486.15C1547.01 488.687 1551.2 489.956 1556.32 489.956Z" fill="black"/>
<path d="M1623.86 498.203C1620.39 498.203 1617.52 497.709 1615.26 496.722C1613.05 495.689 1611.32 494.279 1610.05 492.493C1608.82 490.708 1607.98 488.664 1607.51 486.361C1607.04 484.059 1606.8 481.639 1606.8 479.102V392.69H1617.66V478.185C1617.66 482.179 1618.41 485.116 1619.92 486.996C1621.42 488.828 1623.39 489.815 1625.84 489.956L1629.93 490.026V497.216C1628.89 497.545 1627.84 497.78 1626.75 497.921C1625.67 498.109 1624.71 498.203 1623.86 498.203Z" fill="black"/>
<defs>
<clipPath id="clip0_1383_391">
<rect width="954.675" height="584" fill="white"/>
</clipPath>
</defs>
</svg>
