<svg width="1284" height="644" viewBox="0 0 1284 644" fill="none" xmlns="http://www.w3.org/2000/svg">
<mask id="mask0_1401_1687" style="mask-type:luminance" maskUnits="userSpaceOnUse" x="2" y="2" width="1280" height="640">
<path d="M1282 2H2V642H1282V2Z" fill="white"/>
</mask>
<g mask="url(#mask0_1401_1687)">
<mask id="mask1_1401_1687" style="mask-type:luminance" maskUnits="userSpaceOnUse" x="-33" y="2" width="1724" height="985">
<path d="M1691 2H-33V987H1691V2Z" fill="white"/>
</mask>
<g mask="url(#mask1_1401_1687)">
<path d="M145.243 420.524C229.585 420.524 297.958 351.076 297.958 265.408C297.958 179.739 229.585 110.291 145.243 110.291C60.9007 110.291 -7.47217 179.739 -7.47217 265.408C-7.47217 351.076 60.9007 420.524 145.243 420.524Z" fill="#1878FF" stroke="#1878FF" stroke-width="2" stroke-miterlimit="10"/>
<path d="M1021.73 588.965C1106.07 588.965 1174.44 519.517 1174.44 433.849C1174.44 348.18 1106.07 278.732 1021.73 278.732C937.386 278.732 869.014 348.18 869.014 433.849C869.014 519.517 937.386 588.965 1021.73 588.965Z" fill="#1878FF" stroke="#1878FF" stroke-width="2" stroke-miterlimit="10"/>
<path d="M1253.45 88.0107C1284.43 88.0107 1309.54 62.503 1309.54 31.0376C1309.54 -0.427803 1284.43 -25.9355 1253.45 -25.9355C1222.47 -25.9355 1197.36 -0.427803 1197.36 31.0376C1197.36 62.503 1222.47 88.0107 1253.45 88.0107Z" fill="#1878FF" stroke="#1878FF" stroke-width="2" stroke-miterlimit="10"/>
<path d="M191.284 637.14C363.896 670.312 530.301 555.072 562.959 379.746" stroke="#1878FF" stroke-width="2" stroke-miterlimit="10"/>
<path d="M1067.53 31.315C1079.28 -31.7734 1038.45 -92.5935 976.34 -104.529" stroke="#1878FF" stroke-width="2" stroke-miterlimit="10"/>
<path d="M1067.53 31.3152C1079.28 -31.7732 1139.16 -73.2399 1201.27 -61.304" stroke="#1878FF" stroke-width="2" stroke-miterlimit="10"/>
<path d="M1200.81 -61.3848C1238.02 -54.2335 1262.48 -17.794 1255.44 20.0045" stroke="#1878FF" stroke-width="2" stroke-miterlimit="10"/>
<path d="M563.367 379.825C590.054 236.556 726.032 142.388 867.082 169.494" stroke="#1878FF" stroke-width="2" stroke-miterlimit="10"/>
<path d="M563.307 379.813C589.994 236.544 497.283 98.428 356.233 71.3223" stroke="#1878FF" stroke-width="2" stroke-miterlimit="10"/>
<path d="M356.22 71.3117C262.985 53.3947 201.704 -37.9011 219.344 -132.602" stroke="#1878FF" stroke-width="2" stroke-miterlimit="10"/>
<path d="M356.219 71.3197C262.985 53.4027 173.102 115.647 155.463 210.349" stroke="#1878FF" stroke-width="2" stroke-miterlimit="10"/>
<path d="M866.861 169.451C960.095 187.368 1021.38 278.664 1003.74 373.364" stroke="#1878FF" stroke-width="2" stroke-miterlimit="10"/>
<path d="M866.862 169.443C960.097 187.36 1049.98 125.115 1067.62 30.4141" stroke="#1878FF" stroke-width="2" stroke-miterlimit="10"/>
<path d="M1159.26 489.332C1283.32 529.208 1415.72 459.377 1454.98 333.361C1494.24 207.345 1425.49 72.8635 1301.42 32.9883" stroke="#1878FF" stroke-width="2" stroke-miterlimit="10"/>
<path d="M865.568 -109.047C713.86 -103.626 595.203 25.6866 600.541 179.781C605.878 333.875 733.189 454.398 884.896 448.977" stroke="#1878FF" stroke-width="2" stroke-miterlimit="10"/>
<path d="M162.996 651.822C177.874 651.822 189.935 639.571 189.935 624.46C189.935 609.348 177.874 597.098 162.996 597.098C148.119 597.098 136.058 609.348 136.058 624.46C136.058 639.571 148.119 651.822 162.996 651.822Z" fill="#1878FF" stroke="#1878FF" stroke-width="2" stroke-miterlimit="10"/>
</g>
</g>
<path d="M2 1H1V2V642V643H2H1282H1283V642V2V1H1282H2Z" fill="#B5C9FF" fill-opacity="0.9" stroke="black" stroke-width="2"/>
<g clip-path="url(#clip0_1401_1687)">
<path d="M1031.75 421.271H1016V538.867H1031.75V421.271Z" fill="black"/>
<path d="M1090.38 495.968H1082.27C1065.52 495.968 1051.9 482.453 1051.9 465.838V421.234H1098.5C1115.25 421.234 1128.88 434.749 1128.88 451.365V463.029H1113.13V451.365C1113.13 443.367 1106.57 436.856 1098.5 436.856H1067.65V465.838C1067.65 473.835 1074.21 480.347 1082.27 480.347H1090.38V495.968ZM1130.45 508.635V494.6C1130.45 477.985 1116.83 464.47 1100.07 464.47H1090.38V480.091H1100.07C1108.14 480.091 1114.7 486.603 1114.7 494.6V508.635C1114.7 516.633 1108.14 523.144 1100.07 523.144H1067.65V496.99H1051.9V538.766H1100.07C1116.83 538.766 1130.45 525.251 1130.45 508.635Z" fill="black"/>
<path d="M1184.09 540.999H1181.47C1161.13 540.999 1144.57 524.575 1144.57 504.394V455.596C1144.57 435.414 1161.13 418.99 1181.47 418.99H1184.09C1204.44 418.99 1221 435.414 1221 455.596H1205.25C1205.25 444.032 1195.76 434.621 1184.1 434.621H1181.48C1169.82 434.621 1160.33 444.032 1160.33 455.596V504.394C1160.33 515.957 1169.82 525.369 1181.48 525.369H1184.1C1195.76 525.369 1205.25 515.957 1205.25 504.394H1221C1221 524.575 1204.44 540.999 1184.09 540.999Z" fill="black"/>
<path d="M1184.09 540.999H1181.47C1161.13 540.999 1144.57 524.575 1144.57 504.394V455.596C1144.57 435.414 1161.13 418.99 1181.47 418.99H1184.09C1204.44 418.99 1221 435.414 1221 455.596H1205.25C1205.25 444.032 1195.76 434.621 1184.1 434.621H1181.48C1169.82 434.621 1160.33 444.032 1160.33 455.596V504.394C1160.33 515.957 1169.82 525.369 1181.48 525.369H1184.1C1195.76 525.369 1205.25 515.957 1205.25 504.394H1221C1221 524.575 1204.44 540.999 1184.09 540.999Z" fill="black"/>
</g>
<path d="M45.568 371.368V366.728H80.032V371.368H65.76V413H60.736V371.368H45.568ZM86.6825 413V365.448H91.5145V384.776C92.0905 383.837 92.8585 382.963 93.8185 382.152C94.7998 381.341 95.9732 380.691 97.3385 380.2C98.7252 379.688 100.304 379.432 102.075 379.432C104.251 379.432 106.203 379.827 107.931 380.616C109.68 381.405 111.067 382.525 112.091 383.976C113.115 385.427 113.627 387.133 113.627 389.096V413H108.635V390.216C108.635 388.125 107.92 386.504 106.491 385.352C105.061 384.179 103.173 383.592 100.827 383.592C99.2265 383.592 97.7225 383.859 96.3145 384.392C94.9278 384.904 93.8078 385.683 92.9545 386.728C92.1012 387.752 91.6745 389.064 91.6745 390.664V413H86.6825ZM126.635 397.608C126.635 399.827 126.998 401.843 127.724 403.656C128.449 405.469 129.569 406.92 131.084 408.008C132.598 409.096 134.518 409.64 136.844 409.64C139.084 409.64 141.014 409.117 142.636 408.072C144.257 407.005 145.27 405.501 145.676 403.56H150.476C150.07 405.779 149.185 407.635 147.82 409.128C146.476 410.621 144.844 411.752 142.924 412.52C141.025 413.267 139.02 413.64 136.908 413.64C133.878 413.64 131.201 412.979 128.876 411.656C126.572 410.312 124.769 408.381 123.468 405.864C122.188 403.347 121.548 400.317 121.548 396.776C121.548 393.256 122.134 390.184 123.308 387.56C124.481 384.915 126.177 382.877 128.396 381.448C130.636 379.997 133.334 379.272 136.492 379.272C139.542 379.272 142.124 379.933 144.236 381.256C146.348 382.557 147.958 384.424 149.068 386.856C150.177 389.288 150.732 392.189 150.732 395.56V397.608H126.635ZM126.668 394.056H145.868C145.868 392.008 145.526 390.163 144.844 388.52C144.161 386.877 143.126 385.576 141.74 384.616C140.353 383.656 138.593 383.176 136.46 383.176C134.198 383.176 132.342 383.72 130.892 384.808C129.462 385.875 128.396 387.24 127.692 388.904C126.988 390.568 126.646 392.285 126.668 394.056ZM191.63 413.64C187.619 413.64 184.163 412.723 181.262 410.888C178.382 409.032 176.163 406.344 174.606 402.824C173.07 399.304 172.302 395.016 172.302 389.96C172.302 384.904 173.091 380.595 174.67 377.032C176.249 373.469 178.499 370.76 181.422 368.904C184.345 367.027 187.811 366.088 191.822 366.088C194.041 366.088 196.142 366.483 198.126 367.272C200.11 368.061 201.881 369.149 203.438 370.536C204.995 371.901 206.243 373.459 207.182 375.208C208.142 376.957 208.686 378.781 208.814 380.68H203.438C203.139 378.909 202.446 377.267 201.358 375.752C200.291 374.216 198.926 372.979 197.262 372.04C195.619 371.101 193.785 370.632 191.758 370.632C188.942 370.632 186.467 371.325 184.334 372.712C182.222 374.077 180.579 376.189 179.406 379.048C178.254 381.885 177.678 385.491 177.678 389.864C177.678 393.235 178.03 396.136 178.734 398.568C179.438 401 180.419 402.995 181.678 404.552C182.937 406.088 184.43 407.229 186.158 407.976C187.907 408.701 189.817 409.064 191.886 409.064C193.955 409.064 195.758 408.701 197.294 407.976C198.83 407.229 200.11 406.269 201.134 405.096C202.158 403.923 202.937 402.664 203.47 401.32C204.003 399.955 204.291 398.653 204.334 397.416L204.462 392.968H192.75V389.192L209.614 389.224V413H205.71V405.672C204.899 407.08 203.854 408.392 202.574 409.608C201.315 410.803 199.779 411.773 197.966 412.52C196.174 413.267 194.062 413.64 191.63 413.64ZM233.172 413.64C230.185 413.64 227.561 413 225.3 411.72C223.06 410.419 221.321 408.499 220.084 405.96C218.846 403.421 218.228 400.296 218.228 396.584C218.228 393.128 218.793 390.099 219.924 387.496C221.076 384.893 222.761 382.877 224.98 381.448C227.198 379.997 229.94 379.272 233.204 379.272C236.19 379.272 238.782 379.933 240.98 381.256C243.198 382.557 244.916 384.499 246.132 387.08C247.369 389.64 247.988 392.808 247.988 396.584C247.988 399.955 247.433 402.92 246.324 405.48C245.214 408.04 243.561 410.045 241.364 411.496C239.188 412.925 236.457 413.64 233.172 413.64ZM233.204 409.608C235.273 409.608 237.033 409.096 238.484 408.072C239.956 407.048 241.076 405.555 241.844 403.592C242.633 401.629 243.028 399.251 243.028 396.456C243.028 393.939 242.686 391.688 242.004 389.704C241.321 387.72 240.254 386.163 238.804 385.032C237.353 383.88 235.486 383.304 233.204 383.304C231.092 383.304 229.289 383.816 227.796 384.84C226.324 385.843 225.193 387.325 224.404 389.288C223.614 391.251 223.22 393.64 223.22 396.456C223.22 398.973 223.561 401.224 224.244 403.208C224.948 405.171 226.036 406.728 227.508 407.88C228.98 409.032 230.878 409.608 233.204 409.608ZM263.864 413.352C262.285 413.352 260.984 413.128 259.96 412.68C258.957 412.211 258.168 411.571 257.592 410.76C257.037 409.949 256.653 409.021 256.44 407.976C256.227 406.931 256.12 405.832 256.12 404.68V365.448H261.048V404.264C261.048 406.077 261.389 407.411 262.072 408.264C262.755 409.096 263.651 409.544 264.76 409.608L266.616 409.64V412.904C266.147 413.053 265.667 413.16 265.176 413.224C264.685 413.309 264.248 413.352 263.864 413.352ZM283.426 413.64C281.271 413.64 279.383 413.267 277.762 412.52C276.141 411.752 274.871 410.664 273.954 409.256C273.058 407.848 272.61 406.152 272.61 404.168C272.61 400.499 273.858 397.779 276.354 396.008C278.871 394.237 282.935 393.277 288.546 393.128L294.946 392.936V390.184C294.946 388.029 294.285 386.312 292.962 385.032C291.661 383.731 289.645 383.091 286.914 383.112C284.866 383.112 283.085 383.592 281.57 384.552C280.077 385.491 279.127 387.005 278.722 389.096H274.178C274.306 387.027 274.893 385.267 275.938 383.816C276.983 382.344 278.455 381.224 280.354 380.456C282.253 379.667 284.525 379.272 287.17 379.272C289.901 379.272 292.194 379.677 294.05 380.488C295.927 381.277 297.346 382.472 298.306 384.072C299.266 385.651 299.746 387.613 299.746 389.96V413H295.458L295.106 406.632C293.783 409.256 292.098 411.08 290.05 412.104C288.023 413.128 285.815 413.64 283.426 413.64ZM284.834 409.896C286.029 409.896 287.213 409.683 288.386 409.256C289.581 408.829 290.669 408.243 291.65 407.496C292.631 406.749 293.421 405.917 294.018 405C294.615 404.083 294.925 403.144 294.946 402.184V396.296L289.602 396.392C286.807 396.435 284.514 396.712 282.722 397.224C280.951 397.736 279.629 398.525 278.754 399.592C277.901 400.637 277.474 402.013 277.474 403.72C277.474 405.661 278.157 407.176 279.522 408.264C280.887 409.352 282.658 409.896 284.834 409.896ZM310.308 413V379.912H315.108V384.744C315.662 383.784 316.42 382.899 317.38 382.088C318.361 381.277 319.545 380.627 320.932 380.136C322.34 379.645 323.918 379.4 325.668 379.4C327.801 379.4 329.742 379.827 331.492 380.68C333.262 381.512 334.67 382.813 335.716 384.584C336.761 386.355 337.284 388.627 337.284 391.4V413H332.292V391.848C332.292 389.032 331.577 386.952 330.148 385.608C328.718 384.264 326.83 383.592 324.484 383.592C322.884 383.592 321.38 383.848 319.972 384.36C318.564 384.872 317.433 385.651 316.58 386.696C315.726 387.741 315.3 389.053 315.3 390.632V413H310.308ZM360.533 423.944C355.519 423.944 351.583 423.187 348.725 421.672C345.887 420.179 344.469 417.981 344.469 415.08C344.469 413.864 344.735 412.829 345.269 411.976C345.823 411.101 346.474 410.376 347.221 409.8C347.989 409.224 348.703 408.765 349.365 408.424C350.026 408.061 350.463 407.795 350.677 407.624C350.293 407.389 349.845 407.123 349.333 406.824C348.821 406.504 348.373 406.099 347.989 405.608C347.626 405.096 347.445 404.445 347.445 403.656C347.445 402.653 347.914 401.736 348.853 400.904C349.791 400.051 351.189 399.411 353.045 398.984C351.167 398.003 349.685 396.723 348.597 395.144C347.53 393.544 346.997 391.795 346.997 389.896C346.997 387.763 347.541 385.907 348.629 384.328C349.738 382.749 351.338 381.533 353.429 380.68C355.519 379.827 358.058 379.4 361.045 379.4C363.157 379.4 364.949 379.656 366.421 380.168C367.893 380.659 369.258 381.384 370.517 382.344C370.837 382.195 371.349 381.971 372.053 381.672C372.778 381.373 373.578 381.053 374.453 380.712C375.327 380.349 376.138 380.008 376.885 379.688C377.653 379.368 378.229 379.123 378.613 378.952V383.944L372.789 385.096C373.151 385.821 373.439 386.611 373.653 387.464C373.866 388.296 373.972 389.096 373.972 389.864C373.972 391.827 373.482 393.597 372.501 395.176C371.519 396.733 370.026 397.96 368.021 398.856C366.037 399.752 363.53 400.2 360.501 400.2C360.287 400.2 360.021 400.2 359.701 400.2C359.381 400.2 359.103 400.189 358.869 400.168C356.33 400.232 354.581 400.52 353.621 401.032C352.682 401.523 352.213 402.045 352.213 402.6C352.213 403.24 352.693 403.699 353.653 403.976C354.613 404.232 356.287 404.445 358.677 404.616C359.551 404.659 360.597 404.712 361.812 404.776C363.05 404.84 364.426 404.925 365.941 405.032C369.247 405.224 371.818 406.077 373.653 407.592C375.509 409.107 376.437 411.197 376.437 413.864C376.437 416.829 375.125 419.251 372.501 421.128C369.898 423.005 365.909 423.944 360.533 423.944ZM361.461 420.52C364.639 420.52 367.114 420.019 368.885 419.016C370.655 418.035 371.541 416.531 371.541 414.504C371.541 413.096 371.018 411.944 369.973 411.048C368.927 410.131 367.349 409.597 365.237 409.448L355.477 408.84C354.687 408.797 353.823 409.021 352.885 409.512C351.946 409.981 351.135 410.653 350.453 411.528C349.791 412.403 349.461 413.395 349.461 414.504C349.461 416.381 350.431 417.853 352.373 418.92C354.335 419.987 357.365 420.52 361.461 420.52ZM360.661 396.808C363.199 396.808 365.247 396.232 366.805 395.08C368.383 393.928 369.173 392.2 369.173 389.896C369.173 387.528 368.383 385.736 366.805 384.52C365.247 383.304 363.199 382.696 360.661 382.696C358.058 382.696 355.957 383.315 354.357 384.552C352.778 385.768 351.989 387.549 351.989 389.896C351.989 392.093 352.735 393.8 354.229 395.016C355.743 396.211 357.887 396.808 360.661 396.808ZM407.22 379.912V413H402.356V379.912H407.22ZM407.38 366.76V372.264H402.132V366.76H407.38ZM418.558 413V379.912H423.358V384.744C424.232 383.272 425.448 381.992 427.006 380.904C428.584 379.816 430.654 379.272 433.214 379.272C434.451 379.272 435.699 379.475 436.958 379.88C438.216 380.285 439.368 380.893 440.414 381.704C441.459 382.515 442.259 383.517 442.814 384.712C443.838 383.048 445.224 381.725 446.974 380.744C448.723 379.763 450.707 379.272 452.926 379.272C454.078 379.272 455.272 379.443 456.51 379.784C457.768 380.125 458.942 380.733 460.03 381.608C461.118 382.461 461.992 383.688 462.654 385.288C463.336 386.867 463.678 388.904 463.678 391.4V413H458.686V391.848C458.686 389.651 458.344 387.965 457.662 386.792C456.979 385.597 456.094 384.765 455.006 384.296C453.918 383.827 452.755 383.592 451.518 383.592C450.408 383.592 449.235 383.805 447.998 384.232C446.782 384.637 445.736 385.352 444.862 386.376C444.008 387.4 443.582 388.819 443.582 390.632V413H438.59V389.864C438.59 388.477 438.216 387.325 437.47 386.408C436.744 385.469 435.838 384.765 434.75 384.296C433.662 383.827 432.574 383.592 431.486 383.592C430.291 383.592 429.075 383.827 427.838 384.296C426.622 384.765 425.598 385.523 424.766 386.568C423.955 387.613 423.55 388.968 423.55 390.632V413H418.558ZM473.37 423.304V379.912H478.33L478.426 385.96C478.746 385.299 479.194 384.584 479.77 383.816C480.367 383.048 481.114 382.323 482.01 381.64C482.906 380.936 483.962 380.371 485.178 379.944C486.415 379.496 487.834 379.272 489.434 379.272C492.122 379.272 494.49 379.869 496.538 381.064C498.586 382.259 500.175 384.093 501.306 386.568C502.458 389.043 503.034 392.179 503.034 395.976C503.034 399.688 502.49 402.867 501.402 405.512C500.335 408.136 498.767 410.152 496.698 411.56C494.629 412.947 492.101 413.64 489.114 413.64C487.514 413.64 486.117 413.416 484.922 412.968C483.727 412.52 482.703 411.933 481.85 411.208C480.997 410.483 480.293 409.736 479.738 408.968C479.183 408.179 478.735 407.432 478.394 406.728V423.304H473.37ZM488.282 409.64C491.205 409.64 493.573 408.541 495.386 406.344C497.221 404.147 498.138 400.755 498.138 396.168C498.138 392.243 497.306 389.117 495.642 386.792C493.999 384.445 491.546 383.272 488.282 383.272C485.039 383.272 482.565 384.456 480.858 386.824C479.173 389.192 478.33 392.307 478.33 396.168C478.33 398.685 478.703 400.968 479.45 403.016C480.218 405.043 481.338 406.653 482.81 407.848C484.282 409.043 486.106 409.64 488.282 409.64ZM518.927 413.352C517.348 413.352 516.047 413.128 515.023 412.68C514.02 412.211 513.231 411.571 512.655 410.76C512.1 409.949 511.716 409.021 511.503 407.976C511.289 406.931 511.183 405.832 511.183 404.68V365.448H516.111V404.264C516.111 406.077 516.452 407.411 517.135 408.264C517.817 409.096 518.713 409.544 519.823 409.608L521.679 409.64V412.904C521.209 413.053 520.729 413.16 520.239 413.224C519.748 413.309 519.311 413.352 518.927 413.352ZM532.51 397.608C532.51 399.827 532.873 401.843 533.599 403.656C534.324 405.469 535.444 406.92 536.959 408.008C538.473 409.096 540.393 409.64 542.719 409.64C544.959 409.64 546.889 409.117 548.511 408.072C550.132 407.005 551.145 405.501 551.551 403.56H556.351C555.945 405.779 555.06 407.635 553.695 409.128C552.351 410.621 550.719 411.752 548.799 412.52C546.9 413.267 544.895 413.64 542.783 413.64C539.753 413.64 537.076 412.979 534.751 411.656C532.447 410.312 530.644 408.381 529.343 405.864C528.063 403.347 527.423 400.317 527.423 396.776C527.423 393.256 528.009 390.184 529.183 387.56C530.356 384.915 532.052 382.877 534.271 381.448C536.511 379.997 539.209 379.272 542.367 379.272C545.417 379.272 547.999 379.933 550.111 381.256C552.223 382.557 553.833 384.424 554.943 386.856C556.052 389.288 556.607 392.189 556.607 395.56V397.608H532.51ZM532.543 394.056H551.743C551.743 392.008 551.401 390.163 550.719 388.52C550.036 386.877 549.001 385.576 547.615 384.616C546.228 383.656 544.468 383.176 542.335 383.176C540.073 383.176 538.217 383.72 536.767 384.808C535.337 385.875 534.271 387.24 533.567 388.904C532.863 390.568 532.521 392.285 532.543 394.056ZM565.12 413V379.912H569.92V384.744C570.795 383.272 572.011 381.992 573.568 380.904C575.147 379.816 577.216 379.272 579.776 379.272C581.013 379.272 582.261 379.475 583.52 379.88C584.779 380.285 585.931 380.893 586.976 381.704C588.021 382.515 588.821 383.517 589.376 384.712C590.4 383.048 591.787 381.725 593.536 380.744C595.285 379.763 597.269 379.272 599.488 379.272C600.64 379.272 601.835 379.443 603.072 379.784C604.331 380.125 605.504 380.733 606.592 381.608C607.68 382.461 608.555 383.688 609.216 385.288C609.899 386.867 610.24 388.904 610.24 391.4V413H605.248V391.848C605.248 389.651 604.907 387.965 604.224 386.792C603.541 385.597 602.656 384.765 601.568 384.296C600.48 383.827 599.317 383.592 598.08 383.592C596.971 383.592 595.797 383.805 594.56 384.232C593.344 384.637 592.299 385.352 591.424 386.376C590.571 387.4 590.144 388.819 590.144 390.632V413H585.152V389.864C585.152 388.477 584.779 387.325 584.032 386.408C583.307 385.469 582.4 384.765 581.312 384.296C580.224 383.827 579.136 383.592 578.048 383.592C576.853 383.592 575.637 383.827 574.4 384.296C573.184 384.765 572.16 385.523 571.328 386.568C570.517 387.613 570.112 388.968 570.112 390.632V413H565.12ZM623.26 397.608C623.26 399.827 623.623 401.843 624.349 403.656C625.074 405.469 626.194 406.92 627.709 408.008C629.223 409.096 631.143 409.64 633.469 409.64C635.709 409.64 637.639 409.117 639.261 408.072C640.882 407.005 641.895 405.501 642.301 403.56H647.101C646.695 405.779 645.81 407.635 644.445 409.128C643.101 410.621 641.469 411.752 639.549 412.52C637.65 413.267 635.645 413.64 633.533 413.64C630.503 413.64 627.826 412.979 625.501 411.656C623.197 410.312 621.394 408.381 620.093 405.864C618.813 403.347 618.173 400.317 618.173 396.776C618.173 393.256 618.759 390.184 619.933 387.56C621.106 384.915 622.802 382.877 625.021 381.448C627.261 379.997 629.959 379.272 633.117 379.272C636.167 379.272 638.749 379.933 640.861 381.256C642.973 382.557 644.583 384.424 645.693 386.856C646.802 389.288 647.357 392.189 647.357 395.56V397.608H623.26ZM623.293 394.056H642.493C642.493 392.008 642.151 390.163 641.469 388.52C640.786 386.877 639.751 385.576 638.365 384.616C636.978 383.656 635.218 383.176 633.085 383.176C630.823 383.176 628.967 383.72 627.517 384.808C626.087 385.875 625.021 387.24 624.317 388.904C623.613 390.568 623.271 392.285 623.293 394.056ZM655.87 413V379.912H660.67V384.744C661.225 383.784 661.982 382.899 662.942 382.088C663.923 381.277 665.107 380.627 666.494 380.136C667.902 379.645 669.481 379.4 671.23 379.4C673.363 379.4 675.305 379.827 677.054 380.68C678.825 381.512 680.233 382.813 681.278 384.584C682.323 386.355 682.846 388.627 682.846 391.4V413H677.854V391.848C677.854 389.032 677.139 386.952 675.71 385.608C674.281 384.264 672.393 383.592 670.046 383.592C668.446 383.592 666.942 383.848 665.534 384.36C664.126 384.872 662.995 385.651 662.142 386.696C661.289 387.741 660.862 389.053 660.862 390.632V413H655.87ZM706.788 383.656H699.3V405C699.3 406.28 699.417 407.219 699.652 407.816C699.908 408.392 700.345 408.765 700.964 408.936C701.604 409.085 702.489 409.16 703.62 409.16H707.012V412.616C706.606 412.765 705.998 412.893 705.188 413C704.398 413.085 703.449 413.128 702.34 413.128C700.228 413.128 698.585 412.829 697.412 412.232C696.26 411.635 695.449 410.749 694.98 409.576C694.51 408.403 694.276 406.931 694.276 405.16V383.656H688.9V379.912H694.404L695.588 370.376H699.3V379.88H706.788V383.656ZM724.551 413.64C722.396 413.64 720.508 413.267 718.887 412.52C717.266 411.752 715.996 410.664 715.079 409.256C714.183 407.848 713.735 406.152 713.735 404.168C713.735 400.499 714.983 397.779 717.479 396.008C719.996 394.237 724.06 393.277 729.671 393.128L736.071 392.936V390.184C736.071 388.029 735.41 386.312 734.087 385.032C732.786 383.731 730.77 383.091 728.039 383.112C725.991 383.112 724.21 383.592 722.695 384.552C721.202 385.491 720.252 387.005 719.847 389.096H715.303C715.431 387.027 716.018 385.267 717.063 383.816C718.108 382.344 719.58 381.224 721.479 380.456C723.378 379.667 725.65 379.272 728.295 379.272C731.026 379.272 733.319 379.677 735.175 380.488C737.052 381.277 738.471 382.472 739.431 384.072C740.391 385.651 740.871 387.613 740.871 389.96V413H736.583L736.231 406.632C734.908 409.256 733.223 411.08 731.175 412.104C729.148 413.128 726.94 413.64 724.551 413.64ZM725.959 409.896C727.154 409.896 728.338 409.683 729.511 409.256C730.706 408.829 731.794 408.243 732.775 407.496C733.756 406.749 734.546 405.917 735.143 405C735.74 404.083 736.05 403.144 736.071 402.184V396.296L730.727 396.392C727.932 396.435 725.639 396.712 723.847 397.224C722.076 397.736 720.754 398.525 719.879 399.592C719.026 400.637 718.599 402.013 718.599 403.72C718.599 405.661 719.282 407.176 720.647 408.264C722.012 409.352 723.783 409.896 725.959 409.896ZM765.725 383.656H758.237V405C758.237 406.28 758.354 407.219 758.589 407.816C758.845 408.392 759.282 408.765 759.901 408.936C760.541 409.085 761.426 409.16 762.557 409.16H765.949V412.616C765.544 412.765 764.936 412.893 764.125 413C763.336 413.085 762.386 413.128 761.277 413.128C759.165 413.128 757.522 412.829 756.349 412.232C755.197 411.635 754.386 410.749 753.917 409.576C753.448 408.403 753.213 406.931 753.213 405.16V383.656H747.837V379.912H753.341L754.525 370.376H758.237V379.88H765.725V383.656ZM780.283 379.912V413H775.419V379.912H780.283ZM780.443 366.76V372.264H775.195V366.76H780.443ZM804.047 413.64C801.06 413.64 798.436 413 796.175 411.72C793.935 410.419 792.196 408.499 790.959 405.96C789.721 403.421 789.103 400.296 789.103 396.584C789.103 393.128 789.668 390.099 790.799 387.496C791.951 384.893 793.636 382.877 795.855 381.448C798.073 379.997 800.815 379.272 804.079 379.272C807.065 379.272 809.657 379.933 811.855 381.256C814.073 382.557 815.791 384.499 817.007 387.08C818.244 389.64 818.863 392.808 818.863 396.584C818.863 399.955 818.308 402.92 817.199 405.48C816.089 408.04 814.436 410.045 812.239 411.496C810.063 412.925 807.332 413.64 804.047 413.64ZM804.079 409.608C806.148 409.608 807.908 409.096 809.359 408.072C810.831 407.048 811.951 405.555 812.719 403.592C813.508 401.629 813.903 399.251 813.903 396.456C813.903 393.939 813.561 391.688 812.879 389.704C812.196 387.72 811.129 386.163 809.679 385.032C808.228 383.88 806.361 383.304 804.079 383.304C801.967 383.304 800.164 383.816 798.671 384.84C797.199 385.843 796.068 387.325 795.279 389.288C794.489 391.251 794.095 393.64 794.095 396.456C794.095 398.973 794.436 401.224 795.119 403.208C795.823 405.171 796.911 406.728 798.383 407.88C799.855 409.032 801.753 409.608 804.079 409.608ZM826.995 413V379.912H831.795V384.744C832.35 383.784 833.107 382.899 834.067 382.088C835.048 381.277 836.232 380.627 837.619 380.136C839.027 379.645 840.606 379.4 842.355 379.4C844.488 379.4 846.43 379.827 848.179 380.68C849.95 381.512 851.358 382.813 852.403 384.584C853.448 386.355 853.971 388.627 853.971 391.4V413H848.979V391.848C848.979 389.032 848.264 386.952 846.835 385.608C845.406 384.264 843.518 383.592 841.171 383.592C839.571 383.592 838.067 383.848 836.659 384.36C835.251 384.872 834.12 385.651 833.267 386.696C832.414 387.741 831.987 389.053 831.987 390.632V413H826.995ZM61.984 477.64C58.9973 477.64 56.3733 477 54.112 475.72C51.872 474.419 50.1333 472.499 48.896 469.96C47.6587 467.421 47.04 464.296 47.04 460.584C47.04 457.128 47.6053 454.099 48.736 451.496C49.888 448.893 51.5733 446.877 53.792 445.448C56.0107 443.997 58.752 443.272 62.016 443.272C65.0027 443.272 67.5947 443.933 69.792 445.256C72.0107 446.557 73.728 448.499 74.944 451.08C76.1813 453.64 76.8 456.808 76.8 460.584C76.8 463.955 76.2453 466.92 75.136 469.48C74.0267 472.04 72.3733 474.045 70.176 475.496C68 476.925 65.2693 477.64 61.984 477.64ZM62.016 473.608C64.0853 473.608 65.8453 473.096 67.296 472.072C68.768 471.048 69.888 469.555 70.656 467.592C71.4453 465.629 71.84 463.251 71.84 460.456C71.84 457.939 71.4987 455.688 70.816 453.704C70.1333 451.72 69.0667 450.163 67.616 449.032C66.1653 447.88 64.2987 447.304 62.016 447.304C59.904 447.304 58.1013 447.816 56.608 448.84C55.136 449.843 54.0053 451.325 53.216 453.288C52.4267 455.251 52.032 457.64 52.032 460.456C52.032 462.973 52.3733 465.224 53.056 467.208C53.76 469.171 54.848 470.728 56.32 471.88C57.792 473.032 59.6907 473.608 62.016 473.608ZM101.83 443.912V447.656H93.5095V477H88.5175V447.656H81.2855V443.912H88.5175V438.664C88.5175 436.061 89.1575 434.088 90.4375 432.744C91.7175 431.4 93.6695 430.728 96.2935 430.728H102.15V434.376H97.0615C95.6535 434.376 94.6935 434.76 94.1815 435.528C93.6908 436.275 93.4455 437.405 93.4455 438.92V443.912H101.83ZM140.725 447.656H133.237V469C133.237 470.28 133.354 471.219 133.589 471.816C133.845 472.392 134.282 472.765 134.901 472.936C135.541 473.085 136.426 473.16 137.557 473.16H140.949V476.616C140.544 476.765 139.936 476.893 139.125 477C138.336 477.085 137.386 477.128 136.277 477.128C134.165 477.128 132.522 476.829 131.349 476.232C130.197 475.635 129.386 474.749 128.917 473.576C128.448 472.403 128.213 470.931 128.213 469.16V447.656H122.837V443.912H128.341L129.525 434.376H133.237V443.88H140.725V447.656ZM149.683 477V429.448H154.515V448.776C155.091 447.837 155.859 446.963 156.819 446.152C157.8 445.341 158.973 444.691 160.339 444.2C161.725 443.688 163.304 443.432 165.075 443.432C167.251 443.432 169.203 443.827 170.931 444.616C172.68 445.405 174.067 446.525 175.091 447.976C176.115 449.427 176.627 451.133 176.627 453.096V477H171.635V454.216C171.635 452.125 170.92 450.504 169.491 449.352C168.061 448.179 166.173 447.592 163.827 447.592C162.227 447.592 160.723 447.859 159.315 448.392C157.928 448.904 156.808 449.683 155.955 450.728C155.101 451.752 154.675 453.064 154.675 454.664V477H149.683ZM189.635 461.608C189.635 463.827 189.998 465.843 190.724 467.656C191.449 469.469 192.569 470.92 194.084 472.008C195.598 473.096 197.518 473.64 199.844 473.64C202.084 473.64 204.014 473.117 205.636 472.072C207.257 471.005 208.27 469.501 208.676 467.56H213.476C213.07 469.779 212.185 471.635 210.82 473.128C209.476 474.621 207.844 475.752 205.924 476.52C204.025 477.267 202.02 477.64 199.908 477.64C196.878 477.64 194.201 476.979 191.876 475.656C189.572 474.312 187.769 472.381 186.468 469.864C185.188 467.347 184.548 464.317 184.548 460.776C184.548 457.256 185.134 454.184 186.308 451.56C187.481 448.915 189.177 446.877 191.396 445.448C193.636 443.997 196.334 443.272 199.492 443.272C202.542 443.272 205.124 443.933 207.236 445.256C209.348 446.557 210.958 448.424 212.068 450.856C213.177 453.288 213.732 456.189 213.732 459.56V461.608H189.635ZM189.668 458.056H208.868C208.868 456.008 208.526 454.163 207.844 452.52C207.161 450.877 206.126 449.576 204.74 448.616C203.353 447.656 201.593 447.176 199.46 447.176C197.198 447.176 195.342 447.72 193.892 448.808C192.462 449.875 191.396 451.24 190.692 452.904C189.988 454.568 189.646 456.285 189.668 458.056ZM238.118 430.728H243.11V477H238.118V430.728ZM254.558 477V443.912H259.358V448.744C259.912 447.784 260.67 446.899 261.63 446.088C262.611 445.277 263.795 444.627 265.182 444.136C266.59 443.645 268.168 443.4 269.918 443.4C272.051 443.4 273.992 443.827 275.742 444.68C277.512 445.512 278.92 446.813 279.966 448.584C281.011 450.355 281.534 452.627 281.534 455.4V477H276.542V455.848C276.542 453.032 275.827 450.952 274.398 449.608C272.968 448.264 271.08 447.592 268.734 447.592C267.134 447.592 265.63 447.848 264.222 448.36C262.814 448.872 261.683 449.651 260.83 450.696C259.976 451.741 259.55 453.053 259.55 454.632V477H254.558ZM305.475 447.656H297.987V469C297.987 470.28 298.104 471.219 298.339 471.816C298.595 472.392 299.032 472.765 299.651 472.936C300.291 473.085 301.176 473.16 302.307 473.16H305.699V476.616C305.294 476.765 304.686 476.893 303.875 477C303.086 477.085 302.136 477.128 301.027 477.128C298.915 477.128 297.272 476.829 296.099 476.232C294.947 475.635 294.136 474.749 293.667 473.576C293.198 472.403 292.963 470.931 292.963 469.16V447.656H287.587V443.912H293.091L294.275 434.376H297.987V443.88H305.475V447.656ZM316.948 461.608C316.948 463.827 317.311 465.843 318.036 467.656C318.761 469.469 319.881 470.92 321.396 472.008C322.911 473.096 324.831 473.64 327.156 473.64C329.396 473.64 331.327 473.117 332.948 472.072C334.569 471.005 335.583 469.501 335.988 467.56H340.788C340.383 469.779 339.497 471.635 338.132 473.128C336.788 474.621 335.156 475.752 333.236 476.52C331.337 477.267 329.332 477.64 327.22 477.64C324.191 477.64 321.513 476.979 319.188 475.656C316.884 474.312 315.081 472.381 313.78 469.864C312.5 467.347 311.86 464.317 311.86 460.776C311.86 457.256 312.447 454.184 313.62 451.56C314.793 448.915 316.489 446.877 318.708 445.448C320.948 443.997 323.647 443.272 326.804 443.272C329.855 443.272 332.436 443.933 334.548 445.256C336.66 446.557 338.271 448.424 339.38 450.856C340.489 453.288 341.044 456.189 341.044 459.56V461.608H316.948ZM316.98 458.056H336.18C336.18 456.008 335.839 454.163 335.156 452.52C334.473 450.877 333.439 449.576 332.052 448.616C330.665 447.656 328.905 447.176 326.772 447.176C324.511 447.176 322.655 447.72 321.204 448.808C319.775 449.875 318.708 451.24 318.004 452.904C317.3 454.568 316.959 456.285 316.98 458.056ZM349.558 477V443.912H354.294V449.896C354.848 448.339 355.627 447.08 356.63 446.12C357.654 445.139 358.795 444.424 360.054 443.976C361.334 443.507 362.624 443.272 363.926 443.272C364.459 443.272 364.982 443.315 365.494 443.4C366.006 443.464 366.411 443.581 366.71 443.752V448.616C366.368 448.445 365.91 448.328 365.334 448.264C364.779 448.2 364.31 448.168 363.926 448.168C362.752 448.104 361.611 448.189 360.502 448.424C359.392 448.659 358.379 449.075 357.462 449.672C356.566 450.269 355.851 451.069 355.318 452.072C354.806 453.075 354.55 454.301 354.55 455.752V477H349.558ZM385.279 458.408V462.472L369.375 462.504V458.44L385.279 458.408ZM395.618 477V430.728H409.986C415.49 430.728 419.682 431.763 422.562 433.832C425.463 435.88 426.914 438.856 426.914 442.76C426.914 445.256 426.253 447.389 424.93 449.16C423.629 450.931 421.378 452.349 418.178 453.416C419.97 453.779 421.495 454.312 422.754 455.016C424.013 455.72 425.026 456.552 425.794 457.512C426.583 458.472 427.149 459.549 427.49 460.744C427.853 461.939 428.034 463.219 428.034 464.584C428.034 468.744 426.541 471.859 423.554 473.928C420.567 475.976 416.173 477 410.37 477H395.618ZM400.61 472.68H410.242C414.402 472.68 417.57 472.029 419.746 470.728C421.922 469.405 423.01 467.325 423.01 464.488C423.01 462.397 422.466 460.712 421.378 459.432C420.311 458.152 418.871 457.224 417.058 456.648C415.245 456.072 413.229 455.784 411.01 455.784H400.61V472.68ZM400.61 451.4H411.01C412.29 451.4 413.57 451.283 414.85 451.048C416.151 450.792 417.346 450.365 418.434 449.768C419.522 449.171 420.397 448.36 421.058 447.336C421.719 446.291 422.05 444.979 422.05 443.4C422.05 440.499 420.941 438.376 418.722 437.032C416.525 435.667 413.655 434.984 410.114 434.984H400.61V451.4ZM444.739 477.352C443.16 477.352 441.859 477.128 440.835 476.68C439.832 476.211 439.043 475.571 438.467 474.76C437.912 473.949 437.528 473.021 437.315 471.976C437.102 470.931 436.995 469.832 436.995 468.68V429.448H441.923V468.264C441.923 470.077 442.264 471.411 442.947 472.264C443.63 473.096 444.526 473.544 445.635 473.608L447.491 473.64V476.904C447.022 477.053 446.542 477.16 446.051 477.224C445.56 477.309 445.123 477.352 444.739 477.352ZM467.859 477.64C464.872 477.64 462.248 477 459.987 475.72C457.747 474.419 456.008 472.499 454.771 469.96C453.534 467.421 452.915 464.296 452.915 460.584C452.915 457.128 453.48 454.099 454.611 451.496C455.763 448.893 457.448 446.877 459.667 445.448C461.886 443.997 464.627 443.272 467.891 443.272C470.878 443.272 473.47 443.933 475.667 445.256C477.886 446.557 479.603 448.499 480.819 451.08C482.056 453.64 482.675 456.808 482.675 460.584C482.675 463.955 482.12 466.92 481.011 469.48C479.902 472.04 478.248 474.045 476.051 475.496C473.875 476.925 471.144 477.64 467.859 477.64ZM467.891 473.608C469.96 473.608 471.72 473.096 473.171 472.072C474.643 471.048 475.763 469.555 476.531 467.592C477.32 465.629 477.715 463.251 477.715 460.456C477.715 457.939 477.374 455.688 476.691 453.704C476.008 451.72 474.942 450.163 473.491 449.032C472.04 447.88 470.174 447.304 467.891 447.304C465.779 447.304 463.976 447.816 462.483 448.84C461.011 449.843 459.88 451.325 459.091 453.288C458.302 455.251 457.907 457.64 457.907 460.456C457.907 462.973 458.248 465.224 458.931 467.208C459.635 469.171 460.723 470.728 462.195 471.88C463.667 473.032 465.566 473.608 467.891 473.608ZM503.736 443.272C506.018 443.272 508.088 443.699 509.944 444.552C511.8 445.405 513.336 446.632 514.552 448.232C515.768 449.811 516.546 451.72 516.888 453.96H512.312C512.098 452.723 511.618 451.613 510.872 450.632C510.125 449.629 509.144 448.84 507.928 448.264C506.733 447.688 505.346 447.4 503.767 447.4C500.76 447.4 498.306 448.477 496.408 450.632C494.53 452.765 493.592 456.061 493.592 460.52C493.592 464.509 494.445 467.709 496.152 470.12C497.88 472.509 500.44 473.704 503.832 473.704C505.41 473.704 506.797 473.416 507.992 472.84C509.208 472.243 510.189 471.453 510.936 470.472C511.682 469.469 512.152 468.371 512.344 467.176H516.856C516.536 469.352 515.757 471.229 514.52 472.808C513.282 474.365 511.736 475.56 509.88 476.392C508.045 477.224 505.997 477.64 503.736 477.64C500.792 477.64 498.189 477 495.928 475.72C493.666 474.44 491.896 472.531 490.616 469.992C489.357 467.453 488.728 464.307 488.728 460.552C488.728 457.117 489.304 454.109 490.456 451.528C491.608 448.925 493.293 446.899 495.512 445.448C497.752 443.997 500.493 443.272 503.736 443.272ZM553.564 477H548.156L537.404 459.752L530.268 467.08V477H525.308V429.448H530.268V461.224L546.748 443.912H552.636L540.732 456.36L553.564 477ZM572.611 443.272C574.893 443.272 576.963 443.699 578.819 444.552C580.675 445.405 582.211 446.632 583.427 448.232C584.643 449.811 585.421 451.72 585.763 453.96H581.187C580.973 452.723 580.493 451.613 579.747 450.632C579 449.629 578.019 448.84 576.803 448.264C575.608 447.688 574.221 447.4 572.642 447.4C569.635 447.4 567.181 448.477 565.283 450.632C563.405 452.765 562.467 456.061 562.467 460.52C562.467 464.509 563.32 467.709 565.027 470.12C566.755 472.509 569.315 473.704 572.707 473.704C574.285 473.704 575.672 473.416 576.867 472.84C578.083 472.243 579.064 471.453 579.811 470.472C580.557 469.469 581.027 468.371 581.219 467.176H585.731C585.411 469.352 584.632 471.229 583.395 472.808C582.157 474.365 580.611 475.56 578.755 476.392C576.92 477.224 574.872 477.64 572.611 477.64C569.667 477.64 567.064 477 564.803 475.72C562.541 474.44 560.771 472.531 559.491 469.992C558.232 467.453 557.603 464.307 557.603 460.552C557.603 457.117 558.179 454.109 559.331 451.528C560.483 448.925 562.168 446.899 564.387 445.448C566.627 443.997 569.368 443.272 572.611 443.272ZM594.183 477V429.448H599.015V448.776C599.591 447.837 600.359 446.963 601.319 446.152C602.3 445.341 603.473 444.691 604.839 444.2C606.225 443.688 607.804 443.432 609.575 443.432C611.751 443.432 613.703 443.827 615.431 444.616C617.18 445.405 618.567 446.525 619.591 447.976C620.615 449.427 621.127 451.133 621.127 453.096V477H616.135V454.216C616.135 452.125 615.42 450.504 613.991 449.352C612.561 448.179 610.673 447.592 608.327 447.592C606.727 447.592 605.223 447.859 603.815 448.392C602.428 448.904 601.308 449.683 600.455 450.728C599.601 451.752 599.175 453.064 599.175 454.664V477H594.183ZM639.801 477.64C637.646 477.64 635.758 477.267 634.137 476.52C632.516 475.752 631.246 474.664 630.329 473.256C629.433 471.848 628.985 470.152 628.985 468.168C628.985 464.499 630.233 461.779 632.729 460.008C635.246 458.237 639.31 457.277 644.921 457.128L651.321 456.936V454.184C651.321 452.029 650.66 450.312 649.337 449.032C648.036 447.731 646.02 447.091 643.289 447.112C641.241 447.112 639.46 447.592 637.945 448.552C636.452 449.491 635.502 451.005 635.097 453.096H630.553C630.681 451.027 631.268 449.267 632.313 447.816C633.358 446.344 634.83 445.224 636.729 444.456C638.628 443.667 640.9 443.272 643.545 443.272C646.276 443.272 648.569 443.677 650.425 444.488C652.302 445.277 653.721 446.472 654.681 448.072C655.641 449.651 656.121 451.613 656.121 453.96V477H651.833L651.481 470.632C650.158 473.256 648.473 475.08 646.425 476.104C644.398 477.128 642.19 477.64 639.801 477.64ZM641.209 473.896C642.404 473.896 643.588 473.683 644.761 473.256C645.956 472.829 647.044 472.243 648.025 471.496C649.006 470.749 649.796 469.917 650.393 469C650.99 468.083 651.3 467.144 651.321 466.184V460.296L645.977 460.392C643.182 460.435 640.889 460.712 639.097 461.224C637.326 461.736 636.004 462.525 635.129 463.592C634.276 464.637 633.849 466.013 633.849 467.72C633.849 469.661 634.532 471.176 635.897 472.264C637.262 473.352 639.033 473.896 641.209 473.896ZM672.283 443.912V477H667.419V443.912H672.283ZM672.443 430.76V436.264H667.195V430.76H672.443ZM683.62 477V443.912H688.42V448.744C688.975 447.784 689.732 446.899 690.692 446.088C691.673 445.277 692.857 444.627 694.244 444.136C695.652 443.645 697.231 443.4 698.98 443.4C701.113 443.4 703.055 443.827 704.804 444.68C706.575 445.512 707.983 446.813 709.028 448.584C710.073 450.355 710.596 452.627 710.596 455.4V477H705.604V455.848C705.604 453.032 704.889 450.952 703.46 449.608C702.031 448.264 700.143 447.592 697.796 447.592C696.196 447.592 694.692 447.848 693.284 448.36C691.876 448.872 690.745 449.651 689.892 450.696C689.039 451.741 688.612 453.053 688.612 454.632V477H683.62ZM66.88 494.088C70.08 494.088 72.9173 494.76 75.392 496.104C77.8667 497.448 79.8507 499.229 81.344 501.448C82.8373 503.667 83.7227 506.077 84 508.68H78.624C78.2613 506.824 77.5787 505.128 76.576 503.592C75.5947 502.056 74.2827 500.829 72.64 499.912C70.9973 498.995 69.0453 498.536 66.784 498.536C63.7973 498.536 61.28 499.229 59.232 500.616C57.2053 502.003 55.6693 504.125 54.624 506.984C53.6 509.821 53.088 513.437 53.088 517.832C53.088 524.445 54.24 529.32 56.544 532.456C58.8693 535.592 62.2827 537.16 66.784 537.16C69.0453 537.16 70.9973 536.691 72.64 535.752C74.2827 534.792 75.5947 533.533 76.576 531.976C77.5787 530.397 78.2613 528.68 78.624 526.824H84C83.7653 528.723 83.232 530.568 82.4 532.36C81.5893 534.131 80.4693 535.72 79.04 537.128C77.632 538.515 75.904 539.613 73.856 540.424C71.8293 541.235 69.504 541.64 66.88 541.64C62.7627 541.64 59.264 540.712 56.384 538.856C53.5253 536.979 51.3387 534.269 49.824 530.728C48.3093 527.165 47.552 522.845 47.552 517.768C47.552 512.691 48.2987 508.392 49.792 504.872C51.3067 501.352 53.504 498.675 56.384 496.84C59.264 495.005 62.7627 494.088 66.88 494.088ZM105.422 541.64C102.435 541.64 99.8108 541 97.5495 539.72C95.3095 538.419 93.5708 536.499 92.3335 533.96C91.0962 531.421 90.4775 528.296 90.4775 524.584C90.4775 521.128 91.0428 518.099 92.1735 515.496C93.3255 512.893 95.0108 510.877 97.2295 509.448C99.4482 507.997 102.19 507.272 105.454 507.272C108.44 507.272 111.032 507.933 113.23 509.256C115.448 510.557 117.166 512.499 118.382 515.08C119.619 517.64 120.238 520.808 120.238 524.584C120.238 527.955 119.683 530.92 118.574 533.48C117.464 536.04 115.811 538.045 113.614 539.496C111.438 540.925 108.707 541.64 105.422 541.64ZM105.454 537.608C107.523 537.608 109.283 537.096 110.734 536.072C112.206 535.048 113.326 533.555 114.094 531.592C114.883 529.629 115.278 527.251 115.278 524.456C115.278 521.939 114.936 519.688 114.254 517.704C113.571 515.72 112.504 514.163 111.054 513.032C109.603 511.88 107.736 511.304 105.454 511.304C103.342 511.304 101.539 511.816 100.046 512.84C98.5735 513.843 97.4428 515.325 96.6535 517.288C95.8642 519.251 95.4695 521.64 95.4695 524.456C95.4695 526.973 95.8108 529.224 96.4935 531.208C97.1975 533.171 98.2855 534.728 99.7575 535.88C101.23 537.032 103.128 537.608 105.454 537.608ZM128.37 541V507.912H133.17V512.744C134.045 511.272 135.261 509.992 136.818 508.904C138.397 507.816 140.466 507.272 143.026 507.272C144.263 507.272 145.511 507.475 146.77 507.88C148.029 508.285 149.181 508.893 150.226 509.704C151.271 510.515 152.071 511.517 152.626 512.712C153.65 511.048 155.037 509.725 156.786 508.744C158.535 507.763 160.519 507.272 162.738 507.272C163.89 507.272 165.085 507.443 166.322 507.784C167.581 508.125 168.754 508.733 169.842 509.608C170.93 510.461 171.805 511.688 172.466 513.288C173.149 514.867 173.49 516.904 173.49 519.4V541H168.498V519.848C168.498 517.651 168.157 515.965 167.474 514.792C166.791 513.597 165.906 512.765 164.818 512.296C163.73 511.827 162.567 511.592 161.33 511.592C160.221 511.592 159.047 511.805 157.81 512.232C156.594 512.637 155.549 513.352 154.674 514.376C153.821 515.4 153.394 516.819 153.394 518.632V541H148.402V517.864C148.402 516.477 148.029 515.325 147.282 514.408C146.557 513.469 145.65 512.765 144.562 512.296C143.474 511.827 142.386 511.592 141.298 511.592C140.103 511.592 138.887 511.827 137.65 512.296C136.434 512.765 135.41 513.523 134.578 514.568C133.767 515.613 133.362 516.968 133.362 518.632V541H128.37ZM183.183 541V507.912H187.983V512.744C188.857 511.272 190.073 509.992 191.631 508.904C193.209 507.816 195.279 507.272 197.839 507.272C199.076 507.272 200.324 507.475 201.583 507.88C202.841 508.285 203.993 508.893 205.039 509.704C206.084 510.515 206.884 511.517 207.439 512.712C208.463 511.048 209.849 509.725 211.599 508.744C213.348 507.763 215.332 507.272 217.551 507.272C218.703 507.272 219.897 507.443 221.135 507.784C222.393 508.125 223.567 508.733 224.655 509.608C225.743 510.461 226.617 511.688 227.279 513.288C227.961 514.867 228.303 516.904 228.303 519.4V541H223.311V519.848C223.311 517.651 222.969 515.965 222.287 514.792C221.604 513.597 220.719 512.765 219.631 512.296C218.543 511.827 217.38 511.592 216.143 511.592C215.033 511.592 213.86 511.805 212.623 512.232C211.407 512.637 210.361 513.352 209.487 514.376C208.633 515.4 208.207 516.819 208.207 518.632V541H203.215V517.864C203.215 516.477 202.841 515.325 202.095 514.408C201.369 513.469 200.463 512.765 199.375 512.296C198.287 511.827 197.199 511.592 196.111 511.592C194.916 511.592 193.7 511.827 192.463 512.296C191.247 512.765 190.223 513.523 189.391 514.568C188.58 515.613 188.175 516.968 188.175 518.632V541H183.183ZM249.593 541.64C247.822 541.619 246.169 541.373 244.633 540.904C243.097 540.413 241.742 539.699 240.569 538.76C239.417 537.8 238.51 536.616 237.849 535.208C237.209 533.779 236.889 532.125 236.889 530.248V507.912H241.881V529.8C241.881 532.125 242.585 534.013 243.993 535.464C245.401 536.893 247.566 537.608 250.489 537.608C253.091 537.608 255.182 536.936 256.761 535.592C258.339 534.227 259.129 532.168 259.129 529.416V507.912H264.089V541H260.057L259.545 534.728C259.161 536.307 258.489 537.608 257.529 538.632C256.59 539.656 255.438 540.424 254.073 540.936C252.729 541.427 251.235 541.661 249.593 541.64ZM274.245 541V507.912H279.045V512.744C279.6 511.784 280.357 510.899 281.317 510.088C282.298 509.277 283.482 508.627 284.869 508.136C286.277 507.645 287.856 507.4 289.605 507.4C291.738 507.4 293.68 507.827 295.429 508.68C297.2 509.512 298.608 510.813 299.653 512.584C300.698 514.355 301.221 516.627 301.221 519.4V541H296.229V519.848C296.229 517.032 295.514 514.952 294.085 513.608C292.656 512.264 290.768 511.592 288.421 511.592C286.821 511.592 285.317 511.848 283.909 512.36C282.501 512.872 281.37 513.651 280.517 514.696C279.664 515.741 279.237 517.053 279.237 518.632V541H274.245ZM316.47 507.912V541H311.606V507.912H316.47ZM316.63 494.76V500.264H311.382V494.76H316.63ZM340.298 507.272C342.581 507.272 344.65 507.699 346.506 508.552C348.362 509.405 349.898 510.632 351.114 512.232C352.33 513.811 353.109 515.72 353.45 517.96H348.874C348.661 516.723 348.181 515.613 347.434 514.632C346.687 513.629 345.706 512.84 344.49 512.264C343.295 511.688 341.909 511.4 340.33 511.4C337.322 511.4 334.869 512.477 332.97 514.632C331.093 516.765 330.154 520.061 330.154 524.52C330.154 528.509 331.007 531.709 332.714 534.12C334.442 536.509 337.002 537.704 340.394 537.704C341.973 537.704 343.359 537.416 344.554 536.84C345.77 536.243 346.751 535.453 347.498 534.472C348.245 533.469 348.714 532.371 348.906 531.176H353.418C353.098 533.352 352.319 535.229 351.082 536.808C349.845 538.365 348.298 539.56 346.442 540.392C344.607 541.224 342.559 541.64 340.298 541.64C337.354 541.64 334.751 541 332.49 539.72C330.229 538.44 328.458 536.531 327.178 533.992C325.919 531.453 325.29 528.307 325.29 524.552C325.29 521.117 325.866 518.109 327.018 515.528C328.17 512.925 329.855 510.899 332.074 509.448C334.314 507.997 337.055 507.272 340.298 507.272ZM370.489 541.64C368.334 541.64 366.446 541.267 364.825 540.52C363.203 539.752 361.934 538.664 361.016 537.256C360.121 535.848 359.673 534.152 359.673 532.168C359.673 528.499 360.921 525.779 363.417 524.008C365.934 522.237 369.998 521.277 375.609 521.128L382.009 520.936V518.184C382.009 516.029 381.347 514.312 380.025 513.032C378.723 511.731 376.707 511.091 373.977 511.112C371.929 511.112 370.147 511.592 368.633 512.552C367.139 513.491 366.19 515.005 365.785 517.096H361.241C361.369 515.027 361.955 513.267 363.001 511.816C364.046 510.344 365.518 509.224 367.417 508.456C369.315 507.667 371.587 507.272 374.233 507.272C376.963 507.272 379.257 507.677 381.113 508.488C382.99 509.277 384.409 510.472 385.369 512.072C386.329 513.651 386.809 515.613 386.809 517.96V541H382.521L382.169 534.632C380.846 537.256 379.161 539.08 377.113 540.104C375.086 541.128 372.878 541.64 370.489 541.64ZM371.897 537.896C373.091 537.896 374.275 537.683 375.449 537.256C376.643 536.829 377.731 536.243 378.713 535.496C379.694 534.749 380.483 533.917 381.081 533C381.678 532.083 381.987 531.144 382.009 530.184V524.296L376.665 524.392C373.87 524.435 371.577 524.712 369.785 525.224C368.014 525.736 366.691 526.525 365.817 527.592C364.963 528.637 364.536 530.013 364.536 531.72C364.536 533.661 365.219 535.176 366.585 536.264C367.95 537.352 369.721 537.896 371.897 537.896ZM411.663 511.656H404.175V533C404.175 534.28 404.292 535.219 404.527 535.816C404.783 536.392 405.22 536.765 405.839 536.936C406.479 537.085 407.364 537.16 408.495 537.16H411.887V540.616C411.481 540.765 410.873 540.893 410.062 541C409.273 541.085 408.324 541.128 407.215 541.128C405.103 541.128 403.46 540.829 402.287 540.232C401.135 539.635 400.324 538.749 399.855 537.576C399.385 536.403 399.151 534.931 399.151 533.16V511.656H393.775V507.912H399.279L400.463 498.376H404.175V507.88H411.663V511.656ZM426.22 507.912V541H421.356V507.912H426.22ZM426.38 494.76V500.264H421.132V494.76H426.38ZM449.984 541.64C446.997 541.64 444.373 541 442.112 539.72C439.872 538.419 438.133 536.499 436.896 533.96C435.659 531.421 435.04 528.296 435.04 524.584C435.04 521.128 435.605 518.099 436.736 515.496C437.888 512.893 439.573 510.877 441.792 509.448C444.011 507.997 446.752 507.272 450.016 507.272C453.003 507.272 455.595 507.933 457.792 509.256C460.011 510.557 461.728 512.499 462.944 515.08C464.181 517.64 464.8 520.808 464.8 524.584C464.8 527.955 464.245 530.92 463.136 533.48C462.027 536.04 460.373 538.045 458.176 539.496C456 540.925 453.269 541.64 449.984 541.64ZM450.016 537.608C452.085 537.608 453.845 537.096 455.296 536.072C456.768 535.048 457.888 533.555 458.656 531.592C459.445 529.629 459.84 527.251 459.84 524.456C459.84 521.939 459.499 519.688 458.816 517.704C458.133 515.72 457.067 514.163 455.616 513.032C454.165 511.88 452.299 511.304 450.016 511.304C447.904 511.304 446.101 511.816 444.608 512.84C443.136 513.843 442.005 515.325 441.216 517.288C440.427 519.251 440.032 521.64 440.032 524.456C440.032 526.973 440.373 529.224 441.056 531.208C441.76 533.171 442.848 534.728 444.32 535.88C445.792 537.032 447.691 537.608 450.016 537.608ZM472.933 541V507.912H477.733V512.744C478.287 511.784 479.045 510.899 480.005 510.088C480.986 509.277 482.17 508.627 483.557 508.136C484.965 507.645 486.543 507.4 488.293 507.4C490.426 507.4 492.367 507.827 494.117 508.68C495.887 509.512 497.295 510.813 498.341 512.584C499.386 514.355 499.909 516.627 499.909 519.4V541H494.917V519.848C494.917 517.032 494.202 514.952 492.773 513.608C491.343 512.264 489.455 511.592 487.109 511.592C485.509 511.592 484.005 511.848 482.597 512.36C481.189 512.872 480.058 513.651 479.205 514.696C478.351 515.741 477.925 517.053 477.925 518.632V541H472.933ZM525.868 541V494.728H541.132C544.417 494.728 547.34 495.283 549.9 496.392C552.481 497.48 554.497 499.101 555.948 501.256C557.42 503.389 558.156 506.035 558.156 509.192C558.156 512.285 557.463 514.92 556.076 517.096C554.689 519.251 552.769 520.893 550.316 522.024C547.884 523.155 545.057 523.72 541.836 523.72H531.052V541H525.868ZM531.02 519.336H541.74C545.132 519.336 547.884 518.408 549.996 516.552C552.129 514.696 553.196 512.147 553.196 508.904C553.196 505.619 552.108 503.155 549.932 501.512C547.756 499.869 544.908 499.048 541.388 499.048H531.02V519.336ZM565.058 541V507.912H569.794V513.896C570.348 512.339 571.127 511.08 572.13 510.12C573.154 509.139 574.295 508.424 575.554 507.976C576.834 507.507 578.124 507.272 579.426 507.272C579.959 507.272 580.482 507.315 580.994 507.4C581.506 507.464 581.911 507.581 582.21 507.752V512.616C581.868 512.445 581.41 512.328 580.834 512.264C580.279 512.2 579.81 512.168 579.426 512.168C578.252 512.104 577.111 512.189 576.002 512.424C574.892 512.659 573.879 513.075 572.962 513.672C572.066 514.269 571.351 515.069 570.818 516.072C570.306 517.075 570.05 518.301 570.05 519.752V541H565.058ZM601.547 541.64C598.56 541.64 595.936 541 593.675 539.72C591.435 538.419 589.696 536.499 588.459 533.96C587.221 531.421 586.603 528.296 586.603 524.584C586.603 521.128 587.168 518.099 588.299 515.496C589.451 512.893 591.136 510.877 593.355 509.448C595.573 507.997 598.315 507.272 601.579 507.272C604.565 507.272 607.157 507.933 609.355 509.256C611.573 510.557 613.291 512.499 614.507 515.08C615.744 517.64 616.363 520.808 616.363 524.584C616.363 527.955 615.808 530.92 614.699 533.48C613.589 536.04 611.936 538.045 609.739 539.496C607.563 540.925 604.832 541.64 601.547 541.64ZM601.579 537.608C603.648 537.608 605.408 537.096 606.859 536.072C608.331 535.048 609.451 533.555 610.219 531.592C611.008 529.629 611.403 527.251 611.403 524.456C611.403 521.939 611.061 519.688 610.379 517.704C609.696 515.72 608.629 514.163 607.179 513.032C605.728 511.88 603.861 511.304 601.579 511.304C599.467 511.304 597.664 511.816 596.171 512.84C594.699 513.843 593.568 515.325 592.779 517.288C591.989 519.251 591.595 521.64 591.595 524.456C591.595 526.973 591.936 529.224 592.619 531.208C593.323 533.171 594.411 534.728 595.883 535.88C597.355 537.032 599.253 537.608 601.579 537.608ZM639.35 511.656H631.862V533C631.862 534.28 631.979 535.219 632.214 535.816C632.47 536.392 632.907 536.765 633.526 536.936C634.166 537.085 635.051 537.16 636.182 537.16H639.574V540.616C639.169 540.765 638.561 540.893 637.75 541C636.961 541.085 636.011 541.128 634.902 541.128C632.79 541.128 631.147 540.829 629.974 540.232C628.822 539.635 628.011 538.749 627.542 537.576C627.073 536.403 626.838 534.931 626.838 533.16V511.656H621.462V507.912H626.966L628.15 498.376H631.862V507.88H639.35V511.656ZM660.359 541.64C657.372 541.64 654.748 541 652.487 539.72C650.247 538.419 648.508 536.499 647.271 533.96C646.034 531.421 645.415 528.296 645.415 524.584C645.415 521.128 645.98 518.099 647.111 515.496C648.263 512.893 649.948 510.877 652.167 509.448C654.386 507.997 657.127 507.272 660.391 507.272C663.378 507.272 665.97 507.933 668.167 509.256C670.386 510.557 672.103 512.499 673.319 515.08C674.556 517.64 675.175 520.808 675.175 524.584C675.175 527.955 674.62 530.92 673.511 533.48C672.402 536.04 670.748 538.045 668.551 539.496C666.375 540.925 663.644 541.64 660.359 541.64ZM660.391 537.608C662.46 537.608 664.22 537.096 665.671 536.072C667.143 535.048 668.263 533.555 669.031 531.592C669.82 529.629 670.215 527.251 670.215 524.456C670.215 521.939 669.874 519.688 669.191 517.704C668.508 515.72 667.442 514.163 665.991 513.032C664.54 511.88 662.674 511.304 660.391 511.304C658.279 511.304 656.476 511.816 654.983 512.84C653.511 513.843 652.38 515.325 651.591 517.288C650.802 519.251 650.407 521.64 650.407 524.456C650.407 526.973 650.748 529.224 651.431 531.208C652.135 533.171 653.223 534.728 654.695 535.88C656.167 537.032 658.066 537.608 660.391 537.608ZM696.236 507.272C698.518 507.272 700.588 507.699 702.444 508.552C704.3 509.405 705.836 510.632 707.052 512.232C708.268 513.811 709.046 515.72 709.388 517.96H704.812C704.598 516.723 704.118 515.613 703.372 514.632C702.625 513.629 701.644 512.84 700.428 512.264C699.233 511.688 697.846 511.4 696.267 511.4C693.26 511.4 690.806 512.477 688.908 514.632C687.03 516.765 686.092 520.061 686.092 524.52C686.092 528.509 686.945 531.709 688.652 534.12C690.38 536.509 692.94 537.704 696.332 537.704C697.91 537.704 699.297 537.416 700.492 536.84C701.708 536.243 702.689 535.453 703.436 534.472C704.182 533.469 704.652 532.371 704.844 531.176H709.356C709.036 533.352 708.257 535.229 707.02 536.808C705.782 538.365 704.236 539.56 702.38 540.392C700.545 541.224 698.497 541.64 696.236 541.64C693.292 541.64 690.689 541 688.428 539.72C686.166 538.44 684.396 536.531 683.116 533.992C681.857 531.453 681.228 528.307 681.228 524.552C681.228 521.117 681.804 518.109 682.956 515.528C684.108 512.925 685.793 510.899 688.012 509.448C690.252 507.997 692.993 507.272 696.236 507.272ZM730.672 541.64C727.685 541.64 725.061 541 722.8 539.72C720.56 538.419 718.821 536.499 717.584 533.96C716.346 531.421 715.728 528.296 715.728 524.584C715.728 521.128 716.293 518.099 717.424 515.496C718.576 512.893 720.261 510.877 722.48 509.448C724.698 507.997 727.44 507.272 730.704 507.272C733.69 507.272 736.282 507.933 738.48 509.256C740.698 510.557 742.416 512.499 743.632 515.08C744.869 517.64 745.488 520.808 745.488 524.584C745.488 527.955 744.933 530.92 743.824 533.48C742.714 536.04 741.061 538.045 738.864 539.496C736.688 540.925 733.957 541.64 730.672 541.64ZM730.704 537.608C732.773 537.608 734.533 537.096 735.984 536.072C737.456 535.048 738.576 533.555 739.344 531.592C740.133 529.629 740.528 527.251 740.528 524.456C740.528 521.939 740.186 519.688 739.504 517.704C738.821 515.72 737.754 514.163 736.304 513.032C734.853 511.88 732.986 511.304 730.704 511.304C728.592 511.304 726.789 511.816 725.296 512.84C723.824 513.843 722.693 515.325 721.904 517.288C721.114 519.251 720.72 521.64 720.72 524.456C720.72 526.973 721.061 529.224 721.744 531.208C722.448 533.171 723.536 534.728 725.008 535.88C726.48 537.032 728.378 537.608 730.704 537.608ZM761.364 541.352C759.785 541.352 758.484 541.128 757.46 540.68C756.457 540.211 755.668 539.571 755.092 538.76C754.537 537.949 754.153 537.021 753.94 535.976C753.727 534.931 753.62 533.832 753.62 532.68V493.448H758.548V532.264C758.548 534.077 758.889 535.411 759.572 536.264C760.255 537.096 761.151 537.544 762.26 537.608L764.116 537.64V540.904C763.647 541.053 763.167 541.16 762.676 541.224C762.185 541.309 761.748 541.352 761.364 541.352Z" fill="black"/>
<path d="M78.5 172.6V276H63.3V172.6H78.5ZM79 131.5V148.7H62.6V131.5H79ZM153.33 278C146.996 278 141.663 277.167 137.33 275.5C133.063 273.767 129.596 271.633 126.93 269.1C124.263 266.567 122.23 264 120.83 261.4C119.43 258.8 118.43 256.6 117.83 254.8L116.23 276H103.93V127.4H119.73V189.6C120.463 188.067 121.696 186.233 123.43 184.1C125.163 181.967 127.43 179.867 130.23 177.8C133.03 175.733 136.43 174.033 140.43 172.7C144.43 171.3 149.063 170.6 154.33 170.6C167.263 170.6 177.596 175.067 185.33 184C193.063 192.933 196.93 206.233 196.93 223.9C196.93 234.767 195.296 244.267 192.03 252.4C188.83 260.467 183.996 266.767 177.53 271.3C171.13 275.767 163.063 278 153.33 278ZM150.83 265.6C159.83 265.6 167.096 262.167 172.63 255.3C178.23 248.433 181.03 237.633 181.03 222.9C181.03 210.5 178.463 200.767 173.33 193.7C168.196 186.633 160.563 183.1 150.43 183.1C143.03 183.1 137.096 184.7 132.63 187.9C128.163 191.033 124.896 195.567 122.83 201.5C120.83 207.433 119.796 214.567 119.73 222.9C119.73 237.967 122.096 248.867 126.83 255.6C131.563 262.267 139.563 265.6 150.83 265.6ZM252.884 170.6C260.018 170.6 266.484 171.933 272.284 174.6C278.084 177.267 282.884 181.1 286.684 186.1C290.484 191.033 292.918 197 293.984 204H279.684C279.018 200.133 277.518 196.667 275.184 193.6C272.851 190.467 269.784 188 265.984 186.2C262.251 184.4 257.918 183.5 252.984 183.5C243.584 183.5 235.918 186.867 229.984 193.6C224.118 200.267 221.184 210.567 221.184 224.5C221.184 236.967 223.851 246.967 229.184 254.5C234.584 261.967 242.584 265.7 253.184 265.7C258.118 265.7 262.451 264.8 266.184 263C269.984 261.133 273.051 258.667 275.384 255.6C277.718 252.467 279.184 249.033 279.784 245.3H293.884C292.884 252.1 290.451 257.967 286.584 262.9C282.718 267.767 277.884 271.5 272.084 274.1C266.351 276.7 259.951 278 252.884 278C243.684 278 235.551 276 228.484 272C221.418 268 215.884 262.033 211.884 254.1C207.951 246.167 205.984 236.333 205.984 224.6C205.984 213.867 207.784 204.467 211.384 196.4C214.984 188.267 220.251 181.933 227.184 177.4C234.184 172.867 242.751 170.6 252.884 170.6ZM358.45 217.9V230.6L308.75 230.7V218L358.45 217.9ZM418.773 310.2C403.107 310.2 390.807 307.833 381.873 303.1C373.007 298.433 368.573 291.567 368.573 282.5C368.573 278.7 369.407 275.467 371.073 272.8C372.807 270.067 374.84 267.8 377.173 266C379.573 264.2 381.807 262.767 383.873 261.7C385.94 260.567 387.307 259.733 387.973 259.2C386.773 258.467 385.373 257.633 383.773 256.7C382.173 255.7 380.773 254.433 379.573 252.9C378.44 251.3 377.873 249.267 377.873 246.8C377.873 243.667 379.34 240.8 382.273 238.2C385.207 235.533 389.573 233.533 395.373 232.2C389.507 229.133 384.873 225.133 381.473 220.2C378.14 215.2 376.473 209.733 376.473 203.8C376.473 197.133 378.173 191.333 381.573 186.4C385.04 181.467 390.04 177.667 396.573 175C403.107 172.333 411.04 171 420.373 171C426.973 171 432.573 171.8 437.173 173.4C441.773 174.933 446.04 177.2 449.973 180.2C450.973 179.733 452.573 179.033 454.773 178.1C457.04 177.167 459.54 176.167 462.273 175.1C465.007 173.967 467.54 172.9 469.873 171.9C472.273 170.9 474.073 170.133 475.273 169.6V185.2L457.073 188.8C458.207 191.067 459.107 193.533 459.773 196.2C460.44 198.8 460.773 201.3 460.773 203.7C460.773 209.833 459.24 215.367 456.173 220.3C453.107 225.167 448.44 229 442.173 231.8C435.973 234.6 428.14 236 418.673 236C418.007 236 417.173 236 416.173 236C415.173 236 414.307 235.967 413.573 235.9C405.64 236.1 400.173 237 397.173 238.6C394.24 240.133 392.773 241.767 392.773 243.5C392.773 245.5 394.273 246.933 397.273 247.8C400.273 248.6 405.507 249.267 412.973 249.8C415.707 249.933 418.973 250.1 422.773 250.3C426.64 250.5 430.94 250.767 435.673 251.1C446.007 251.7 454.04 254.367 459.773 259.1C465.573 263.833 468.473 270.367 468.473 278.7C468.473 287.967 464.373 295.533 456.173 301.4C448.04 307.267 435.573 310.2 418.773 310.2ZM421.673 299.5C431.607 299.5 439.34 297.933 444.873 294.8C450.407 291.733 453.173 287.033 453.173 280.7C453.173 276.3 451.54 272.7 448.273 269.9C445.007 267.033 440.073 265.367 433.473 264.9L402.973 263C400.507 262.867 397.807 263.567 394.873 265.1C391.94 266.567 389.407 268.667 387.273 271.4C385.207 274.133 384.173 277.233 384.173 280.7C384.173 286.567 387.207 291.167 393.273 294.5C399.407 297.833 408.873 299.5 421.673 299.5ZM419.173 225.4C427.107 225.4 433.507 223.6 438.373 220C443.307 216.4 445.773 211 445.773 203.8C445.773 196.4 443.307 190.8 438.373 187C433.507 183.2 427.107 181.3 419.173 181.3C411.04 181.3 404.473 183.233 399.473 187.1C394.54 190.9 392.073 196.467 392.073 203.8C392.073 210.667 394.407 216 399.073 219.8C403.807 223.533 410.507 225.4 419.173 225.4ZM526.981 278C517.648 278 509.448 276 502.381 272C495.381 267.933 489.948 261.933 486.081 254C482.215 246.067 480.281 236.3 480.281 224.7C480.281 213.9 482.048 204.433 485.581 196.3C489.181 188.167 494.448 181.867 501.381 177.4C508.315 172.867 516.881 170.6 527.081 170.6C536.415 170.6 544.515 172.667 551.381 176.8C558.315 180.867 563.681 186.933 567.481 195C571.348 203 573.281 212.9 573.281 224.7C573.281 235.233 571.548 244.5 568.081 252.5C564.615 260.5 559.448 266.767 552.581 271.3C545.781 275.767 537.248 278 526.981 278ZM527.081 265.4C533.548 265.4 539.048 263.8 543.581 260.6C548.181 257.4 551.681 252.733 554.081 246.6C556.548 240.467 557.781 233.033 557.781 224.3C557.781 216.433 556.715 209.4 554.581 203.2C552.448 197 549.115 192.133 544.581 188.6C540.048 185 534.215 183.2 527.081 183.2C520.481 183.2 514.848 184.8 510.181 188C505.581 191.133 502.048 195.767 499.581 201.9C497.115 208.033 495.881 215.5 495.881 224.3C495.881 232.167 496.948 239.2 499.081 245.4C501.281 251.533 504.681 256.4 509.281 260C513.881 263.6 519.815 265.4 527.081 265.4Z" fill="black"/>
<defs>
<clipPath id="clip0_1401_1687">
<rect width="205" height="122" fill="white" transform="translate(1016 419)"/>
</clipPath>
</defs>
</svg>
