<svg width="32" height="33" viewBox="0 0 32 33" fill="none" xmlns="http://www.w3.org/2000/svg">
<path fill-rule="evenodd" clip-rule="evenodd" d="M19.3212 9.4467L9.30661 19.8039C9.17751 19.5448 9.06102 19.2748 8.95662 18.9947C8.60692 18.0536 8.43192 17.0551 8.43192 16.0007C8.43192 14.9453 8.60692 13.9473 8.95662 13.0063C9.30662 12.0648 9.79172 11.2481 10.4117 10.5548C11.0319 9.86197 11.7772 9.314 12.647 8.91045C13.5174 8.5073 14.4723 8.30554 15.5122 8.30554C16.5525 8.30554 17.5126 8.51233 18.3922 8.92636C18.7194 9.08 19.029 9.25329 19.3212 9.4467ZM18.4376 23.1525C17.5673 23.556 16.6124 23.7574 15.5725 23.7574C14.5322 23.7574 13.572 23.5505 12.692 23.137C12.3653 22.9829 12.0557 22.8096 11.7638 22.6158L21.7779 12.2594C21.9071 12.5181 22.0237 12.7877 22.1281 13.0682C22.4778 14.0093 22.6527 15.0077 22.6527 16.0626C22.6527 17.1175 22.4778 18.1155 22.1281 19.057C21.7779 19.9981 21.293 20.8149 20.6728 21.5076C20.0527 22.2006 19.3078 22.749 18.4376 23.1525ZM19.9528 26.3638C21.293 25.7639 22.4531 24.9522 23.4332 23.9277C24.4131 22.9042 25.1729 21.7095 25.7129 20.3443C26.2533 18.9792 26.5233 17.5312 26.5233 16.0007C26.5233 14.4698 26.2533 13.0218 25.7129 11.6562C25.3928 10.8466 24.9984 10.0989 24.5305 9.41278L31.044 2.67669L28.4559 0L21.9225 6.7566C21.336 6.34301 20.6992 5.98551 20.0126 5.68368C18.6724 5.09426 17.1924 4.79913 15.5725 4.79913C13.952 4.79913 12.4722 5.09927 11.1319 5.69917C9.79172 6.29905 8.63142 7.11076 7.65152 8.13473C6.67142 9.15868 5.91132 10.3534 5.37132 11.7186C4.83122 13.0837 4.56121 14.5317 4.56121 16.0626C4.56121 17.5932 4.83122 19.0407 5.37132 20.4063C5.69192 21.2163 6.08612 21.964 6.55402 22.6505L0.0410156 29.3859L2.62922 32.0625L9.16212 25.3062C9.74872 25.7199 10.3855 26.0775 11.072 26.3792C12.4123 26.9686 13.8921 27.2635 15.5122 27.2635C17.1325 27.2635 18.6125 26.9632 19.9528 26.3638Z" fill="white"/>
</svg>
