<svg width="237" height="145" viewBox="0 0 237 145" fill="none" xmlns="http://www.w3.org/2000/svg">
<g clip-path="url(#clip0_822_4700)">
<path d="M18.2087 2.69873H0V142.464H18.2087V2.69873Z" fill="white"/>
<path d="M85.9945 91.4783H76.6191C57.2518 91.4783 41.4985 75.4154 41.4985 55.6673V2.65527H95.3805C114.748 2.65527 130.501 18.7182 130.501 38.4663V50.6623H112.292V38.4663C112.292 28.9608 104.703 21.2219 95.3805 21.2219H59.7072V55.6673C59.7072 65.1728 67.2968 72.9117 76.6191 72.9117H85.9945V91.4783ZM132.319 106.533V89.8525C132.319 70.1044 116.566 54.0415 97.1982 54.0415H85.9945V72.6082H97.1982C106.52 72.6082 114.11 80.347 114.11 89.8525V106.533C114.11 116.039 106.52 123.778 97.1982 123.778H59.7072V94.3589H41.4985V142.344H97.1982C116.566 142.344 132.319 126.281 132.319 106.533Z" fill="white"/>
<path d="M194.332 145H191.303C167.779 145 148.635 125.48 148.635 101.494V43.4958C148.635 19.5097 167.779 -0.0107422 191.303 -0.0107422H194.332C217.856 -0.0107422 237 19.5097 237 43.4958H218.791C218.791 29.7523 207.821 18.5668 194.343 18.5668H191.314C177.835 18.5668 166.865 29.7523 166.865 43.4958V101.494C166.865 115.237 177.835 126.423 191.314 126.423H194.343C207.821 126.423 218.791 115.237 218.791 101.494H237C237 125.48 217.856 145 194.332 145Z" fill="white"/>
</g>
<defs>
<clipPath id="clip0_822_4700">
<rect width="237" height="145" fill="white"/>
</clipPath>
</defs>
</svg>
