<svg width="2507" height="584" viewBox="0 0 2507 584" fill="none" xmlns="http://www.w3.org/2000/svg">
<g clip-path="url(#clip0_1383_394)">
<path d="M73.5119 10.8696H0V573.785H73.5119V10.8696Z" fill="white"/>
<path d="M347.175 368.438H309.325C231.135 368.438 167.537 303.743 167.537 224.206V10.6953H385.068C463.258 10.6953 526.857 75.3902 526.857 154.927V204.048H453.345V154.927C453.345 116.643 422.704 85.4742 385.068 85.4742H241.049V224.206C241.049 262.49 271.689 293.659 309.325 293.659H347.175V368.438ZM534.195 429.073V361.89C534.195 282.353 470.596 217.658 392.407 217.658H347.175V292.437H392.407C430.042 292.437 460.683 323.605 460.683 361.89V429.073C460.683 467.357 430.042 498.526 392.407 498.526H241.049V380.04H167.537V573.305H392.407C470.596 573.305 534.195 508.61 534.195 429.073Z" fill="white"/>
<path d="M784.556 584H772.326C677.357 584 600.068 505.38 600.068 408.774V175.183C600.068 78.577 677.357 -0.043457 772.326 -0.043457H784.556C879.525 -0.043457 956.814 78.577 956.814 175.183H883.302C883.302 119.83 839.014 74.7791 784.599 74.7791H772.369C717.954 74.7791 673.666 119.83 673.666 175.183V408.774C673.666 464.127 717.954 509.178 772.369 509.178H784.599C839.014 509.178 883.302 464.127 883.302 408.774H956.814C956.814 505.38 879.525 584 784.556 584Z" fill="white"/>
</g>
<path d="M1094.56 96.9475V86.7275H1170.49V96.9475H1139.04V188.646H1127.98V96.9475H1094.56Z" fill="white"/>
<path d="M1185.14 188.646V83.9082H1195.79V126.48C1197.06 124.412 1198.75 122.486 1200.86 120.7C1203.03 118.915 1205.61 117.481 1208.62 116.401C1211.67 115.273 1215.15 114.709 1219.05 114.709C1223.85 114.709 1228.15 115.578 1231.95 117.317C1235.81 119.056 1238.86 121.523 1241.12 124.718C1243.38 127.913 1244.5 131.672 1244.5 135.995V188.646H1233.51V138.462C1233.51 133.857 1231.93 130.286 1228.78 127.748C1225.63 125.164 1221.47 123.872 1216.3 123.872C1212.78 123.872 1209.46 124.459 1206.36 125.634C1203.31 126.762 1200.84 128.477 1198.96 130.779C1197.08 133.035 1196.14 135.924 1196.14 139.449V188.646H1185.14Z" fill="white"/>
<path d="M1273.17 154.743C1273.17 159.63 1273.96 164.071 1275.56 168.065C1277.16 172.059 1279.63 175.254 1282.96 177.65C1286.3 180.047 1290.53 181.245 1295.66 181.245C1300.59 181.245 1304.84 180.094 1308.42 177.791C1311.99 175.442 1314.22 172.129 1315.11 167.853H1325.69C1324.8 172.74 1322.85 176.828 1319.84 180.117C1316.88 183.406 1313.28 185.897 1309.05 187.588C1304.87 189.233 1300.45 190.055 1295.8 190.055C1289.12 190.055 1283.22 188.599 1278.1 185.685C1273.02 182.725 1269.05 178.473 1266.19 172.928C1263.37 167.383 1261.96 160.711 1261.96 152.911C1261.96 145.158 1263.25 138.391 1265.83 132.612C1268.42 126.785 1272.15 122.298 1277.04 119.15C1281.98 115.954 1287.92 114.357 1294.88 114.357C1301.6 114.357 1307.29 115.813 1311.94 118.727C1316.59 121.593 1320.14 125.704 1322.59 131.061C1325.03 136.418 1326.25 142.808 1326.25 150.232V154.743H1273.17ZM1273.24 146.92H1315.54C1315.54 142.409 1314.78 138.344 1313.28 134.726C1311.78 131.108 1309.5 128.242 1306.44 126.127C1303.39 124.013 1299.51 122.956 1294.81 122.956C1289.83 122.956 1285.74 124.154 1282.54 126.55C1279.39 128.9 1277.04 131.907 1275.49 135.572C1273.94 139.237 1273.19 143.02 1273.24 146.92Z" fill="white"/>
<path d="M1379.98 86.7275H1390.98V188.646H1379.98V86.7275Z" fill="white"/>
<path d="M1416.2 188.646V115.766H1426.78V126.409C1428 124.295 1429.67 122.345 1431.78 120.559C1433.94 118.774 1436.55 117.341 1439.61 116.26C1442.71 115.179 1446.19 114.639 1450.04 114.639C1454.74 114.639 1459.02 115.578 1462.87 117.458C1466.77 119.291 1469.88 122.157 1472.18 126.057C1474.48 129.957 1475.63 134.961 1475.63 141.07V188.646H1464.64V142.056C1464.64 135.854 1463.06 131.273 1459.91 128.312C1456.76 125.352 1452.6 123.872 1447.43 123.872C1443.91 123.872 1440.59 124.436 1437.49 125.564C1434.39 126.691 1431.9 128.406 1430.02 130.709C1428.14 133.011 1427.2 135.901 1427.2 139.378V188.646H1416.2Z" fill="white"/>
<path d="M1528.38 124.013H1511.88V171.025C1511.88 173.844 1512.14 175.912 1512.66 177.227C1513.22 178.496 1514.19 179.318 1515.55 179.694C1516.96 180.023 1518.91 180.188 1521.4 180.188H1528.88V187.8C1527.98 188.129 1526.64 188.411 1524.86 188.646C1523.12 188.834 1521.03 188.928 1518.58 188.928C1513.93 188.928 1510.31 188.27 1507.72 186.954C1505.19 185.638 1503.4 183.688 1502.37 181.104C1501.33 178.52 1500.82 175.277 1500.82 171.377V124.013H1488.97V115.766H1501.1L1503.71 94.7626H1511.88V115.696H1528.38V124.013Z" fill="white"/>
<path d="M1553.66 154.743C1553.66 159.63 1554.46 164.071 1556.06 168.065C1557.65 172.059 1560.12 175.254 1563.46 177.65C1566.8 180.047 1571.03 181.245 1576.15 181.245C1581.08 181.245 1585.34 180.094 1588.91 177.791C1592.48 175.442 1594.71 172.129 1595.61 167.853H1606.18C1605.29 172.74 1603.34 176.828 1600.33 180.117C1597.37 183.406 1593.77 185.897 1589.54 187.588C1585.36 189.233 1580.94 190.055 1576.29 190.055C1569.62 190.055 1563.72 188.599 1558.59 185.685C1553.52 182.725 1549.55 178.473 1546.68 172.928C1543.86 167.383 1542.45 160.711 1542.45 152.911C1542.45 145.158 1543.74 138.391 1546.33 132.612C1548.91 126.785 1552.65 122.298 1557.54 119.15C1562.47 115.954 1568.42 114.357 1575.37 114.357C1582.09 114.357 1587.78 115.813 1592.43 118.727C1597.09 121.593 1600.64 125.704 1603.08 131.061C1605.52 136.418 1606.75 142.808 1606.75 150.232V154.743H1553.66ZM1553.73 146.92H1596.03C1596.03 142.409 1595.28 138.344 1593.77 134.726C1592.27 131.108 1589.99 128.242 1586.94 126.127C1583.88 124.013 1580 122.956 1575.3 122.956C1570.32 122.956 1566.23 124.154 1563.04 126.55C1559.89 128.9 1557.54 131.907 1555.99 135.572C1554.43 139.237 1553.68 143.02 1553.73 146.92Z" fill="white"/>
<path d="M1625.5 188.646V115.766H1635.94V128.947C1637.16 125.517 1638.88 122.744 1641.08 120.63C1643.34 118.468 1645.86 116.894 1648.63 115.907C1651.45 114.874 1654.29 114.357 1657.16 114.357C1658.33 114.357 1659.49 114.451 1660.61 114.639C1661.74 114.78 1662.63 115.038 1663.29 115.414V126.127C1662.54 125.751 1661.53 125.493 1660.26 125.352C1659.04 125.211 1658.01 125.141 1657.16 125.141C1654.57 125 1652.06 125.188 1649.62 125.704C1647.17 126.221 1644.94 127.138 1642.92 128.453C1640.94 129.769 1639.37 131.531 1638.19 133.74C1637.07 135.948 1636.5 138.65 1636.5 141.845V188.646H1625.5Z" fill="white"/>
<path d="M1704.2 147.695V156.646L1669.17 156.717V147.766L1704.2 147.695Z" fill="white"/>
<path d="M1726.98 188.646V86.7275H1758.64C1770.77 86.7275 1780 89.0065 1786.35 93.5643C1792.74 98.0752 1795.93 104.63 1795.93 113.229C1795.93 118.727 1794.48 123.426 1791.56 127.326C1788.7 131.226 1783.74 134.35 1776.69 136.7C1780.64 137.499 1784 138.673 1786.77 140.224C1789.54 141.775 1791.78 143.607 1793.47 145.722C1795.21 147.836 1796.45 150.209 1797.2 152.84C1798 155.472 1798.4 158.291 1798.4 161.298C1798.4 170.461 1795.11 177.321 1788.53 181.879C1781.95 186.39 1772.27 188.646 1759.49 188.646H1726.98ZM1737.98 179.13H1759.2C1768.37 179.13 1775.35 177.697 1780.14 174.831C1784.94 171.918 1787.33 167.336 1787.33 161.087C1787.33 156.482 1786.13 152.77 1783.74 149.951C1781.39 147.131 1778.22 145.087 1774.22 143.819C1770.22 142.55 1765.78 141.916 1760.9 141.916H1737.98V179.13ZM1737.98 132.259H1760.9C1763.72 132.259 1766.54 132.001 1769.36 131.484C1772.22 130.92 1774.85 129.98 1777.25 128.665C1779.65 127.349 1781.58 125.564 1783.03 123.308C1784.49 121.006 1785.22 118.116 1785.22 114.639C1785.22 108.248 1782.77 103.573 1777.89 100.613C1773.05 97.6054 1766.72 96.1017 1758.92 96.1017H1737.98V132.259Z" fill="white"/>
<path d="M1835.21 189.421C1831.73 189.421 1828.86 188.928 1826.61 187.941C1824.4 186.907 1822.66 185.497 1821.39 183.712C1820.17 181.926 1819.32 179.882 1818.85 177.58C1818.38 175.277 1818.15 172.857 1818.15 170.32V83.9082H1829V169.404C1829 173.398 1829.75 176.335 1831.26 178.214C1832.76 180.047 1834.74 181.033 1837.18 181.174L1841.27 181.245V188.434C1840.24 188.763 1839.18 188.998 1838.1 189.139C1837.02 189.327 1836.05 189.421 1835.21 189.421Z" fill="white"/>
<path d="M1886.14 190.055C1879.56 190.055 1873.78 188.646 1868.8 185.826C1863.87 182.96 1860.04 178.731 1857.31 173.139C1854.58 167.548 1853.22 160.664 1853.22 152.488C1853.22 144.876 1854.47 138.203 1856.96 132.471C1859.49 126.738 1863.21 122.298 1868.1 119.15C1872.98 115.954 1879.02 114.357 1886.21 114.357C1892.8 114.357 1898.51 115.813 1903.35 118.727C1908.23 121.593 1912.02 125.869 1914.7 131.555C1917.42 137.193 1918.79 144.171 1918.79 152.488C1918.79 159.912 1917.56 166.444 1915.12 172.082C1912.68 177.721 1909.03 182.138 1904.19 185.333C1899.4 188.481 1893.38 190.055 1886.14 190.055ZM1886.21 181.174C1890.77 181.174 1894.65 180.047 1897.85 177.791C1901.09 175.536 1903.56 172.247 1905.25 167.924C1906.99 163.601 1907.86 158.361 1907.86 152.206C1907.86 146.661 1907.11 141.704 1905.6 137.334C1904.1 132.964 1901.75 129.534 1898.55 127.044C1895.36 124.506 1891.24 123.238 1886.21 123.238C1881.56 123.238 1877.59 124.365 1874.3 126.621C1871.06 128.829 1868.57 132.095 1866.83 136.418C1865.09 140.741 1864.22 146.004 1864.22 152.206C1864.22 157.751 1864.97 162.708 1866.47 167.078C1868.03 171.401 1870.42 174.831 1873.67 177.368C1876.91 179.906 1881.09 181.174 1886.21 181.174Z" fill="white"/>
<path d="M1965.19 114.357C1970.22 114.357 1974.78 115.297 1978.86 117.176C1982.95 119.056 1986.34 121.757 1989.02 125.282C1991.7 128.759 1993.41 132.964 1994.16 137.898H1984.08C1983.61 135.173 1982.55 132.729 1980.91 130.568C1979.26 128.359 1977.1 126.621 1974.42 125.352C1971.79 124.083 1968.74 123.449 1965.26 123.449C1958.63 123.449 1953.23 125.822 1949.04 130.568C1944.91 135.267 1942.84 142.526 1942.84 152.347C1942.84 161.134 1944.72 168.182 1948.48 173.492C1952.29 178.755 1957.93 181.386 1965.4 181.386C1968.88 181.386 1971.93 180.752 1974.56 179.483C1977.24 178.167 1979.41 176.429 1981.05 174.267C1982.7 172.059 1983.73 169.639 1984.15 167.007H1994.09C1993.39 171.8 1991.67 175.935 1988.95 179.412C1986.22 182.843 1982.81 185.474 1978.72 187.306C1974.68 189.139 1970.17 190.055 1965.19 190.055C1958.7 190.055 1952.97 188.646 1947.98 185.826C1943 183.007 1939.1 178.801 1936.28 173.21C1933.51 167.618 1932.12 160.687 1932.12 152.417C1932.12 144.852 1933.39 138.227 1935.93 132.541C1938.47 126.809 1942.18 122.345 1947.07 119.15C1952 115.954 1958.04 114.357 1965.19 114.357Z" fill="white"/>
<path d="M2074.97 188.646H2063.05L2039.36 150.655L2023.64 166.796V188.646H2012.71V83.9082H2023.64V153.898L2059.95 115.766H2072.92L2046.7 143.184L2074.97 188.646Z" fill="white"/>
<path d="M2116.93 114.357C2121.96 114.357 2126.52 115.297 2130.61 117.176C2134.7 119.056 2138.08 121.757 2140.76 125.282C2143.44 128.759 2145.16 132.964 2145.91 137.898H2135.83C2135.36 135.173 2134.3 132.729 2132.65 130.568C2131.01 128.359 2128.85 126.621 2126.17 125.352C2123.54 124.083 2120.48 123.449 2117 123.449C2110.38 123.449 2104.97 125.822 2100.79 130.568C2096.65 135.267 2094.58 142.526 2094.58 152.347C2094.58 161.134 2096.46 168.182 2100.22 173.492C2104.03 178.755 2109.67 181.386 2117.14 181.386C2120.62 181.386 2123.68 180.752 2126.31 179.483C2128.99 178.167 2131.15 176.429 2132.79 174.267C2134.44 172.059 2135.47 169.639 2135.9 167.007H2145.84C2145.13 171.8 2143.42 175.935 2140.69 179.412C2137.96 182.843 2134.56 185.474 2130.47 187.306C2126.43 189.139 2121.91 190.055 2116.93 190.055C2110.45 190.055 2104.71 188.646 2099.73 185.826C2094.75 183.007 2090.85 178.801 2088.03 173.21C2085.25 167.618 2083.87 160.687 2083.87 152.417C2083.87 144.852 2085.14 138.227 2087.67 132.541C2090.21 126.809 2093.92 122.345 2098.81 119.15C2103.75 115.954 2109.79 114.357 2116.93 114.357Z" fill="white"/>
<path d="M2164.46 188.646V83.9082H2175.1V126.48C2176.37 124.412 2178.07 122.486 2180.18 120.7C2182.34 118.915 2184.93 117.481 2187.94 116.401C2190.99 115.273 2194.47 114.709 2198.37 114.709C2203.16 114.709 2207.47 115.578 2211.27 117.317C2215.13 119.056 2218.18 121.523 2220.44 124.718C2222.69 127.913 2223.82 131.672 2223.82 135.995V188.646H2212.82V138.462C2212.82 133.857 2211.25 130.286 2208.1 127.748C2204.95 125.164 2200.79 123.872 2195.62 123.872C2192.1 123.872 2188.78 124.459 2185.68 125.634C2182.63 126.762 2180.16 128.477 2178.28 130.779C2176.4 133.035 2175.46 135.924 2175.46 139.449V188.646H2164.46Z" fill="white"/>
<path d="M2264.97 190.055C2260.22 190.055 2256.06 189.233 2252.49 187.588C2248.91 185.897 2246.12 183.5 2244.1 180.399C2242.12 177.298 2241.14 173.562 2241.14 169.192C2241.14 161.11 2243.89 155.119 2249.38 151.219C2254.93 147.319 2263.88 145.205 2276.25 144.876L2290.35 144.453V138.391C2290.35 133.646 2288.89 129.863 2285.97 127.044C2283.11 124.177 2278.67 122.768 2272.65 122.815C2268.14 122.815 2264.21 123.872 2260.88 125.986C2257.59 128.054 2255.49 131.39 2254.6 135.995H2244.59C2244.87 131.437 2246.16 127.561 2248.47 124.365C2250.77 121.123 2254.01 118.656 2258.2 116.965C2262.38 115.226 2267.39 114.357 2273.21 114.357C2279.23 114.357 2284.28 115.25 2288.37 117.035C2292.51 118.774 2295.63 121.405 2297.75 124.929C2299.86 128.406 2300.92 132.729 2300.92 137.898V188.646H2291.47L2290.7 174.62C2287.78 180.399 2284.07 184.417 2279.56 186.672C2275.09 188.928 2270.23 190.055 2264.97 190.055ZM2268.07 181.809C2270.7 181.809 2273.31 181.339 2275.89 180.399C2278.53 179.459 2280.92 178.167 2283.08 176.523C2285.25 174.878 2286.99 173.045 2288.3 171.025C2289.62 169.004 2290.3 166.937 2290.35 164.822V151.854L2278.57 152.065C2272.41 152.159 2267.36 152.77 2263.41 153.898C2259.51 155.025 2256.6 156.764 2254.67 159.113C2252.79 161.416 2251.85 164.447 2251.85 168.206C2251.85 172.482 2253.36 175.818 2256.36 178.214C2259.37 180.611 2263.27 181.809 2268.07 181.809Z" fill="white"/>
<path d="M2336.53 115.766V188.646H2325.81V115.766H2336.53ZM2336.88 86.798V98.921H2325.32V86.798H2336.88Z" fill="white"/>
<path d="M2361.51 188.646V115.766H2372.08V126.409C2373.3 124.295 2374.97 122.345 2377.09 120.559C2379.25 118.774 2381.86 117.341 2384.91 116.26C2388.02 115.179 2391.49 114.639 2395.35 114.639C2400.05 114.639 2404.32 115.578 2408.18 117.458C2412.08 119.291 2415.18 122.157 2417.49 126.057C2419.79 129.957 2420.94 134.961 2420.94 141.07V188.646H2409.94V142.056C2409.94 135.854 2408.37 131.273 2405.22 128.312C2402.07 125.352 2397.91 123.872 2392.74 123.872C2389.21 123.872 2385.9 124.436 2382.8 125.564C2379.7 126.691 2377.21 128.406 2375.33 130.709C2373.45 133.011 2372.51 135.901 2372.51 139.378V188.646H2361.51Z" fill="white"/>
<path d="M1141.51 239.709C1148.56 239.709 1154.81 241.189 1160.27 244.149C1165.72 247.109 1170.09 251.033 1173.38 255.92C1176.67 260.806 1178.62 266.116 1179.23 271.849H1167.39C1166.59 267.761 1165.08 264.025 1162.87 260.642C1160.71 257.259 1157.82 254.557 1154.2 252.537C1150.58 250.516 1146.28 249.506 1141.3 249.506C1134.72 249.506 1129.17 251.033 1124.66 254.087C1120.2 257.141 1116.81 261.817 1114.51 268.113C1112.25 274.363 1111.13 282.327 1111.13 292.007C1111.13 306.573 1113.66 317.31 1118.74 324.217C1123.86 331.125 1131.38 334.578 1141.3 334.578C1146.28 334.578 1150.58 333.545 1154.2 331.477C1157.82 329.363 1160.71 326.59 1162.87 323.16C1165.08 319.683 1166.59 315.901 1167.39 311.813H1179.23C1178.71 315.995 1177.54 320.059 1175.71 324.006C1173.92 327.906 1171.45 331.407 1168.3 334.508C1165.2 337.562 1161.39 339.982 1156.88 341.768C1152.42 343.553 1147.29 344.446 1141.51 344.446C1132.44 344.446 1124.73 342.402 1118.39 338.314C1112.09 334.179 1107.27 328.212 1103.93 320.411C1100.6 312.564 1098.93 303.049 1098.93 291.866C1098.93 280.683 1100.57 271.214 1103.86 263.461C1107.2 255.708 1112.04 249.811 1118.39 245.77C1124.73 241.729 1132.44 239.709 1141.51 239.709Z" fill="white"/>
<path d="M1226.43 344.446C1219.85 344.446 1214.07 343.036 1209.08 340.217C1204.15 337.351 1200.32 333.122 1197.59 327.53C1194.87 321.939 1193.5 315.055 1193.5 306.879C1193.5 299.267 1194.75 292.594 1197.24 286.862C1199.78 281.129 1203.49 276.689 1208.38 273.54C1213.27 270.345 1219.31 268.748 1226.5 268.748C1233.08 268.748 1238.79 270.204 1243.63 273.117C1248.52 275.984 1252.3 280.26 1254.98 285.945C1257.71 291.584 1259.07 298.562 1259.07 306.879C1259.07 314.303 1257.85 320.834 1255.4 326.473C1252.96 332.112 1249.32 336.528 1244.48 339.724C1239.68 342.872 1233.66 344.446 1226.43 344.446ZM1226.5 335.565C1231.06 335.565 1234.93 334.437 1238.13 332.182C1241.37 329.927 1243.84 326.637 1245.53 322.314C1247.27 317.992 1248.14 312.752 1248.14 306.597C1248.14 301.052 1247.39 296.095 1245.89 291.725C1244.38 287.355 1242.03 283.925 1238.84 281.434C1235.64 278.897 1231.53 277.628 1226.5 277.628C1221.84 277.628 1217.87 278.756 1214.58 281.012C1211.34 283.22 1208.85 286.486 1207.11 290.809C1205.37 295.132 1204.5 300.394 1204.5 306.597C1204.5 312.141 1205.25 317.099 1206.76 321.469C1208.31 325.792 1210.7 329.222 1213.95 331.759C1217.19 334.297 1221.37 335.565 1226.5 335.565Z" fill="white"/>
<path d="M1276.99 343.036V270.157H1287.56V280.8C1289.49 277.558 1292.17 274.739 1295.6 272.342C1299.08 269.946 1303.64 268.748 1309.28 268.748C1312 268.748 1314.75 269.194 1317.53 270.087C1320.3 270.98 1322.84 272.319 1325.14 274.104C1327.44 275.89 1329.21 278.098 1330.43 280.73C1332.68 277.065 1335.74 274.151 1339.59 271.99C1343.45 269.828 1347.82 268.748 1352.71 268.748C1355.24 268.748 1357.88 269.123 1360.6 269.875C1363.38 270.627 1365.96 271.966 1368.36 273.893C1370.75 275.772 1372.68 278.474 1374.14 281.998C1375.64 285.475 1376.39 289.963 1376.39 295.461V343.036H1365.4V296.447C1365.4 291.607 1364.64 287.895 1363.14 285.311C1361.64 282.68 1359.69 280.847 1357.29 279.813C1354.89 278.78 1352.33 278.263 1349.6 278.263C1347.16 278.263 1344.57 278.733 1341.85 279.672C1339.17 280.565 1336.87 282.139 1334.94 284.395C1333.06 286.65 1332.12 289.775 1332.12 293.769V343.036H1321.12V292.077C1321.12 289.023 1320.3 286.486 1318.65 284.465C1317.06 282.398 1315.06 280.847 1312.66 279.813C1310.26 278.78 1307.87 278.263 1305.47 278.263C1302.84 278.263 1300.16 278.78 1297.43 279.813C1294.75 280.847 1292.5 282.515 1290.66 284.818C1288.88 287.12 1287.98 290.104 1287.98 293.769V343.036H1276.99Z" fill="white"/>
<path d="M1397.75 343.036V270.157H1408.32V280.8C1410.25 277.558 1412.93 274.739 1416.36 272.342C1419.84 269.946 1424.4 268.748 1430.04 268.748C1432.76 268.748 1435.51 269.194 1438.29 270.087C1441.06 270.98 1443.6 272.319 1445.9 274.104C1448.2 275.89 1449.97 278.098 1451.19 280.73C1453.45 277.065 1456.5 274.151 1460.35 271.99C1464.21 269.828 1468.58 268.748 1473.47 268.748C1476.01 268.748 1478.64 269.123 1481.36 269.875C1484.14 270.627 1486.72 271.966 1489.12 273.893C1491.52 275.772 1493.44 278.474 1494.9 281.998C1496.4 285.475 1497.16 289.963 1497.16 295.461V343.036H1486.16V296.447C1486.16 291.607 1485.41 287.895 1483.9 285.311C1482.4 282.68 1480.45 280.847 1478.05 279.813C1475.65 278.78 1473.09 278.263 1470.37 278.263C1467.92 278.263 1465.34 278.733 1462.61 279.672C1459.93 280.565 1457.63 282.139 1455.7 284.395C1453.82 286.65 1452.88 289.775 1452.88 293.769V343.036H1441.88V292.077C1441.88 289.023 1441.06 286.486 1439.42 284.465C1437.82 282.398 1435.82 280.847 1433.42 279.813C1431.03 278.78 1428.63 278.263 1426.23 278.263C1423.6 278.263 1420.92 278.78 1418.19 279.813C1415.52 280.847 1413.26 282.515 1411.43 284.818C1409.64 287.12 1408.75 290.104 1408.75 293.769V343.036H1397.75Z" fill="white"/>
<path d="M1544.06 344.446C1540.16 344.399 1536.52 343.859 1533.13 342.825C1529.75 341.744 1526.77 340.17 1524.18 338.103C1521.64 335.988 1519.65 333.38 1518.19 330.279C1516.78 327.131 1516.07 323.489 1516.07 319.354V270.157H1527.07V318.367C1527.07 323.489 1528.62 327.648 1531.72 330.843C1534.83 333.991 1539.6 335.565 1546.04 335.565C1551.77 335.565 1556.38 334.085 1559.86 331.125C1563.33 328.118 1565.07 323.583 1565.07 317.522V270.157H1576V343.036H1567.12L1565.99 329.222C1565.14 332.699 1563.66 335.565 1561.55 337.821C1559.48 340.076 1556.94 341.768 1553.93 342.895C1550.97 343.976 1547.68 344.493 1544.06 344.446Z" fill="white"/>
<path d="M1598.38 343.036V270.157H1608.95V280.8C1610.17 278.686 1611.84 276.736 1613.96 274.95C1616.12 273.164 1618.73 271.731 1621.78 270.651C1624.89 269.57 1628.36 269.029 1632.22 269.029C1636.92 269.029 1641.2 269.969 1645.05 271.849C1648.95 273.681 1652.05 276.548 1654.36 280.448C1656.66 284.348 1657.81 289.352 1657.81 295.461V343.036H1646.81V296.447C1646.81 290.245 1645.24 285.663 1642.09 282.703C1638.94 279.743 1634.78 278.263 1629.61 278.263C1626.08 278.263 1622.77 278.827 1619.67 279.954C1616.57 281.082 1614.08 282.797 1612.2 285.1C1610.32 287.402 1609.38 290.292 1609.38 293.769V343.036H1598.38Z" fill="white"/>
<path d="M1691.41 270.157V343.036H1680.69V270.157H1691.41ZM1691.76 241.189V253.312H1680.2V241.189H1691.76Z" fill="white"/>
<path d="M1743.9 268.748C1748.93 268.748 1753.49 269.687 1757.58 271.567C1761.67 273.446 1765.05 276.148 1767.73 279.672C1770.41 283.15 1772.13 287.355 1772.88 292.289H1762.8C1762.33 289.563 1761.27 287.12 1759.63 284.959C1757.98 282.75 1755.82 281.012 1753.14 279.743C1750.51 278.474 1747.45 277.84 1743.97 277.84C1737.35 277.84 1731.94 280.213 1727.76 284.959C1723.62 289.657 1721.56 296.917 1721.56 306.738C1721.56 315.525 1723.44 322.573 1727.2 327.883C1731 333.145 1736.64 335.777 1744.12 335.777C1747.59 335.777 1750.65 335.142 1753.28 333.874C1755.96 332.558 1758.12 330.819 1759.77 328.658C1761.41 326.449 1762.45 324.03 1762.87 321.398H1772.81C1772.11 326.191 1770.39 330.326 1767.66 333.803C1764.94 337.233 1761.53 339.865 1757.44 341.697C1753.4 343.53 1748.89 344.446 1743.9 344.446C1737.42 344.446 1731.68 343.036 1726.7 340.217C1721.72 337.398 1717.82 333.192 1715 327.601C1712.23 322.009 1710.84 315.078 1710.84 306.808C1710.84 299.243 1712.11 292.618 1714.65 286.932C1717.18 281.2 1720.9 276.736 1725.79 273.54C1730.72 270.345 1736.76 268.748 1743.9 268.748Z" fill="white"/>
<path d="M1810.42 344.446C1805.67 344.446 1801.51 343.624 1797.94 341.979C1794.37 340.288 1791.57 337.891 1789.55 334.79C1787.58 331.689 1786.59 327.953 1786.59 323.583C1786.59 315.501 1789.34 309.51 1794.84 305.61C1800.38 301.71 1809.34 299.596 1821.7 299.267L1835.8 298.844V292.782C1835.8 288.036 1834.34 284.254 1831.43 281.434C1828.56 278.568 1824.12 277.159 1818.1 277.205C1813.59 277.205 1809.67 278.263 1806.33 280.377C1803.04 282.445 1800.95 285.781 1800.06 290.386H1790.04C1790.33 285.828 1791.62 281.951 1793.92 278.756C1796.23 275.514 1799.47 273.047 1803.65 271.355C1807.83 269.617 1812.84 268.748 1818.67 268.748C1824.68 268.748 1829.74 269.64 1833.83 271.426C1837.96 273.164 1841.09 275.796 1843.2 279.32C1845.32 282.797 1846.38 287.12 1846.38 292.289V343.036H1836.93L1836.15 329.01C1833.24 334.79 1829.53 338.807 1825.01 341.063C1820.55 343.318 1815.68 344.446 1810.42 344.446ZM1813.52 336.2C1816.15 336.2 1818.76 335.73 1821.35 334.79C1823.98 333.85 1826.38 332.558 1828.54 330.913C1830.7 329.269 1832.44 327.436 1833.76 325.416C1835.07 323.395 1835.75 321.328 1835.8 319.213V306.244L1824.03 306.456C1817.87 306.55 1812.82 307.161 1808.87 308.288C1804.97 309.416 1802.05 311.155 1800.13 313.504C1798.25 315.807 1797.31 318.837 1797.31 322.596C1797.31 326.872 1798.81 330.209 1801.82 332.605C1804.83 335.001 1808.73 336.2 1813.52 336.2Z" fill="white"/>
<path d="M1901.13 278.404H1884.64V325.416C1884.64 328.235 1884.89 330.303 1885.41 331.618C1885.98 332.887 1886.94 333.709 1888.3 334.085C1889.71 334.414 1891.66 334.578 1894.15 334.578H1901.63V342.191C1900.73 342.52 1899.39 342.801 1897.61 343.036C1895.87 343.224 1893.78 343.318 1891.33 343.318C1886.68 343.318 1883.06 342.66 1880.48 341.345C1877.94 340.029 1876.15 338.079 1875.12 335.495C1874.08 332.91 1873.57 329.668 1873.57 325.768V278.404H1861.72V270.157H1873.85L1876.46 249.153H1884.64V270.087H1901.13V278.404Z" fill="white"/>
<path d="M1933.21 270.157V343.036H1922.49V270.157H1933.21ZM1933.56 241.189V253.312H1922V241.189H1933.56Z" fill="white"/>
<path d="M1985.56 344.446C1978.98 344.446 1973.2 343.036 1968.22 340.217C1963.28 337.351 1959.45 333.122 1956.73 327.53C1954 321.939 1952.64 315.055 1952.64 306.879C1952.64 299.267 1953.88 292.594 1956.38 286.862C1958.91 281.129 1962.63 276.689 1967.51 273.54C1972.4 270.345 1978.44 268.748 1985.63 268.748C1992.21 268.748 1997.92 270.204 2002.77 273.117C2007.65 275.984 2011.44 280.26 2014.12 285.945C2016.84 291.584 2018.21 298.562 2018.21 306.879C2018.21 314.303 2016.98 320.834 2014.54 326.473C2012.1 332.112 2008.45 336.528 2003.61 339.724C1998.82 342.872 1992.8 344.446 1985.56 344.446ZM1985.63 335.565C1990.19 335.565 1994.07 334.437 1997.27 332.182C2000.51 329.927 2002.98 326.637 2004.67 322.314C2006.41 317.992 2007.28 312.752 2007.28 306.597C2007.28 301.052 2006.53 296.095 2005.02 291.725C2003.52 287.355 2001.17 283.925 1997.97 281.434C1994.78 278.897 1990.66 277.628 1985.63 277.628C1980.98 277.628 1977.01 278.756 1973.72 281.012C1970.48 283.22 1967.98 286.486 1966.25 290.809C1964.51 295.132 1963.64 300.394 1963.64 306.597C1963.64 312.141 1964.39 317.099 1965.89 321.469C1967.44 325.792 1969.84 329.222 1973.08 331.759C1976.33 334.297 1980.51 335.565 1985.63 335.565Z" fill="white"/>
<path d="M2036.12 343.036V270.157H2046.7V280.8C2047.92 278.686 2049.59 276.736 2051.7 274.95C2053.87 273.164 2056.47 271.731 2059.53 270.651C2062.63 269.57 2066.11 269.029 2069.96 269.029C2074.66 269.029 2078.94 269.969 2082.8 271.849C2086.7 273.681 2089.8 276.548 2092.1 280.448C2094.4 284.348 2095.56 289.352 2095.56 295.461V343.036H2084.56V296.447C2084.56 290.245 2082.98 285.663 2079.83 282.703C2076.69 279.743 2072.53 278.263 2067.36 278.263C2063.83 278.263 2060.52 278.827 2057.41 279.954C2054.31 281.082 2051.82 282.797 2049.94 285.1C2048.06 287.402 2047.12 290.292 2047.12 293.769V343.036H2036.12Z" fill="white"/>
<path d="M1105.13 497.427V395.509H1138.76C1146 395.509 1152.44 396.731 1158.08 399.174C1163.77 401.571 1168.21 405.142 1171.41 409.888C1174.65 414.586 1176.27 420.413 1176.27 427.367C1176.27 434.181 1174.74 439.984 1171.69 444.777C1168.63 449.522 1164.4 453.141 1159 455.631C1153.64 458.121 1147.41 459.366 1140.31 459.366H1116.55V497.427H1105.13ZM1116.48 449.71H1140.1C1147.58 449.71 1153.64 447.666 1158.29 443.578C1162.99 439.49 1165.34 433.875 1165.34 426.733C1165.34 419.497 1162.95 414.07 1158.15 410.451C1153.36 406.833 1147.08 405.024 1139.33 405.024H1116.48V449.71Z" fill="white"/>
<path d="M1191.48 497.427V424.548H1201.91V437.728C1203.13 434.298 1204.85 431.526 1207.06 429.411C1209.31 427.25 1211.83 425.676 1214.6 424.689C1217.42 423.655 1220.26 423.138 1223.13 423.138C1224.31 423.138 1225.46 423.232 1226.59 423.42C1227.71 423.561 1228.61 423.82 1229.26 424.196V434.909C1228.51 434.533 1227.5 434.275 1226.23 434.134C1225.01 433.993 1223.98 433.922 1223.13 433.922C1220.55 433.781 1218.03 433.969 1215.59 434.486C1213.14 435.003 1210.91 435.919 1208.89 437.235C1206.92 438.551 1205.34 440.313 1204.17 442.521C1203.04 444.73 1202.47 447.431 1202.47 450.627V497.427H1191.48Z" fill="white"/>
<path d="M1271.87 498.837C1265.29 498.837 1259.51 497.427 1254.52 494.608C1249.59 491.742 1245.76 487.513 1243.03 481.921C1240.31 476.329 1238.94 469.446 1238.94 461.27C1238.94 453.657 1240.19 446.985 1242.68 441.252C1245.22 435.52 1248.93 431.079 1253.82 427.931C1258.71 424.736 1264.75 423.138 1271.94 423.138C1278.52 423.138 1284.23 424.595 1289.07 427.508C1293.96 430.375 1297.74 434.651 1300.42 440.336C1303.15 445.975 1304.51 452.953 1304.51 461.27C1304.51 468.694 1303.29 475.225 1300.84 480.864C1298.4 486.502 1294.76 490.919 1289.92 494.115C1285.12 497.263 1279.11 498.837 1271.87 498.837ZM1271.94 489.956C1276.5 489.956 1280.37 488.828 1283.57 486.573C1286.81 484.317 1289.28 481.028 1290.97 476.705C1292.71 472.382 1293.58 467.143 1293.58 460.988C1293.58 455.443 1292.83 450.486 1291.33 446.116C1289.82 441.746 1287.47 438.316 1284.28 435.825C1281.08 433.288 1276.97 432.019 1271.94 432.019C1267.28 432.019 1263.31 433.147 1260.02 435.402C1256.78 437.611 1254.29 440.877 1252.55 445.199C1250.81 449.522 1249.94 454.785 1249.94 460.988C1249.94 466.532 1250.69 471.49 1252.2 475.859C1253.75 480.182 1256.15 483.613 1259.39 486.15C1262.63 488.687 1266.81 489.956 1271.94 489.956Z" fill="white"/>
<path d="M1355.16 432.794H1338.66V479.807C1338.66 482.626 1338.92 484.693 1339.43 486.009C1340 487.278 1340.96 488.1 1342.32 488.476C1343.73 488.805 1345.69 488.969 1348.18 488.969H1355.65V496.581C1354.76 496.91 1353.42 497.192 1351.63 497.427C1349.89 497.615 1347.8 497.709 1345.36 497.709C1340.7 497.709 1337.08 497.051 1334.5 495.736C1331.96 494.42 1330.17 492.47 1329.14 489.886C1328.11 487.301 1327.59 484.059 1327.59 480.159V432.794H1315.75V424.548H1327.87L1330.48 403.544H1338.66V424.478H1355.16V432.794Z" fill="white"/>
<path d="M1401.44 498.837C1394.86 498.837 1389.08 497.427 1384.1 494.608C1379.16 491.742 1375.33 487.513 1372.61 481.921C1369.88 476.329 1368.52 469.446 1368.52 461.27C1368.52 453.657 1369.76 446.985 1372.25 441.252C1374.79 435.52 1378.51 431.079 1383.39 427.931C1388.28 424.736 1394.32 423.138 1401.51 423.138C1408.09 423.138 1413.8 424.595 1418.65 427.508C1423.53 430.375 1427.32 434.651 1430 440.336C1432.72 445.975 1434.09 452.953 1434.09 461.27C1434.09 468.694 1432.86 475.225 1430.42 480.864C1427.97 486.502 1424.33 490.919 1419.49 494.115C1414.7 497.263 1408.68 498.837 1401.44 498.837ZM1401.51 489.956C1406.07 489.956 1409.95 488.828 1413.15 486.573C1416.39 484.317 1418.86 481.028 1420.55 476.705C1422.29 472.382 1423.16 467.143 1423.16 460.988C1423.16 455.443 1422.41 450.486 1420.9 446.116C1419.4 441.746 1417.05 438.316 1413.85 435.825C1410.65 433.288 1406.54 432.019 1401.51 432.019C1396.86 432.019 1392.89 433.147 1389.6 435.402C1386.36 437.611 1383.86 440.877 1382.13 445.199C1380.39 449.522 1379.52 454.785 1379.52 460.988C1379.52 466.532 1380.27 471.49 1381.77 475.859C1383.32 480.182 1385.72 483.613 1388.96 486.15C1392.21 488.687 1396.39 489.956 1401.51 489.956Z" fill="white"/>
<path d="M1480.49 423.138C1485.51 423.138 1490.07 424.078 1494.16 425.958C1498.25 427.837 1501.64 430.539 1504.32 434.063C1506.99 437.54 1508.71 441.746 1509.46 446.68H1499.38C1498.91 443.954 1497.85 441.511 1496.21 439.349C1494.56 437.141 1492.4 435.402 1489.72 434.134C1487.09 432.865 1484.03 432.231 1480.56 432.231C1473.93 432.231 1468.52 434.604 1464.34 439.349C1460.2 444.048 1458.14 451.308 1458.14 461.129C1458.14 469.915 1460.02 476.964 1463.78 482.273C1467.58 487.536 1473.22 490.167 1480.7 490.167C1484.17 490.167 1487.23 489.533 1489.86 488.264C1492.54 486.949 1494.7 485.21 1496.35 483.049C1497.99 480.84 1499.03 478.42 1499.45 475.789H1509.39C1508.69 480.582 1506.97 484.717 1504.24 488.194C1501.52 491.624 1498.11 494.255 1494.02 496.088C1489.98 497.921 1485.47 498.837 1480.49 498.837C1474 498.837 1468.26 497.427 1463.28 494.608C1458.3 491.789 1454.4 487.583 1451.58 481.991C1448.81 476.4 1447.42 469.469 1447.42 461.199C1447.42 453.634 1448.69 447.009 1451.23 441.323C1453.77 435.59 1457.48 431.126 1462.37 427.931C1467.3 424.736 1473.34 423.138 1480.49 423.138Z" fill="white"/>
<path d="M1556.35 498.837C1549.77 498.837 1543.99 497.427 1539.01 494.608C1534.08 491.742 1530.25 487.513 1527.52 481.921C1524.79 476.329 1523.43 469.446 1523.43 461.27C1523.43 453.657 1524.68 446.985 1527.17 441.252C1529.7 435.52 1533.42 431.079 1538.31 427.931C1543.19 424.736 1549.23 423.138 1556.42 423.138C1563.01 423.138 1568.72 424.595 1573.56 427.508C1578.45 430.375 1582.23 434.651 1584.91 440.336C1587.63 445.975 1589 452.953 1589 461.27C1589 468.694 1587.77 475.225 1585.33 480.864C1582.89 486.502 1579.24 490.919 1574.4 494.115C1569.61 497.263 1563.59 498.837 1556.35 498.837ZM1556.42 489.956C1560.98 489.956 1564.86 488.828 1568.06 486.573C1571.3 484.317 1573.77 481.028 1575.46 476.705C1577.2 472.382 1578.07 467.143 1578.07 460.988C1578.07 455.443 1577.32 450.486 1575.81 446.116C1574.31 441.746 1571.96 438.316 1568.76 435.825C1565.57 433.288 1561.45 432.019 1556.42 432.019C1551.77 432.019 1547.8 433.147 1544.51 435.402C1541.27 437.611 1538.78 440.877 1537.04 445.199C1535.3 449.522 1534.43 454.785 1534.43 460.988C1534.43 466.532 1535.18 471.49 1536.68 475.859C1538.24 480.182 1540.63 483.613 1543.88 486.15C1547.12 488.687 1551.3 489.956 1556.42 489.956Z" fill="white"/>
<path d="M1623.98 498.203C1620.5 498.203 1617.63 497.709 1615.37 496.722C1613.17 495.689 1611.43 494.279 1610.16 492.493C1608.94 490.708 1608.09 488.664 1607.62 486.361C1607.15 484.059 1606.91 481.639 1606.91 479.102V392.69H1617.77V478.185C1617.77 482.179 1618.52 485.116 1620.03 486.996C1621.53 488.828 1623.51 489.815 1625.95 489.956L1630.04 490.026V497.216C1629 497.545 1627.95 497.78 1626.87 497.921C1625.79 498.109 1624.82 498.203 1623.98 498.203Z" fill="white"/>
<defs>
<clipPath id="clip0_1383_394">
<rect width="956.814" height="584" fill="white"/>
</clipPath>
</defs>
</svg>
